<?xml version="1.0" encoding="utf-8"?>
<!-- Generator: Adobe Illustrator 21.0.0, SVG Export Plug-In . SVG Version: 6.00 Build 0)  -->
<svg version="1.1" id="Layer_1" xmlns="http://www.w3.org/2000/svg" xmlns:xlink="http://www.w3.org/1999/xlink" x="0px" y="0px"
	 viewBox="0 0 126.5 109" style="enable-background:new 0 0 126.5 109;" xml:space="preserve">
<style type="text/css">
	.st0{fill:#FFFFFF;}
	.st1{fill:#0396C5;}
	.st2{fill:#055884;}
</style>
<g>
	<path class="st0" d="M57.1,92.6c0.3,0,0.6-0.1,0.8-0.1c0.3,0,0.6,0,0.8-0.1c0.6,0,1.1-0.1,1.7-0.1c1.1,0,2.3-0.1,3.4-0.1
		c1.1,0,2.3,0,3.4,0.1c0.6,0,1.1,0.1,1.7,0.1c0.3,0,0.6,0,0.8,0.1c0.3,0,0.6,0.1,0.8,0.1c-0.3,0-0.6,0.1-0.8,0.1
		c-0.3,0-0.6,0-0.8,0.1c-0.6,0-1.1,0.1-1.7,0.1c-1.1,0-2.3,0.1-3.4,0.1c-1.1,0-2.3,0-3.4-0.1c-0.6,0-1.1-0.1-1.7-0.1
		c-0.3,0-0.6,0-0.8-0.1C57.7,92.7,57.4,92.7,57.1,92.6z"/>
	<g>
		<path class="st1" d="M4.5,33.4v-7.8h4.6c2.8,0,5.1,1.4,5.1,3.9c0,2.5-2.4,3.9-5.1,3.9H4.5z M8.9,32.3c2.2,0,4-1,4-2.8
			c0-1.9-1.8-2.8-4-2.8H5.8v5.7H8.9z"/>
		<path class="st1" d="M16.5,33.4v-7.8h7.9v1h-6.6v2.3h5.4v0.9h-5.4v2.5h6.6v1H16.5z"/>
		<path class="st1" d="M27.8,27.7v5.7h-1.3v-8.1l7.9,6.1v-5.8h1.3v8.1L27.8,27.7z"/>
		<path class="st1" d="M41.2,33.4v-6.7h-3.9v-1.1h9.1v1.1h-3.9v6.7H41.2z"/>
		<path class="st1" d="M54.7,33.4l-1.3-1.9h-5.3l-1.3,1.9h-1.5l5.4-8.1l5.4,8.1H54.7z M50.8,27.5l-2,3h4L50.8,27.5z"/>
		<path class="st1" d="M57.5,33.4v-7.8h1.3v6.8h6.3v1.1H57.5z"/>
		<path class="st1" d="M81.1,32.8c-1,0.6-2.2,0.9-3.5,0.9c-3.1,0-5.6-1.9-5.6-4.2c0-2.3,2.6-4.2,5.6-4.2c1.3,0,2.6,0.4,3.5,1v1.3
			c-0.8-0.6-2.1-1.2-3.5-1.2c-2.4,0-4.3,1.4-4.3,3.1c0,1.7,1.9,3.1,4.3,3.1c1.5,0,2.7-0.5,3.5-1.2V32.8z"/>
		<path class="st1" d="M83.6,33.4v-7.8h1.3v6.8h6.3v1.1H83.6z"/>
		<path class="st1" d="M92.9,33.4v-7.8h1.3v7.8H92.9z"/>
		<path class="st1" d="M98.1,27.7v5.7h-1.3v-8.1l7.9,6.1v-5.8h1.3v8.1L98.1,27.7z"/>
		<path class="st1" d="M108.7,33.4v-7.8h1.3v7.8H108.7z"/>
		<path class="st1" d="M121.3,32.8c-1,0.6-2.2,0.9-3.5,0.9c-3.1,0-5.6-1.9-5.6-4.2c0-2.3,2.6-4.2,5.6-4.2c1.3,0,2.6,0.4,3.5,1v1.3
			c-0.8-0.6-2.1-1.2-3.5-1.2c-2.4,0-4.3,1.4-4.3,3.1c0,1.7,1.9,3.1,4.3,3.1c1.5,0,2.7-0.5,3.5-1.2V32.8z"/>
	</g>
	<g>
		<path class="st2" d="M22.1,19c-0.9,2.1-3.7,3.1-8.4,3.1c-3,0-6,0-9,0.1C4.8,21.3,5,19.2,5,16c0-2.4,0-3.6,0-3.6
			c0-1.3-0.2-2.1-0.4-2.4c3.5-0.9,7.1-1.8,10.6-2.5c3.6-0.8,5.5-0.3,5.6,1.4c0.1,1.6-0.7,2.9-2.6,3.7c0.4-0.1,0.8-0.1,1.2,0
			c0.9,0.1,1.6,0.5,2.1,1.1c0.7,0.8,1,1.8,1,2.9C22.6,17.4,22.4,18.2,22.1,19z M16.2,16.3c-0.2-0.5-0.7-0.9-1.2-1
			c-0.4-0.1-1.1-0.1-2,0c-0.9,0.1-1.8,0.2-2.7,0.3c0,0.3,0,0.8-0.1,1.6c0,0.7,0,1.7,0.1,3c0.9,0,1.8-0.1,2.7-0.1
			c1,0,1.8-0.3,2.5-0.7c0.7-0.5,1-1.1,1-1.8C16.5,17.1,16.4,16.7,16.2,16.3z M15.1,10.7C15,10.2,14.5,10,13.8,10
			c-0.4,0-1.1,0.1-2.1,0.3c-0.5,0.1-0.9,0.2-1.4,0.3c-0.1,0.9-0.1,1.9,0,3c0.6-0.1,1.2-0.2,1.9-0.3c2-0.3,3-1,3-2.1
			C15.1,11,15.1,10.8,15.1,10.7z"/>
		<path class="st2" d="M25,5.6c2.1-0.3,4.1-0.7,6.2-1c-0.3,2.1-0.4,5.1-0.4,8.9c0,4.5,0.2,7.3,0.6,8.6c-2.1,0-4.1,0-6.2,0
			c0.2-1.9,0.3-4.6,0.3-8.2C25.4,9.3,25.3,6.5,25,5.6z"/>
		<path class="st2" d="M43.6,11.4c3.4-0.2,6.8-0.3,10.2-0.4c-0.2,1.5-0.2,3-0.2,4.7c0,1.2,0,2.3,0.1,3.3c-2.7,2.5-5.6,3.7-8.6,3.7
			c-5.9-0.2-9.7-1.9-11.3-5.2c-0.7-1.3-1-2.6-1-4.2c0-1.9,0.5-3.6,1.4-5.1c1.2-1.8,3-3.3,5.4-4.4c1.6-0.7,3.3-1.1,5.2-1.3
			c1.4-0.1,2.8-0.1,4,0.2C50,2.9,50.7,3.2,51,3.5c0.4,1.5,0.7,3,1.1,4.6c-2.7-1.7-5.1-2.5-7.3-2.4c-0.4,0-0.7,0.1-1,0.2
			c-1.4,0.4-2.5,0.9-3.1,1.6c-0.8,0.9-1.3,2.4-1.4,4.3c-0.1,2.7,0.5,4.7,1.8,6.1c1.1,1.2,2.4,1.7,4,1.7c0.5,0,1-0.1,1.4-0.2
			c0.1-1.9,0.1-3.8,0-5.6c-1.9,0.3-3.2,0.7-3.9,1.1C43,13.8,43.3,12.6,43.6,11.4z"/>
		<path class="st2" d="M72.1,22.4c-3.3-0.1-5.9-0.9-7.8-2.6c-0.3-1.8-0.5-3.6-0.8-5.4c0.8,0.8,1.5,1.4,2.2,2
			c1.7,1.4,3.2,2.2,4.5,2.5c0.9,0.2,1.6,0.3,2.3,0.3c1.4,0,2.3-0.4,2.5-1.3c0.1-0.2,0.1-0.4,0.1-0.6c0-0.8-0.9-1.6-2.8-2.3
			c-1-0.3-2.4-0.8-4.4-1.6c-1.7-0.8-2.8-1.5-3.4-2.3c-0.5-0.7-0.7-1.7-0.7-3.1c0.1-1.5,0.6-2.7,1.5-3.7c1.4-1.5,3.8-2.3,7.1-2.4
			c3.1,0,5.6,0.4,7.4,1.3c0.2,1.4,0.4,2.9,0.5,4.3c-0.4-0.4-1-0.9-1.6-1.2c-1.5-0.8-3.3-1.3-5.5-1.4c-1-0.1-1.7,0-2.2,0.2
			c-0.5,0.2-0.8,0.4-0.8,0.9c0,0.4,0.3,0.7,0.9,0.9c0.7,0.2,1.3,0.4,2,0.7c1,0.4,2.4,0.9,4.1,1.5c1.8,0.8,3,1.6,3.8,2.4
			c0.9,1,1.4,2.2,1.3,3.7c-0.1,2.2-1.1,3.9-2.8,5.2C77.7,21.9,75.2,22.5,72.1,22.4z"/>
		<path class="st2" d="M95.7,4.7c1.9,0.3,3.7,0.6,5.6,0.9c-2,0.6-4,1.5-5.9,2.7c3,6.4,5.7,10.9,8.3,13.8c-2.8,0-5.6,0-8.5,0
			c-0.2-2.3-1.5-5.7-3.9-10.5c-0.4,0.4-0.7,0.7-1,1.1c0,0.2,0,0.4,0,0.5c-0.1,5.2,0.1,8.2,0.4,8.9c-2.1,0-4.1,0-6.2,0
			c0.2-0.9,0.4-2.2,0.4-4c0-0.7,0-2.4,0.1-5.2c0-5-0.1-8.1-0.4-9.4c2.1,0.2,4.1,0.4,6.2,0.7c-0.1,0.4-0.2,1.2-0.3,2.2
			c0,1.2-0.1,2.3-0.2,3.5C92.2,8,93.9,6.3,95.7,4.7z"/>
		<path class="st2" d="M113.8,13.2c1.5-1.4,2.9-2.8,4.3-4.1c1.3,0.3,2.5,0.6,3.7,1c-1.4,0.8-2.5,1.6-3.1,2.1
			c-1.4,1.2-2.6,2.5-3.6,3.9c0,2,0.1,3.2,0.1,3.6c0,1.1,0.1,2,0.3,2.6c-2.1,0-4.4,0-6.5,0c0.2-0.8,0.6-1.8,0.7-2.9
			c0-1.2,0-2.4,0.1-3.6c-0.7-1.1-1.8-2.5-3.3-4.2c-1.6-1.8-3.2-3.7-4.8-5.7c2.7,0.5,5.4,1,8.1,1.5C110.5,8.6,111.9,10.7,113.8,13.2z
			"/>
	</g>
	<g>
		<path class="st1" d="M11.4,79l0.4-0.3l2.1,2.6l-0.4,0.3L11.4,79z"/>
		<path class="st2" d="M18.5,88.2c-0.6-0.1-1.2-0.5-1.7-1c-1.1-1.1-1.4-2.7-0.5-3.5c0.8-0.8,2.4-0.7,3.5,0.4c0.5,0.5,0.9,1.1,1,1.7
			l-0.5,0.5c-0.1-0.5-0.4-1.2-0.9-1.7c-0.8-0.8-1.9-0.9-2.5-0.4c-0.6,0.6-0.4,1.7,0.4,2.4c0.5,0.5,1.2,0.8,1.7,0.9L18.5,88.2z"/>
		<path class="st2" d="M22.8,92.2l1.1-1.4l-2.5-2l-1.1,1.4l-0.6-0.5l2.5-3.1l0.6,0.5l-1,1.2l2.5,2l1-1.2l0.6,0.5l-2.5,3.1L22.8,92.2
			z"/>
		<path class="st2" d="M27.8,95.5l0-1.7L26.5,93l-0.8,1.2l-0.7-0.4l2.1-3.4l2.2,1.4c0.9,0.6,0.9,1.4,0.6,1.9
			c-0.2,0.4-0.8,0.6-1.4,0.5l0,1.8L27.8,95.5z M27.5,91.4l-0.6,1l1.4,0.9c0.5,0.3,0.8,0.2,1-0.1c0.2-0.3,0.1-0.6-0.4-0.9L27.5,91.4z
			"/>
		<path class="st2" d="M30,96.8l1.9-3.5l0.7,0.4l-1.9,3.5L30,96.8z"/>
		<path class="st2" d="M36.8,96.6c-0.3-0.3-0.7-0.6-1.3-0.9c-0.7-0.3-1.2-0.4-1.4-0.1c-0.4,0.8,2.9,1.6,2.2,3.1
			c-0.5,1-1.7,0.6-2.6,0.2c-0.6-0.3-1.3-0.7-1.6-1.2l0.3-0.6c0.3,0.3,0.9,0.8,1.6,1.2c0.3,0.2,1.4,0.5,1.6,0.2
			c0.4-0.8-3-1.5-2.2-3.1c0.4-0.8,1.4-0.6,2.4-0.2c0.5,0.2,1,0.6,1.3,0.9L36.8,96.6z"/>
		<path class="st2" d="M44.8,102.4c-0.6,0.2-1.3,0.1-2-0.1c-1.5-0.5-2.4-1.7-2.1-2.9c0.3-1.1,1.8-1.7,3.3-1.2
			c0.7,0.2,1.3,0.6,1.7,1.1l-0.2,0.7c-0.3-0.4-0.9-0.9-1.6-1.1c-1.1-0.3-2.1,0-2.3,0.8c-0.2,0.8,0.4,1.7,1.5,2
			c0.7,0.2,1.4,0.1,1.9,0L44.8,102.4z"/>
		<path class="st2" d="M46.5,103.2l0.8-3.9l0.8,0.2l-0.7,3.2l3.1,0.7l-0.1,0.7L46.5,103.2z"/>
		<path class="st2" d="M55.5,104.8l-0.4-0.9l-2.4-0.3l-0.6,0.8l-0.9-0.1l3.2-3.7l2.1,4.4L55.5,104.8z M54.2,101.8l-1,1.2l1.6,0.2
			L54.2,101.8z"/>
		<path class="st2" d="M56.5,100.9l0.9,0.1l1.5,2.9l1.9-2.7l0.9,0.1l-2.9,4L56.5,100.9z"/>
		<path class="st2" d="M62.8,105.3l-0.1-4l4-0.1l0,0.7l-3.2,0.1l0,0.9l2.7,0l0,0.7l-2.7,0l0,1l3.2-0.1l0,0.7L62.8,105.3z"/>
		<path class="st2" d="M68.2,106l0.3-1.4l0.8-0.1l-0.5,1.4L68.2,106z"/>
		<path class="st2" d="M74,104.4l-0.8-3.9l2.5-0.5c1.2-0.2,2.6,0.1,2.9,1.5c0.3,1.4-0.9,2.2-2.1,2.5L74,104.4z M76.3,103.3
			c0.9-0.2,1.6-0.6,1.4-1.6c-0.2-1-1.1-1.1-2-0.9l-1.6,0.3l0.5,2.6L76.3,103.3z"/>
		<path class="st2" d="M86.3,101.2l-1.7-2.1l-0.9,3.1l-2.6-2l-0.1,2.7l-0.8,0.3l0.2-4.4l3,2.2l1.1-3.5l2.8,3.4L86.3,101.2z"/>
		<path class="st2" d="M88.5,100.3l-1.7-3.6l2.3-1.1c1.1-0.5,2.5-0.5,3.1,0.7c0.6,1.3-0.3,2.4-1.5,2.9L88.5,100.3z M90.5,98.6
			c0.8-0.4,1.5-1,1-1.9c-0.4-0.9-1.3-0.8-2.1-0.5l-1.5,0.7l1.1,2.4L90.5,98.6z"/>
		<path class="st2" d="M97.2,94.1l0.8,1.2l-0.7,0.4l-2.2-3.3l2.2-1.4c0.9-0.6,1.6-0.2,1.9,0.3c0.3,0.5,0.3,1.3-0.5,1.9L97.2,94.1z
			 M96.2,92.5l0.6,1l1.4-0.9c0.5-0.3,0.5-0.7,0.4-0.9c-0.2-0.3-0.5-0.4-1,0L96.2,92.5z"/>
		<path class="st2" d="M102.1,92.5l-2.5-3.1l0.6-0.5l2,2.6l2.5-1.9l0.4,0.5L102.1,92.5z"/>
		<path class="st2" d="M106.2,89.2l-2.7-2.9l0.6-0.6l2.2,2.4l2.3-2.1l0.5,0.5L106.2,89.2z"/>
		<path class="st2" d="M112.7,82.2c-0.1,0.6-0.4,1.2-0.9,1.7c-1,1.1-2.6,1.4-3.5,0.6c-0.9-0.8-0.7-2.4,0.3-3.5c0.5-0.5,1-0.9,1.7-1
			l0.6,0.5c-0.5,0.1-1.2,0.4-1.7,1c-0.8,0.8-0.9,1.9-0.3,2.5c0.6,0.6,1.7,0.3,2.4-0.5c0.5-0.5,0.7-1.2,0.8-1.8L112.7,82.2z"/>
		<path class="st1" d="M114.6,78.2l-0.4-0.3l1.9-2.7l0.4,0.3L114.6,78.2z"/>
	</g>
	<g>
		<path class="st0" d="M4.4,38.9c1.2,31.3,24.9,56,58.6,56.4c31.6,0.3,57.4-25.1,58.6-56.4H4.4z"/>
		<path class="st2" d="M24.3,81.3c14.3-1.1,34.4-1.7,55.4,0.7c0.9,0.1,3.1,0.5,1.6,1.3C78,85,63.9,85.4,63.9,88c0,2.4,17.9,3,20.8,3
			c0.2,0,0.5,0,0.7,0c7.9-3.3,15-8.2,20.7-14.5c-1-0.8-2.1-1.5-3.1-2.1c-0.7-0.4-1.4-1.2-2.6-0.7c-0.7,0.3-2.2,1-2.2,1
			s-2.9-1.7-4.5-2.4c-1.7-0.7-3.1-2.9-4.8-4.1c-1.7-1.2-3.3-2.4-5.3-2.6c-1.9-0.2-3.6-3.1-5.3-2.9c-1.7,0.2-4.3,2.6-4.3,2.6
			s-1.9-1.4-2.6-2.2c-0.7-0.7-7.4-6.9-8.8-7.9c-1.4-1-1.7-0.7-3.1,0.5c-1.4,1.2-2.2,1.7-3.6,2.6c-1.4,1-4.8,3.3-4.8,3.3
			s-3.3-0.5-4.8-0.5c-1.4,0-2.4,1-4.1,1.9c-1.7,1-4.3,1.7-6.7,3.3c-2.4,1.7-8.6,6.2-8.6,6.2s-1.1-0.3-2-0.8
			c-0.9-0.4-1.4-0.8-2.1-0.8c-1.2,0-2.2,1.5-5,3.6C19.9,77.1,22,79.3,24.3,81.3z M80.6,65.5c1.4,0.9,2,0.9,3.4,1.4
			c1.4,0.5,2.2,0.5,2.8,1.4c0.6,0.9,2.6,2.3,2.8,3.1c0.2,0.8-2.2-0.3-5.6-1.7c-3.4-1.4-6.5-5.1-6.5-5.1
			C77.5,63.8,79.2,64.6,80.6,65.5z M57.3,71.4c0.5-0.8,1.9-3.1,2-4.3c0.2-1.2-0.9-2.6-1.4-3.9c-0.5-1.2,2-3.2,2.8-3.9
			c0.8-0.6,0.3-0.8,0.3-1.5c0-0.8,0.5-1.9,0.5-1.9c1.4,0.2,3.2,2.6,5.4,4.6c2.2,2,17.6,14.2,17.6,14.2s-3.2-1.5-4.6-2.2
			c-1.4-0.6-5.2-2-5.9-2.3c-0.6-0.3-0.8-0.5-1.7-1.4c-0.9-0.9-4.6-2.5-5.1-2.5c-0.5,0-1.2,0-2.2,0.8c-0.9,0.8-1.5,1.7-2,2
			c-0.5,0.3-1.7,0.3-3.2,1.2c-1.5,0.9-2.9,1.7-2.9,1.7S56.8,72.2,57.3,71.4z M38.9,68.9c0.8-0.9,0.8-0.9,1.4-1.7
			c0.6-0.8,0.5-0.6,1.9-0.9c1.4-0.3,1.4,0.3,1.9-0.5c0.5-0.8,0.3-1.9,0.9-2.6c0.6-0.8,0-1.2,1.5-1.2c2.2,0,4.1,0.4,4.1,0.4
			s-4.3,4.2-5.4,4.9c-1.1,0.8-3.4,2.2-4.3,2.5c-0.9,0.3-2.3,0.9-2.3,0.9S38.2,69.8,38.9,68.9z"/>
		<path class="st1" d="M84.7,91c-3,0-20.8-0.6-20.8-3c0-2.6,14.1-3.1,17.5-4.7c1.5-0.8-0.6-1.2-1.6-1.3c-21-2.4-41.1-1.8-55.4-0.7
			c10,8.6,23.3,13.9,38.7,14c7.9,0.1,15.5-1.5,22.3-4.3C85.2,91,85,91,84.7,91z M64.3,83.2c0.1,0,0.3,0,0.4,0c0.3,0,0.5,0,0.8-0.1
			c0.5,0,1,0,1.6,0c0.5,0,1,0,1.6,0c0.3,0,0.5,0,0.8,0.1c0.1,0,0.3,0,0.4,0c0.1,0,0.3,0,0.4,0.1c-0.1,0-0.3,0-0.4,0.1
			c-0.1,0-0.3,0-0.4,0c-0.3,0-0.5,0.1-0.8,0.1c-0.5,0-1,0-1.6,0c-0.5,0-1,0-1.6-0.1c-0.3,0-0.5,0-0.8-0.1c-0.1,0-0.3,0-0.4,0
			c-0.1,0-0.3,0-0.4-0.1C64,83.3,64.2,83.2,64.3,83.2z M64.7,84.8c0.3,0,0.6,0,0.9,0.1c-0.3,0-0.6,0.1-0.9,0.1c-0.3,0-0.6,0-0.9,0.1
			c-0.6,0-1.1,0.1-1.7,0.1c-1.1,0-2.3,0.1-3.4,0.1c-1.1,0-2.3,0-3.4-0.1c-0.6,0-1.1,0-1.7-0.1c-0.3,0-0.6,0-0.9-0.1
			c-0.3,0-0.6,0-0.9-0.1c0.3,0,0.6-0.1,0.9-0.1c0.3,0,0.6,0,0.9-0.1c0.6,0,1.1-0.1,1.7-0.1c1.1,0,2.3-0.1,3.4-0.1
			c1.1,0,2.3,0,3.4,0.1c0.6,0,1.1,0,1.7,0.1C64.2,84.7,64.5,84.8,64.7,84.8z M41.1,81.6c0.4,0,0.8,0,1.1-0.1c0.8,0,1.5-0.1,2.3-0.1
			c1.5,0,3-0.1,4.6-0.1c1.5,0,3,0,4.6,0.1c0.8,0,1.5,0,2.3,0.1c0.4,0,0.8,0,1.1,0c0.4,0,0.8,0,1.1,0.1c-0.4,0-0.8,0-1.1,0.1
			c-0.4,0-0.8,0-1.1,0c-0.8,0-1.5,0.1-2.3,0.1c-1.5,0-3,0.1-4.6,0.1c-1.5,0-3,0-4.6-0.1c-0.8,0-1.5,0-2.3-0.1c-0.4,0-0.8,0-1.1,0
			c-0.4,0-0.8,0-1.1-0.1C40.3,81.7,40.7,81.6,41.1,81.6z M34,81.6c0.1,0,0.2,0,0.3,0c0.2,0,0.5,0,0.7,0c0.5,0,0.9,0,1.4,0
			c0.5,0,0.9,0,1.4,0c0.2,0,0.5,0,0.7,0c0.1,0,0.2,0,0.3,0c0.1,0,0.2,0,0.3,0c-0.1,0-0.2,0-0.3,0c-0.1,0-0.2,0-0.3,0
			c-0.2,0-0.5,0-0.7,0c-0.5,0-0.9,0-1.4,0c-0.5,0-0.9,0-1.4,0c-0.2,0-0.5,0-0.7,0C34.2,81.8,34.1,81.7,34,81.6
			c-0.1,0.1-0.2,0.1-0.3,0C33.8,81.7,33.9,81.7,34,81.6z M32,83.5c-0.7,0-1.3-0.1-2-0.1c0.7,0,1.3-0.1,2-0.1c0.7,0,1.3-0.1,2-0.1
			c1.3-0.1,2.7-0.1,4-0.1c2.7-0.1,5.4-0.1,8.1-0.1c2.7,0,5.4,0,8.1,0.1c1.3,0,2.7,0.1,4,0.1c0.7,0,1.3,0.1,2,0.1
			c0.7,0,1.3,0.1,2,0.1c-0.7,0-1.3,0.1-2,0.1c-0.7,0-1.3,0.1-2,0.1c-1.3,0.1-2.7,0.1-4,0.1c-2.7,0.1-5.4,0.1-8.1,0.1
			c-2.7,0-5.4,0-8.1-0.1c-1.3,0-2.7-0.1-4-0.1C33.3,83.6,32.7,83.5,32,83.5z M37.2,86.5c-0.5,0-1.1-0.1-1.6-0.1
			c0.5,0,1.1-0.1,1.6-0.1c0.5,0,1.1-0.1,1.6-0.1c1.1-0.1,2.2-0.1,3.2-0.1c2.2-0.1,4.3-0.1,6.5-0.1c2.2,0,4.3,0,6.5,0.1
			c1.1,0,2.2,0.1,3.2,0.1c0.5,0,1.1,0.1,1.6,0.1c0.5,0,1.1,0.1,1.6,0.1c-0.5,0-1.1,0.1-1.6,0.1c-0.5,0-1.1,0.1-1.6,0.1
			c-1.1,0.1-2.2,0.1-3.2,0.1c-2.2,0.1-4.3,0.1-6.5,0.1c-2.2,0-4.3,0-6.5-0.1c-1.1,0-2.2-0.1-3.2-0.1C38.2,86.6,37.7,86.6,37.2,86.5z
			 M52.9,90.4c-0.1,0-0.2,0-0.3,0c-0.2,0-0.5,0-0.7,0.1c-0.5,0-0.9,0-1.4,0c-0.5,0-0.9,0-1.4-0.1c-0.2,0-0.5,0-0.7-0.1
			c-0.1,0-0.2,0-0.3,0c-0.1,0-0.2,0-0.3-0.1c0.1,0,0.2,0,0.3-0.1c0.1,0,0.2,0,0.3,0c0.2,0,0.5,0,0.7-0.1c0.5,0,0.9,0,1.4-0.1
			c0.5,0,0.9,0,1.4,0c0.2,0,0.5,0,0.7,0.1c0.1,0,0.2,0,0.3,0c0.1,0,0.2,0,0.3,0.1C53.2,90.4,53.1,90.4,52.9,90.4z M49.1,88.7
			c-1.5,0-3.1,0-4.6-0.1c-0.8,0-1.5,0-2.3-0.1c-0.4,0-0.8,0-1.1-0.1c-0.4,0-0.8,0-1.1-0.1c0.4,0,0.8-0.1,1.1-0.1
			c0.4,0,0.8,0,1.1-0.1c0.8,0,1.5-0.1,2.3-0.1c1.5,0,3.1-0.1,4.6-0.1c1.5,0,3.1,0,4.6,0.1c0.8,0,1.5,0,2.3,0.1c0.4,0,0.8,0,1.2,0.1
			c0.4,0,0.8,0,1.1,0.1c-0.4,0-0.8,0.1-1.1,0.1c-0.4,0-0.8,0-1.2,0.1c-0.8,0-1.5,0.1-2.3,0.1C52.2,88.7,50.7,88.7,49.1,88.7z
			 M55.1,90.4c-0.2,0-0.5-0.1-0.7-0.1c0.2,0,0.5-0.1,0.7-0.1c0.2,0,0.5-0.1,0.7-0.1c0.5,0,0.9-0.1,1.4-0.1C58,90,58.9,90,59.9,90
			c0.9,0,1.8,0,2.7,0.1c0.5,0,0.9,0.1,1.4,0.1c0.2,0,0.5,0,0.7,0.1c0.2,0,0.5,0.1,0.7,0.1c-0.2,0-0.5,0.1-0.7,0.1
			c-0.2,0-0.5,0.1-0.7,0.1c-0.5,0-0.9,0.1-1.4,0.1c-0.9,0.1-1.8,0.1-2.7,0.1c-0.9,0-1.8,0-2.7-0.1c-0.5,0-0.9-0.1-1.4-0.1
			C55.5,90.5,55.3,90.5,55.1,90.4z M69.8,92.7c-0.3,0-0.6,0-0.8,0.1c-0.6,0-1.1,0.1-1.7,0.1c-1.1,0-2.3,0.1-3.4,0.1
			c-1.1,0-2.3,0-3.4-0.1c-0.6,0-1.1-0.1-1.7-0.1c-0.3,0-0.6,0-0.8-0.1c-0.3,0-0.6-0.1-0.8-0.1c0.3,0,0.6-0.1,0.8-0.1
			c0.3,0,0.6,0,0.8-0.1c0.6,0,1.1-0.1,1.7-0.1c1.1,0,2.3-0.1,3.4-0.1c1.1,0,2.3,0,3.4,0.1c0.6,0,1.1,0.1,1.7,0.1
			c0.3,0,0.6,0,0.8,0.1c0.3,0,0.6,0.1,0.8,0.1C70.3,92.7,70.1,92.7,69.8,92.7z"/>
		<g>
			<defs>
				<path id="SVGID_1_" d="M4.4,38.9c0.3,8.1,2.1,15.8,5.3,22.7l2.8,0.3c0.5-0.1,1-0.2,1.6-0.2c0.4-0.5,1-1,1.6-1.3
					c-0.1-2.9,3.9-3.7,5.9-3c1.5,0.6,3,2.2,3.4,3.7c0.1,0,1.1-0.7,3.2-0.8c0.9-0.1,1.8,0.2,2.7,0.5c1.4-1,3.1-1.8,4.7-0.9
					c0.4-0.5,1-1.2,1.5-1.6c-2.5-0.8-3.3-2.4-3.1-3.6c0.2-1.4,1.7-2.3,1.7-2.3c-0.4-0.8-0.6-1.7-0.3-2.5c0.5-1.2,2-2,3-1.9
					c0.9,0,1.1,0.2,1.1,0.2c0.7-1.5,3.9-3.4,5.8-3.8c4.2-0.9,8.7,0,11.2,3.3c1-0.2,2.3,0.2,3.1,0.9c1.7-0.2,3.4,0.3,4.6,1.3
					c0.8,0.7,1.2,1.6,1.1,2.6c0.4,0.1,1.2,0.3,1.2,0.9l0.1,0.1c0.8-1.3,2.4-1.1,3.7-0.9c1.5,0.3,2.6,1.6,2.9,3
					c0.1,1.1-0.3,2.2-1.1,2.9c1.5,0.8,3.3,2,3.2,4c0.5,0.4,0.8,0.2,1.3,0c2.8-1.2,5,0.9,5.2,1.3c0.7-0.6,1.8-1.6,2.7-1.8
					c-1.1-5.4,5-7.7,8.5-7.1c2,0.3,4.7,3.8,4.8,3.8c0.1-2.4,2.2-5.1,6.2-5.1c5.8,0,6.2,5.7,6.6,6.4c5.1,1.1,2.8,6.2,2.8,6.2
					c0.2-0.1,0.5-0.1,0.7-0.1c4.6-8,7.3-17.2,7.7-26.9"/>
			</defs>
			<clipPath id="SVGID_2_">
				<use xlink:href="#SVGID_1_"  style="overflow:visible;"/>
			</clipPath>
		</g>
		<path class="st2" d="M24.3,81.3c14.3-1.1,34.4-1.7,55.4,0.7c0.9,0.1,3.1,0.5,1.6,1.3C78,85,63.9,85.4,63.9,88c0,2.4,17.9,3,20.8,3
			c0.2,0,0.5,0,0.7,0c7.9-3.3,15-8.2,20.7-14.5c-1-0.8-2.1-1.5-3.1-2.1c-0.7-0.4-1.4-1.2-2.6-0.7c-0.7,0.3-2.2,1-2.2,1
			s-2.9-1.7-4.5-2.4c-1.7-0.7-3.1-2.9-4.8-4.1c-1.7-1.2-3.3-2.4-5.3-2.6c-1.9-0.2-3.6-3.1-5.3-2.9c-1.7,0.2-4.3,2.6-4.3,2.6
			s-1.9-1.4-2.6-2.2c-0.7-0.7-7.4-6.9-8.8-7.9c-1.4-1-1.7-0.7-3.1,0.5c-1.4,1.2-2.2,1.7-3.6,2.6c-1.4,1-4.8,3.3-4.8,3.3
			s-3.3-0.5-4.8-0.5c-1.4,0-2.4,1-4.1,1.9c-1.7,1-4.3,1.7-6.7,3.3c-2.4,1.7-8.6,6.2-8.6,6.2s-1.1-0.3-2-0.8
			c-0.9-0.4-1.4-0.8-2.1-0.8c-1.2,0-2.2,1.5-5,3.6C19.9,77.1,22,79.3,24.3,81.3z M80.6,65.5c1.4,0.9,2,0.9,3.4,1.4
			c1.4,0.5,2.2,0.5,2.8,1.4c0.6,0.9,2.6,2.3,2.8,3.1c0.2,0.8-2.2-0.3-5.6-1.7c-3.4-1.4-6.5-5.1-6.5-5.1
			C77.5,63.8,79.2,64.6,80.6,65.5z M57.3,71.4c0.5-0.8,1.9-3.1,2-4.3c0.2-1.2-0.9-2.6-1.4-3.9c-0.5-1.2,2-3.2,2.8-3.9
			c0.8-0.6,0.3-0.8,0.3-1.5c0-0.8,0.5-1.9,0.5-1.9c1.4,0.2,3.2,2.6,5.4,4.6c2.2,2,17.6,14.2,17.6,14.2s-3.2-1.5-4.6-2.2
			c-1.4-0.6-5.2-2-5.9-2.3c-0.6-0.3-0.8-0.5-1.7-1.4c-0.9-0.9-4.6-2.5-5.1-2.5c-0.5,0-1.2,0-2.2,0.8c-0.9,0.8-1.5,1.7-2,2
			c-0.5,0.3-1.7,0.3-3.2,1.2c-1.5,0.9-2.9,1.7-2.9,1.7S56.8,72.2,57.3,71.4z M38.9,68.9c0.8-0.9,0.8-0.9,1.4-1.7
			c0.6-0.8,0.5-0.6,1.9-0.9c1.4-0.3,1.4,0.3,1.9-0.5c0.5-0.8,0.3-1.9,0.9-2.6c0.6-0.8,0-1.2,1.5-1.2c2.2,0,4.1,0.4,4.1,0.4
			s-4.3,4.2-5.4,4.9c-1.1,0.8-3.4,2.2-4.3,2.5c-0.9,0.3-2.3,0.9-2.3,0.9S38.2,69.8,38.9,68.9z"/>
		<path class="st2" d="M12.5,61.9c0.5-0.1,1-0.2,1.6-0.2c0.4-0.5,1-1,1.6-1.3c-0.1-2.9,3.9-3.7,5.9-3c1.5,0.6,3,2.2,3.4,3.7
			c0.1,0,1.1-0.7,3.2-0.8c0.9-0.1,1.8,0.2,2.7,0.5c1.4-1,3.1-1.8,4.7-0.9c0.4-0.5,1-1.2,1.5-1.6c-2.5-0.8-3.3-2.4-3.1-3.6
			c0.2-1.4,1.7-2.3,1.7-2.3c-0.4-0.8-0.6-1.7-0.3-2.5c0.5-1.2,2-2,3-1.9c0.9,0,1.1,0.2,1.1,0.2c0.7-1.5,3.9-3.4,5.8-3.8
			c4.2-0.9,8.7,0,11.2,3.3c1-0.2,2.3,0.2,3.1,0.9c1.7-0.2,3.4,0.3,4.6,1.3c0.8,0.7,1.2,1.6,1.1,2.6c0.4,0.1,1.2,0.3,1.2,0.9l0.1,0.1
			c0.8-1.3,2.4-1.1,3.7-0.9c1.5,0.3,2.6,1.6,2.9,3c0.1,1.1-0.3,2.2-1.1,2.9c1.5,0.8,3.3,2,3.2,4c0.5,0.4,0.8,0.2,1.3,0
			c2.8-1.2,5,0.9,5.2,1.3c0.7-0.6,1.8-1.6,2.7-1.8c-1.1-5.4,5-7.7,8.5-7.1c2,0.3,4.7,3.8,4.8,3.8c0.1-2.4,2.2-5.1,6.2-5.1
			c5.8,0,6.2,5.7,6.6,6.4c5.1,1.1,2.8,6.2,2.8,6.2c0.2-0.1,0.5-0.1,0.7-0.1c4.6-8,7.3-17.2,7.7-26.9H4.4c0.3,8.1,2.1,15.8,5.3,22.7
			L12.5,61.9z"/>
		<g>
			<path class="st1" d="M67.5,52.5c-0.1,0-0.1,0.1-0.2,0.1C67.4,52.6,67.5,52.6,67.5,52.5z"/>
			<path class="st1" d="M67.1,52.8c0.1,0,0.1-0.1,0.2-0.1C67.2,52.7,67.2,52.7,67.1,52.8L67.1,52.8z"/>
			<path class="st1" d="M67.5,52.5c0.1,0,0.2-0.1,0.2-0.1C67.7,52.5,67.6,52.5,67.5,52.5C67.5,52.5,67.5,52.5,67.5,52.5z"/>
			<path class="st1" d="M67.8,52.4c0.1,0,0.2,0,0.2-0.1l0,0C67.9,52.4,67.9,52.4,67.8,52.4C67.8,52.4,67.8,52.4,67.8,52.4z"/>
			<path class="st1" d="M65.7,52.5L65.7,52.5c0.2,0.1,0.4,0.2,0.6,0.4C66.1,52.7,65.9,52.5,65.7,52.5z"/>
			<path class="st1" d="M41.6,45.8c-0.1,0.1-0.2,0.1-0.3,0.2C41.4,46,41.5,45.9,41.6,45.8z"/>
			<path class="st1" d="M41.1,46.2c-0.1,0.1-0.1,0.1-0.2,0.2C40.9,46.3,41,46.2,41.1,46.2z"/>
			<path class="st1" d="M42.1,45.5L42.1,45.5c-0.1,0.1-0.3,0.2-0.4,0.3C41.8,45.7,42,45.6,42.1,45.5z"/>
			<path class="st1" d="M40.7,46.5c-0.1,0.1-0.1,0.1-0.2,0.2C40.5,46.6,40.6,46.6,40.7,46.5z"/>
			<path class="st1" d="M69,52.3c0.3,0,0.6,0,0.9,0.1c0,0,0,0,0,0C69.6,52.3,69.3,52.3,69,52.3C69,52.3,69,52.3,69,52.3z"/>
			<path class="st1" d="M46.8,44c0,0-0.1,0-0.1,0C46.7,44,46.8,44,46.8,44z"/>
			<path class="st1" d="M44.7,44.3c0.2,0,0.3-0.1,0.5-0.1C45,44.2,44.9,44.3,44.7,44.3L44.7,44.3z"/>
			<path class="st1" d="M46,44.1c-0.3,0-0.5,0.1-0.8,0.1C45.4,44.2,45.7,44.1,46,44.1z"/>
			<path class="st1" d="M52.9,44.8c-0.1,0-0.1,0-0.2-0.1C52.7,44.7,52.8,44.8,52.9,44.8z"/>
			<path class="st1" d="M52.1,44.5C52.1,44.5,52.1,44.5,52.1,44.5C52.1,44.5,52.1,44.5,52.1,44.5z"/>
			<path class="st1" d="M51.4,44.3C51.4,44.3,51.4,44.3,51.4,44.3C51.4,44.3,51.4,44.3,51.4,44.3z"/>
			<path class="st1" d="M63.3,49.1L63.3,49.1c-0.2-0.1-0.3-0.2-0.5-0.2C63,48.9,63.1,49,63.3,49.1z"/>
			<path class="st1" d="M62.2,48.7c0.2,0.1,0.4,0.1,0.5,0.2C62.6,48.8,62.4,48.7,62.2,48.7L62.2,48.7z"/>
			<path class="st1" d="M57.8,47.5C57.8,47.6,57.8,47.6,57.8,47.5c-0.1,0-0.2,0-0.3-0.1C57.5,47.5,57.6,47.5,57.8,47.5z"/>
			<path class="st1" d="M57.4,47.5c-0.1,0-0.2,0-0.3,0C57.2,47.5,57.3,47.5,57.4,47.5z"/>
			<path class="st1" d="M58.1,47.6L58.1,47.6c-0.1,0-0.2-0.1-0.3-0.1C57.9,47.6,58,47.6,58.1,47.6z"/>
			<path class="st1" d="M56.7,47.5L56.7,47.5c0.1,0,0.2,0,0.3,0c0,0,0,0,0.1,0C56.9,47.4,56.8,47.4,56.7,47.5z"/>
			<path class="st1" d="M59.9,48.3L59.9,48.3c0.2,0,0.4,0,0.5,0C60.2,48.3,60,48.3,59.9,48.3z"/>
			<path class="st1" d="M60.4,48.3c0.2,0,0.4,0,0.5,0l0,0C60.8,48.3,60.6,48.3,60.4,48.3C60.4,48.3,60.4,48.3,60.4,48.3z"/>
			<path class="st1" d="M64.4,49.9c0.1,0.1,0.2,0.2,0.2,0.3c0,0,0,0,0,0C64.5,50.1,64.4,50,64.4,49.9z"/>
			<path class="st1" d="M64.8,50.5C64.8,50.5,64.8,50.5,64.8,50.5c0.1,0.1,0.1,0.2,0.2,0.3c-0.1-0.2-0.2-0.4-0.4-0.6
				C64.7,50.3,64.7,50.4,64.8,50.5z"/>
			<path class="st1" d="M65.1,51.1c0-0.1-0.1-0.2-0.1-0.3C65,50.9,65.1,51,65.1,51.1z"/>
			<path class="st1" d="M76.3,62.4C76.3,62.4,76.3,62.4,76.3,62.4C76.3,62.4,76.3,62.4,76.3,62.4C76.3,62.4,76.3,62.4,76.3,62.4z"/>
			<path class="st1" d="M75.2,61.4c0,0.1,0.1,0.3,0.1,0.4C75.3,61.7,75.2,61.6,75.2,61.4L75.2,61.4z"/>
			<path class="st1" d="M75.3,61.9c0,0.1,0,0.3,0,0.4l0,0C75.3,62.1,75.3,62,75.3,61.9C75.3,61.8,75.3,61.9,75.3,61.9z"/>
			<path class="st1" d="M77,62.1c0.1,0,0.1,0,0.2,0c0,0,0.1,0,0.1,0c-0.2,0.1-0.5,0.1-0.7,0.2C76.7,62.2,76.9,62.2,77,62.1z"/>
			<path class="st1" d="M77.9,61.9L77.9,61.9c-0.2,0-0.3,0-0.5,0.1C77.6,62,77.8,62,77.9,61.9z"/>
			<path class="st1" d="M85.6,57.1L85.6,57.1c0.3-0.3,0.5-0.6,0.8-0.8c0,0,0,0,0,0C86.1,56.6,85.8,56.9,85.6,57.1z"/>
			<path class="st1" d="M72.2,58.4c0.3,0.2,0.6,0.3,0.9,0.5C72.8,58.7,72.5,58.6,72.2,58.4L72.2,58.4z"/>
			<path class="st1" d="M84.9,58.1c0.2-0.3,0.4-0.6,0.7-0.9C85.3,57.4,85.1,57.7,84.9,58.1L84.9,58.1z"/>
			<path class="st1" d="M108.1,54.7C108.1,54.7,108.1,54.7,108.1,54.7c0.3,0.2,0.5,0.5,0.7,0.8C108.6,55.2,108.3,54.9,108.1,54.7z"
				/>
			<path class="st1" d="M108.1,54.7c-0.3-0.2-0.6-0.5-0.9-0.7C107.5,54.2,107.8,54.4,108.1,54.7z"/>
			<path class="st1" d="M106,53.5c0.4,0.1,0.8,0.3,1.2,0.5C106.8,53.8,106.4,53.7,106,53.5L106,53.5z"/>
			<path class="st1" d="M108.8,55.5c0.2,0.3,0.4,0.6,0.5,0.8l0,0C109.2,56,109,55.8,108.8,55.5C108.8,55.5,108.8,55.5,108.8,55.5z"
				/>
			<path class="st1" d="M82.6,62.8C82.6,62.8,82.6,62.8,82.6,62.8c-0.1,0.1-0.3,0.2-0.4,0.4C82.3,63,82.5,62.9,82.6,62.8z"/>
			<path class="st1" d="M82.1,63.2C82.1,63.2,82.2,63.2,82.1,63.2c-0.1,0.1-0.2,0.2-0.4,0.3C81.9,63.5,82,63.3,82.1,63.2z"/>
			<path class="st1" d="M81.1,62.9c0,0-0.1-0.1-0.2-0.1C81,62.8,81.1,62.9,81.1,62.9z"/>
			<path class="st1" d="M81.4,63.1C81.4,63.2,81.5,63.2,81.4,63.1C81.5,63.2,81.4,63.2,81.4,63.1z"/>
			<path class="st1" d="M80.2,62.4c0.3,0.1,0.5,0.3,0.7,0.4C80.7,62.6,80.5,62.5,80.2,62.4L80.2,62.4z"/>
			<path class="st1" d="M81.7,63.5C81.7,63.5,81.7,63.5,81.7,63.5C81.7,63.5,81.7,63.5,81.7,63.5z"/>
			<path class="st1" d="M81.6,63.4C81.6,63.3,81.6,63.3,81.6,63.4C81.6,63.3,81.6,63.3,81.6,63.4z"/>
			<path class="st1" d="M81.3,63.1c0,0-0.1-0.1-0.1-0.1C81.2,63,81.3,63,81.3,63.1z"/>
			<path class="st1" d="M98.2,56.4c0.4-0.7,0.9-1.4,1.7-2l0,0C99.2,54.9,98.6,55.6,98.2,56.4z"/>
			<path class="st1" d="M96.1,56.7c0.2,0.2,0.3,0.3,0.5,0.5l0,0C96.4,57.1,96.3,56.9,96.1,56.7z"/>
			<path class="st1" d="M96.1,56.7c-0.5-0.5-1.2-1.1-1.8-1.5C94.9,55.6,95.5,56.2,96.1,56.7z"/>
			<path class="st1" d="M97.9,57.1c0-0.1,0.1-0.2,0.1-0.4C98,56.9,98,57,97.9,57.1L97.9,57.1z"/>
			<path class="st1" d="M98.2,56.4C98.2,56.4,98.2,56.4,98.2,56.4c0,0.1-0.1,0.2-0.2,0.3C98.1,56.6,98.2,56.5,98.2,56.4z"/>
			<path class="st1" d="M72.3,53.6c0.2,0.2,0.3,0.4,0.4,0.6v0C72.6,54,72.5,53.8,72.3,53.6C72.3,53.6,72.3,53.6,72.3,53.6z"/>
			<path class="st1" d="M73.1,55.5c0,0.1,0,0.3,0,0.4l0,0C73.1,55.8,73.1,55.6,73.1,55.5z"/>
			<path class="st1" d="M71.6,53L71.6,53c-0.2-0.2-0.5-0.3-0.7-0.4C71.2,52.7,71.4,52.8,71.6,53z"/>
			<path class="st1" d="M74.7,60.5L74.7,60.5c-0.1-0.1-0.2-0.3-0.3-0.4C74.5,60.2,74.7,60.3,74.7,60.5z"/>
			<path class="st1" d="M84.3,60.5C84.3,60.5,84.3,60.5,84.3,60.5c0-0.2,0-0.5,0-0.7l0,0C84.3,60.1,84.3,60.3,84.3,60.5z"/>
			<path class="st1" d="M74.1,59.7L74.1,59.7c0.1,0.1,0.2,0.2,0.4,0.4c0,0,0,0,0,0C74.3,59.9,74.2,59.8,74.1,59.7z"/>
			<path class="st1" d="M84.3,61.3c0-0.2,0-0.5-0.1-0.7C84.3,60.9,84.3,61.1,84.3,61.3L84.3,61.3z"/>
			<path class="st1" d="M72.8,57.2L72.8,57.2c0.1-0.1,0.1-0.3,0.1-0.4C72.9,57,72.9,57.1,72.8,57.2z"/>
			<path class="st1" d="M72.7,57.6c0.1-0.1,0.1-0.2,0.2-0.4C72.8,57.4,72.7,57.5,72.7,57.6z"/>
			<path class="st1" d="M112.2,60.4L112.2,60.4c0.7,0.5,1.1,1.1,1.4,1.7C113.4,61.4,113,60.8,112.2,60.4z"/>
			<path class="st1" d="M113.8,62.8c0-0.1,0-0.1,0-0.2C113.8,62.6,113.8,62.7,113.8,62.8z"/>
			<path class="st1" d="M113.8,63c0,0.3,0,0.6,0,0.9c0,0,0,0,0,0C113.8,63.7,113.8,63.4,113.8,63z"/>
			<path class="st1" d="M113.8,63c0-0.1,0-0.1,0-0.2C113.8,62.9,113.8,63,113.8,63z"/>
			<path class="st1" d="M113.7,62.3c0-0.1,0-0.2-0.1-0.2C113.6,62.2,113.7,62.2,113.7,62.3z"/>
			<path class="st1" d="M113.7,62.5C113.7,62.6,113.7,62.6,113.7,62.5c0-0.1,0-0.1-0.1-0.2C113.7,62.4,113.7,62.5,113.7,62.5z"/>
			<path class="st1" d="M36.6,48.4C36.6,48.4,36.6,48.4,36.6,48.4C36.6,48.4,36.6,48.4,36.6,48.4z"/>
			<path class="st1" d="M35.6,49.4C35.6,49.4,35.6,49.4,35.6,49.4C35.6,49.4,35.6,49.4,35.6,49.4z"/>
			<path class="st1" d="M35.3,49.8C35.3,49.8,35.3,49.8,35.3,49.8C35.3,49.8,35.3,49.8,35.3,49.8L35.3,49.8z"/>
			<polygon class="st1" points="35.6,59.7 35.6,59.7 35.6,59.7 			"/>
			<path class="st1" d="M33,59.5c0.8-0.2,1.6-0.2,2.3,0.2C34.5,59.3,33.8,59.3,33,59.5z"/>
			<path class="st1" d="M36.3,59c-0.1,0.1-0.2,0.2-0.3,0.3C36.1,59.2,36.2,59.1,36.3,59z"/>
			<path class="st1" d="M33,59.5c-0.1,0-0.2,0.1-0.3,0.1C32.8,59.6,32.9,59.6,33,59.5z"/>
			<path class="st1" d="M23.3,58.5C23.4,58.5,23.4,58.6,23.3,58.5c0.2,0.2,0.4,0.4,0.5,0.6C23.7,58.9,23.5,58.7,23.3,58.5z"/>
			<path class="st1" d="M36.1,57.8C36.1,57.8,36,57.8,36.1,57.8c-0.2-0.1-0.3-0.1-0.3-0.2c0.2,0.1,0.3,0.2,0.5,0.3
				C36.2,57.9,36.2,57.8,36.1,57.8z"/>
			<path class="st1" d="M16.5,58.3c0,0,0.1-0.1,0.2-0.1C16.6,58.2,16.5,58.2,16.5,58.3z"/>
			<path class="st1" d="M19.6,57.1c0.1,0,0.1,0,0.2,0C19.8,57.1,19.7,57.1,19.6,57.1z"/>
			<path class="st1" d="M15.8,59.3c0,0,0-0.1,0.1-0.1C15.8,59.3,15.8,59.3,15.8,59.3L15.8,59.3z"/>
			<path class="st1" d="M36.7,58c-0.1,0-0.1,0-0.2-0.1c0.2,0.1,0.4,0.2,0.6,0.2C36.9,58.2,36.8,58.1,36.7,58z"/>
			<path class="st1" d="M36.3,58.9c0-0.1,0.1-0.1,0.2-0.2c0,0,0,0,0,0C36.4,58.8,36.3,58.9,36.3,58.9C36.3,59,36.3,59,36.3,58.9z"/>
			<path class="st1" d="M23.9,59.2c0.1,0.1,0.2,0.2,0.3,0.3l0,0C24.1,59.4,24,59.3,23.9,59.2C23.9,59.2,23.9,59.2,23.9,59.2z"/>
			<path class="st1" d="M20.3,57.1c0.1,0,0.1,0,0.2,0c-0.1,0-0.3,0-0.4,0C20.2,57.1,20.2,57.1,20.3,57.1z"/>
			<path class="st1" d="M21.1,57.2c0,0-0.1,0-0.1,0C21,57.2,21.1,57.2,21.1,57.2z"/>
			<path class="st1" d="M20.7,57.1c0.1,0,0.2,0,0.2,0c-0.1,0-0.3,0-0.4-0.1C20.6,57.1,20.7,57.1,20.7,57.1z"/>
			<path class="st1" d="M23,58.3c0.1,0.1,0.2,0.1,0.2,0.2c-0.2-0.1-0.3-0.3-0.5-0.4C22.9,58.1,23,58.2,23,58.3z"/>
			<path class="st1" d="M22,57.6c0,0,0.1,0.1,0.1,0.1c-0.2-0.1-0.4-0.2-0.6-0.3C21.7,57.4,21.8,57.5,22,57.6z"/>
			<path class="st1" d="M22.6,57.9c0.1,0,0.1,0.1,0.2,0.1c-0.2-0.1-0.4-0.3-0.5-0.4C22.3,57.7,22.4,57.8,22.6,57.9z"/>
			<path class="st1" d="M36.5,58.7C36.5,58.7,36.6,58.6,36.5,58.7c0.1-0.1,0.1-0.1,0.1-0.2c0,0,0.1-0.1,0.1-0.1c0,0,0,0,0.1-0.1
				c0.1-0.1,0.1-0.1,0.2-0.2C36.9,58.3,36.7,58.5,36.5,58.7z"/>
			<path class="st1" d="M17.4,57.6c-0.1,0-0.1,0.1-0.2,0.1C17.3,57.7,17.3,57.7,17.4,57.6z"/>
			<path class="st1" d="M16.1,58.8c0,0.1-0.1,0.1-0.1,0.2C16,58.9,16,58.8,16.1,58.8z"/>
			<path class="st1" d="M16.3,58.4c0-0.1,0.1-0.1,0.2-0.2c-0.1,0.1-0.2,0.2-0.3,0.3C16.2,58.5,16.3,58.5,16.3,58.4z"/>
			<path class="st1" d="M16.8,58c0.1,0,0.1-0.1,0.2-0.1c0,0,0.1,0,0.1-0.1C17,57.9,16.9,57.9,16.8,58C16.8,58,16.8,58,16.8,58z"/>
			<path class="st1" d="M19.4,57.1c-0.1,0-0.1,0-0.2,0C19.2,57.1,19.3,57.1,19.4,57.1z"/>
			<path class="st1" d="M18.9,57.2c0.1,0,0.1,0,0.2,0c-0.1,0-0.3,0-0.4,0.1C18.8,57.2,18.8,57.2,18.9,57.2z"/>
			<path class="st1" d="M17.6,57.5c0.1,0,0.1-0.1,0.2-0.1c0.1,0,0.3-0.1,0.4-0.1c0,0,0.1,0,0.1,0c0,0,0.1,0,0.1,0
				C18.2,57.3,17.8,57.4,17.6,57.5C17.6,57.5,17.6,57.5,17.6,57.5z"/>
			<path class="st1" d="M34.1,54.3C34.1,54.3,34.1,54.3,34.1,54.3c0.1-0.2,0.1-0.2,0.1-0.3c0,0,0,0,0-0.1c-0.1,0.2-0.2,0.4-0.2,0.6
				C34,54.5,34,54.4,34.1,54.3z"/>
			<path class="st1" d="M34,54.7C34,54.7,34,54.6,34,54.7C34,54.6,34,54.7,34,54.7L34,54.7z"/>
			<path class="st1" d="M34.3,53.8c0,0.1-0.1,0.1-0.1,0.2C34.2,53.9,34.3,53.8,34.3,53.8z"/>
			<path class="st1" d="M34.3,53.7C34.3,53.7,34.3,53.7,34.3,53.7c0.1-0.1,0.1-0.2,0.2-0.2c0,0,0,0,0-0.1c0-0.1,0.1-0.1,0.1-0.2
				c0,0,0,0,0-0.1c0-0.1,0.1-0.1,0.1-0.2c0,0,0,0,0,0c0.1-0.1,0.2-0.2,0.3-0.3C35,52.9,34.6,53.3,34.3,53.7z"/>
			<path class="st1" d="M52.1,44.5c-0.2-0.1-0.4-0.1-0.6-0.2C51.6,44.3,51.8,44.4,52.1,44.5z"/>
			<path class="st1" d="M84.3,60.6C84.3,60.6,84.3,60.6,84.3,60.6C84.3,60.6,84.3,60.6,84.3,60.6L84.3,60.6z"/>
			<path class="st1" d="M81.7,63.5C81.7,63.4,81.6,63.4,81.7,63.5C81.6,63.4,81.7,63.4,81.7,63.5z"/>
			<path class="st1" d="M75.3,62.3C75.3,62.3,75.3,62.3,75.3,62.3c0.4,0.4,0.7,0.3,1,0.1c-0.1,0-0.2,0.1-0.2,0.1L75.3,62.3z"/>
			<path class="st1" d="M81,62.8C81,62.8,81,62.8,81,62.8C81,62.8,81,62.8,81,62.8z"/>
			<path class="st1" d="M81.4,63.1C81.4,63.1,81.4,63.1,81.4,63.1C81.4,63.1,81.4,63.1,81.4,63.1z"/>
			<path class="st1" d="M81.2,63C81.2,63,81.2,62.9,81.2,63C81.2,62.9,81.2,63,81.2,63z"/>
			<path class="st1" d="M74.7,60.5L74.7,60.5c0.2,0.3,0.4,0.6,0.5,1l2.7,0.5c0.9-0.1,1.7,0.1,2.3,0.4l2.4,0.4c0,0,0,0,0,0
				c0.6-0.5,1.2-0.9,1.8-1c0-0.1-0.1-0.3-0.1-0.4c0,0,0,0,0,0L74.7,60.5z"/>
			<path class="st1" d="M81.5,63.2C81.5,63.2,81.5,63.3,81.5,63.2C81.5,63.3,81.5,63.2,81.5,63.2z"/>
			<path class="st1" d="M52.7,44.7c-0.2-0.1-0.4-0.1-0.5-0.2C52.3,44.6,52.5,44.6,52.7,44.7z"/>
			<path class="st1" d="M65,50.8C65,50.8,65,50.8,65,50.8C65,50.8,65,50.8,65,50.8z"/>
			<path class="st1" d="M41.7,45.8c0,0-0.1,0.1-0.1,0.1C41.6,45.8,41.7,45.8,41.7,45.8z"/>
			<path class="st1" d="M41.3,46c-0.1,0-0.1,0.1-0.2,0.1C41.2,46.1,41.2,46.1,41.3,46z"/>
			<path class="st1" d="M46.7,44c-0.2,0-0.5,0.1-0.7,0.1C46.2,44,46.4,44,46.7,44z"/>
			<polygon class="st1" points="75.3,61.8 75.3,61.8 75.3,61.8 			"/>
			<path class="st1" d="M40.9,46.3c-0.1,0-0.1,0.1-0.2,0.1C40.7,46.4,40.8,46.4,40.9,46.3z"/>
			<path class="st1" d="M81.7,63.5C81.7,63.5,81.8,63.5,81.7,63.5C81.8,63.5,81.7,63.5,81.7,63.5L81.7,63.5z"/>
			<path class="st1" d="M76.6,62.3c-0.1,0-0.2,0.1-0.2,0.1C76.4,62.3,76.5,62.3,76.6,62.3z"/>
			<path class="st1" d="M82.2,63.2C82.2,63.2,82.2,63.2,82.2,63.2C82.2,63.2,82.2,63.2,82.2,63.2C82.2,63.2,82.2,63.2,82.2,63.2z"/>
			<polygon class="st1" points="74.4,60.1 74.4,60.1 74.4,60.1 			"/>
			<path class="st1" d="M33,59.5L33,59.5C33,59.5,33,59.5,33,59.5z"/>
			<path class="st1" d="M77.3,62C77.3,62,77.4,62,77.3,62C77.4,62,77.4,62,77.3,62C77.4,62,77.3,62,77.3,62z"/>
			<path class="st1" d="M35.3,59.7L35.3,59.7c0.1,0,0.1,0.1,0.2,0.1c0,0,0.1-0.1,0.1-0.1L35.3,59.7C35.3,59.7,35.3,59.7,35.3,59.7z"
				/>
			<path class="st1" d="M8.7,59.2c0.3,0.8,0.7,1.6,1,2.4l2.8,0.3c0.5-0.1,1-0.2,1.6-0.2c0.4-0.5,1-1,1.6-1.3c0-0.4,0-0.7,0.1-1l0,0
				L8.7,59.2z"/>
			<polygon class="st1" points="67.5,52.5 67.5,52.5 67.5,52.5 			"/>
			<polygon class="st1" points="67.8,52.4 67.8,52.4 67.8,52.4 			"/>
			<path class="st1" d="M57.4,47.5C57.4,47.5,57.4,47.5,57.4,47.5C57.4,47.5,57.4,47.5,57.4,47.5L57.4,47.5
				C57.4,47.5,57.4,47.5,57.4,47.5z"/>
			<path class="st1" d="M92,38.9h-4.9L71.6,53l0,0c0.3,0.2,0.5,0.4,0.7,0.6h0L92,38.9z"/>
			<path class="st1" d="M70.9,52.6l12.9-13.7h-3.5L69.9,52.4l0,0c0.1,0,0.2,0,0.3,0C70.5,52.5,70.7,52.5,70.9,52.6
				C70.9,52.6,70.9,52.6,70.9,52.6C70.9,52.6,70.9,52.6,70.9,52.6z"/>
			<path class="st1" d="M70.5,38.9l-4.2,13.9c0,0,0,0,0,0l0,0c0.1,0.1,0.2,0.3,0.2,0.4l0.1,0.1c0.2-0.2,0.3-0.4,0.5-0.6l5.8-13.8
				H70.5z"/>
			<path class="st1" d="M104.8,38.9h-7.9L72.7,54.3c0,0,0,0,0,0c0.2,0.4,0.3,0.8,0.4,1.2c0-0.1-0.1-0.2-0.1-0.3L104.8,38.9z"/>
			<path class="st1" d="M107.1,54C107.1,54,107.1,54,107.1,54C107.1,54,107.1,54,107.1,54z"/>
			<path class="st1" d="M57.8,47.6C57.8,47.6,57.8,47.6,57.8,47.6C57.8,47.6,57.8,47.6,57.8,47.6C57.8,47.6,57.8,47.6,57.8,47.6z"/>
			<path class="st1" d="M60.4,48.3C60.4,48.3,60.4,48.3,60.4,48.3C60.4,48.3,60.4,48.3,60.4,48.3C60.4,48.3,60.4,48.3,60.4,48.3z"/>
			<path class="st1" d="M58.3,38.9l2.6,9.4c0.4,0.1,0.9,0.2,1.3,0.3l-1.6-9.7H58.3z"/>
			<path class="st1" d="M56.4,38.9h-2.5l4.3,8.7c0,0,0,0,0,0c0.5,0.2,1,0.4,1.3,0.7c0.1,0,0.3,0,0.4,0h0L56.4,38.9z"/>
			<path class="st1" d="M73,56.8l48.6-15.3c0.1-0.8,0.1-1.7,0.2-2.5h-8.2l-40.4,17C73.1,56.2,73.1,56.5,73,56.8
				C73,56.8,73,56.8,73,56.8C73,56.8,73,56.8,73,56.8z"/>
			<path class="st1" d="M64.6,50.2C64.6,50.2,64.6,50.2,64.6,50.2C64.6,50.2,64.6,50.2,64.6,50.2C64.6,50.2,64.6,50.2,64.6,50.2z"/>
			<path class="st1" d="M62.8,48.9C62.8,48.9,62.8,48.9,62.8,48.9C62.8,48.9,62.8,48.9,62.8,48.9C62.8,48.9,62.8,48.9,62.8,48.9
				C62.8,48.9,62.8,48.9,62.8,48.9z"/>
			<path class="st1" d="M66.4,38.9l-1.3,12.2v0c0,0,0,0,0,0c0.1,0.4,0.2,0.8,0.2,1.2c0.1,0,0.3,0.1,0.5,0.1l2.9-13.5H66.4z"/>
			<path class="st1" d="M64.6,38.9h-2.2l0.9,10.2c0,0,0,0,0,0c0.3,0.2,0.6,0.4,0.8,0.6c0.1,0.1,0.2,0.2,0.2,0.2c0,0,0,0,0,0
				L64.6,38.9z"/>
			<ellipse transform="matrix(0.9333 -0.359 0.359 0.9333 -14.4047 27.6703)" class="st1" cx="67.3" cy="52.6" rx="0" ry="0"/>
			<path class="st1" d="M113.7,62.3L113.7,62.3C113.7,62.3,113.7,62.3,113.7,62.3C113.7,62.3,113.7,62.3,113.7,62.3
				C113.7,62.3,113.7,62.3,113.7,62.3z"/>
			<ellipse transform="matrix(0.9104 -0.4138 0.4138 0.9104 -15.5039 52.5737)" class="st1" cx="113.6" cy="62.1" rx="0" ry="0"/>
			<polygon class="st1" points="72.8,57.2 72.8,57.2 72.8,57.2 			"/>
			<path class="st1" d="M116.7,60.5c0.7-1.6,1.3-3.2,1.9-4.8l-9.2,0.7c0.8,1.5,1,3,1.2,3.4c0.7,0.2,1.3,0.4,1.7,0.7c0,0,0,0,0,0
				L116.7,60.5z"/>
			<path class="st1" d="M113.8,64c-0.1,1.1-0.5,2-0.5,2c0.2-0.1,0.5-0.1,0.7-0.1c0.3-0.6,0.7-1.2,1-1.8L113.8,64
				C113.8,64,113.8,64,113.8,64z"/>
			<polygon class="st1" points="108.8,55.5 108.8,55.5 108.8,55.5 			"/>
			<path class="st1" d="M113.8,62.8C113.8,62.8,113.8,62.8,113.8,62.8C113.8,62.8,113.8,62.8,113.8,62.8L113.8,62.8
				C113.8,62.8,113.8,62.8,113.8,62.8z"/>
			<path class="st1" d="M113.8,63L113.8,63C113.8,63,113.8,63,113.8,63C113.8,63,113.8,63,113.8,63C113.8,63,113.8,63,113.8,63z"/>
			<path class="st1" d="M113.7,62.6C113.7,62.6,113.7,62.6,113.7,62.6C113.7,62.6,113.7,62.6,113.7,62.6
				C113.7,62.6,113.7,62.6,113.7,62.6z"/>
			<polygon class="st1" points="85.6,57.1 85.6,57.1 85.6,57.1 			"/>
			<path class="st1" d="M96.1,56.7C96.1,56.7,96.1,56.7,96.1,56.7C96.1,56.7,96.1,56.7,96.1,56.7C96.1,56.7,96.1,56.7,96.1,56.7
				C96.1,56.7,96.1,56.7,96.1,56.7z"/>
			<path class="st1" d="M96.6,57.2L96.6,57.2c0.6,0.6,1,1.2,1.1,1.2c0-0.4,0.1-0.8,0.2-1.3c0,0,0,0,0,0L96.6,57.2z"/>
			<polygon class="st1" points="108.1,54.7 108.1,54.7 108.1,54.7 			"/>
			<path class="st1" d="M73.1,58.9c0.4,0.2,0.7,0.5,1,0.8l10.3,0.2c0.1-0.7,0.3-1.3,0.6-1.8L73.1,58.9L73.1,58.9z"/>
			<path class="st1" d="M98,56.8C98,56.8,98,56.8,98,56.8C98.1,56.8,98.1,56.8,98,56.8L98,56.8C98.1,56.8,98.1,56.8,98,56.8z"/>
			<path class="st1" d="M121,46.1L72.7,57.6c0,0,0,0,0,0v0c-0.2,0.3-0.4,0.5-0.6,0.7c0,0,0.1,0.1,0.1,0.1l14.2-2.1l0,0
				c1.9-1.5,4.6-2,6.5-1.7c0.4,0.1,0.9,0.3,1.4,0.6c0,0,0,0,0,0c0,0,0,0,0,0l5.7-0.8c1-0.7,2.3-1.1,4-1.1c0.8,0,1.4,0.1,2,0.3
				l13.9-2C120.3,49.8,120.7,47.9,121,46.1z"/>
			<path class="st1" d="M98.2,56.4C98.2,56.4,98.2,56.4,98.2,56.4L98.2,56.4C98.2,56.4,98.2,56.4,98.2,56.4z"/>
			<path class="st1" d="M77.8,38.9H75l-7,13.4c0.3-0.1,0.7-0.1,1-0.1c0,0,0,0,0,0L77.8,38.9z"/>
			<path class="st1" d="M22.1,57.6C22.2,57.6,22.2,57.7,22.1,57.6C22.2,57.7,22.2,57.6,22.1,57.6L22.1,57.6z"/>
			<path class="st1" d="M20.5,57.1C20.5,57.1,20.5,57.1,20.5,57.1C20.6,57.1,20.6,57.1,20.5,57.1C20.5,57.1,20.5,57.1,20.5,57.1z"/>
			<path class="st1" d="M22.7,58C22.8,58,22.8,58.1,22.7,58C22.8,58.1,22.8,58,22.7,58L22.7,58z"/>
			<path class="st1" d="M57,47.5C57,47.5,57,47.5,57,47.5L57,47.5C57,47.5,57,47.5,57,47.5z"/>
			<path class="st1" d="M21.1,57.2c0.1,0,0.3,0.1,0.4,0.1C21.4,57.3,21.3,57.2,21.1,57.2L21.1,57.2z"/>
			<path class="st1" d="M23.3,58.5C23.3,58.5,23.3,58.5,23.3,58.5C23.3,58.5,23.3,58.5,23.3,58.5C23.3,58.5,23.3,58.5,23.3,58.5z"/>
			<path class="st1" d="M23.9,59.1C23.9,59.1,23.9,59.1,23.9,59.1C23.9,59.1,23.9,59.1,23.9,59.1C23.9,59.1,23.9,59.1,23.9,59.1z"/>
			<path class="st1" d="M36.3,59C36.3,59,36.3,59,36.3,59C36.3,59,36.3,59,36.3,59C36.3,59,36.3,59,36.3,59z"/>
			<path class="st1" d="M35.6,59.7c0.1-0.1,0.2-0.3,0.3-0.4C35.9,59.4,35.8,59.6,35.6,59.7L35.6,59.7z"/>
			<path class="st1" d="M32.7,59.7l-8.5-0.2c0.3,0.5,0.6,1,0.8,1.6c0.1,0,1.1-0.7,3.2-0.8c0.9-0.1,1.8,0.2,2.7,0.5
				C31.4,60.3,32,59.9,32.7,59.7C32.7,59.6,32.7,59.7,32.7,59.7L32.7,59.7z"/>
			<path class="st1" d="M21,57.2C21,57.2,21,57.2,21,57.2C21,57.2,21,57.2,21,57.2C21,57.2,21,57.2,21,57.2z"/>
			<polygon class="st1" points="16.5,58.3 16.5,58.3 16.5,58.3 			"/>
			<path class="st1" d="M16.6,58.1c0,0,0.1-0.1,0.1-0.1C16.7,58.1,16.7,58.1,16.6,58.1C16.6,58.1,16.6,58.1,16.6,58.1z"/>
			<path class="st1" d="M17.1,57.8c0,0,0.1,0,0.1-0.1l0,0C17.2,57.7,17.1,57.8,17.1,57.8z"/>
			<path class="st1" d="M16.1,58.8C16.1,58.8,16.1,58.8,16.1,58.8c0-0.1,0.1-0.1,0.1-0.2l0,0C16.1,58.6,16.1,58.7,16.1,58.8z"/>
			<path class="st1" d="M19.8,57.1L19.8,57.1c0.1,0,0.2,0,0.3,0c0,0,0,0,0,0C20,57.1,19.9,57.1,19.8,57.1z"/>
			<path class="st1" d="M15.8,59.2C15.8,59.2,15.8,59.2,15.8,59.2c0-0.1,0.1-0.2,0.1-0.3l0,0C15.9,59,15.9,59.1,15.8,59.2z"/>
			<path class="st1" d="M17.4,57.6c0,0,0.1,0,0.2-0.1C17.5,57.6,17.4,57.6,17.4,57.6L17.4,57.6z"/>
			<path class="st1" d="M19.1,57.1C19.1,57.1,19.1,57.1,19.1,57.1L19.1,57.1C19.1,57.1,19.1,57.1,19.1,57.1z"/>
			<path class="st1" d="M19.4,57.1C19.4,57.1,19.4,57.1,19.4,57.1c0.1,0,0.2,0,0.3,0l0,0C19.5,57.1,19.5,57.1,19.4,57.1z"/>
			<path class="st1" d="M18.5,57.2c0.1,0,0.1,0,0.2-0.1l0,0C18.6,57.2,18.6,57.2,18.5,57.2z"/>
			<path class="st1" d="M36.5,58.7C36.5,58.7,36.5,58.7,36.5,58.7C36.5,58.7,36.5,58.7,36.5,58.7L36.5,58.7z"/>
			<path class="st1" d="M36.3,48.6c-0.1,0-0.1,0.1-0.2,0.1C36,48.8,36,48.9,35.9,49c0,0-0.1,0.1-0.1,0.1c-0.1,0.1-0.1,0.2-0.2,0.3
				c0,0,0,0,0,0c0.3-0.4,0.6-0.7,1.1-1c-0.1,0-0.2,0.1-0.2,0.1C36.4,48.6,36.3,48.6,36.3,48.6z"/>
			<path class="st1" d="M36.5,58C36.5,58,36.5,58,36.5,58c-0.1,0-0.1-0.1-0.2-0.1l0,0C36.4,57.9,36.4,58,36.5,58z"/>
			<path class="st1" d="M35.3,49.8c0.1-0.1,0.1-0.3,0.2-0.4c0,0,0,0,0,0.1C35.5,49.6,35.4,49.7,35.3,49.8z"/>
			<path class="st1" d="M45.8,38.9h-3.9l5.3,5c-0.1,0-0.2,0-0.3,0c1.6-0.2,3.1-0.1,4.6,0.3c-0.4-0.1-0.8-0.2-1.2-0.2L45.8,38.9z"/>
			<path class="st1" d="M51.6,38.9h-3l4.4,5.9c0,0,0,0-0.1,0c1.4,0.6,2.6,1.5,3.5,2.7c0.1,0,0.2,0,0.3,0h0L51.6,38.9z"/>
			<path class="st1" d="M4.4,38.9c0.1,2,0.2,4,0.5,5.9l30.3,7.8c0,0,0,0,0,0c0.2-0.2,0.4-0.3,0.4-0.3c-0.4-0.8-0.6-1.7-0.3-2.5
				L4.8,38.9H4.4z"/>
			<path class="st1" d="M32.2,38.9l9.9,6.5c0.9-0.5,1.8-0.9,2.5-1.1L38,38.9H32.2z"/>
			<path class="st1" d="M26.3,38.9h-9.9l20.8,9.2c-0.1,0-0.2,0.1-0.3,0.1c0,0,0,0,0,0c-0.1,0-0.1,0.1-0.2,0.1
				c0.6-0.3,1.2-0.5,1.7-0.5c0.9,0,1.1,0.2,1.1,0.2c0.2-0.4,0.6-0.9,1.1-1.3c0,0-0.1,0.1-0.1,0.1L26.3,38.9z"/>
			<path class="st1" d="M34.2,54C34.2,54,34.2,54,34.2,54L34.2,54C34.2,54,34.2,54,34.2,54z"/>
			<path class="st1" d="M34.3,53.8C34.3,53.8,34.3,53.7,34.3,53.8C34.3,53.7,34.3,53.8,34.3,53.8C34.3,53.8,34.3,53.8,34.3,53.8z"/>
			<path class="st1" d="M7.2,55l28.6,2.6c0,0,0,0,0,0c-1.4-0.8-1.9-2-1.8-2.9L5.8,49.6C6.1,51.4,6.6,53.2,7.2,55z"/>
		</g>
	</g>
</g>
</svg>
