<?xml version="1.0" encoding="UTF-8"?>
<svg width="423px" height="336px" viewBox="0 0 423 336" version="1.1" xmlns="http://www.w3.org/2000/svg" xmlns:xlink="http://www.w3.org/1999/xlink">
    <!-- Generator: Sketch 44.1 (41455) - http://www.bohemiancoding.com/sketch -->
    <title>Group 4</title>
    <desc>Created with Sketch.</desc>
    <defs>
        <path d="M56.04,8.128 L56.04,3.43 L42.99,3.43 L42.99,8.36 L46.122,8.592 L41.192,32.836 L41.076,32.836 L34.812,6.504 L27.33,6.504 L21.298,32.72 L21.066,32.72 L16.02,10.332 C15.73,8.94 16.484,8.418 17.76,8.302 L19.674,8.128 L19.674,3.43 L5.29,3.43 L5.29,8.36 L8.596,8.534 L16.6,42 L24.778,42 L30.694,16.19 L30.868,16.19 L36.958,42 L44.904,42 L52.212,10.39 C52.502,9.056 52.908,8.418 54.126,8.302 L56.04,8.128 Z M62.0865,35.504 C62.0865,36.954 61.5065,37.302 60.4045,37.418 L58.4905,37.592 L58.4905,42 L72.2945,42 L72.2945,37.36 L68.9885,37.186 L68.9885,23.15 C68.9885,20.134 71.1345,17.292 75.1945,17.292 C78.9065,17.292 79.7185,20.018 79.7185,23.556 L79.7185,35.504 C79.7185,36.954 79.1385,37.302 78.0365,37.418 L76.1225,37.592 L76.1225,42 L89.9265,42 L89.9265,37.36 L86.6205,37.186 L86.6205,22.048 C86.6205,15.204 83.1985,11.956 77.3985,11.956 C73.5705,11.956 70.6705,13.754 68.9305,16.248 L68.9305,0.646 L58.6065,0.646 L58.6065,5.46 L60.6365,5.576 C61.7385,5.634 62.0865,5.982 62.0865,7.258 L62.0865,35.504 Z M106.993,37.766 C111.517,37.766 113.315,33.59 113.315,27.558 C113.315,21.062 111.749,17.06 107.109,17.06 C102.527,17.06 100.671,21.004 100.671,26.572 C100.671,31.966 101.425,37.766 106.993,37.766 Z M93.6529999,27.384 C93.6529999,15.32 101.483,11.956 107.457,11.956 C111.749,11.956 120.391,13.29 120.391,26.63 C120.391,37.766 114.185,42.87 106.529,42.87 C98.7569999,42.87 93.6529999,37.882 93.6529999,27.384 Z M134.9635,0.646 L124.5815,0.646 L124.5815,5.46 L126.6115,5.576 C127.4815,5.634 128.0615,5.924 128.0615,6.968 L128.0615,35.562 C128.0615,36.954 127.4235,37.302 126.3795,37.418 L124.4655,37.592 L124.4655,42 L138.2695,42 L138.2695,37.36 L134.9635,37.186 L134.9635,0.646 Z M156.728,11.956 C162.412,11.956 166.182,14.856 166.182,20.018 C166.182,28.95 156.496,30.458 149.652,30.516 C149.884,34.286 151.856,37.36 156.786,37.36 C160.208,37.36 162.702,35.794 164.094,34.808 L166.298,39.506 C165.37,40.318 161.542,42.754 156.09,42.754 C146.23,42.754 142.402,36.722 142.402,28.08 C142.402,19.496 147.216,11.956 156.728,11.956 Z M159.802,20.134 C159.802,17.988 158.41,16.886 156.322,16.886 C151.682,16.886 149.594,21.352 149.42,25.644 C153.712,25.586 159.802,24.6 159.802,20.134 Z M182.509,42 L198.343,42 L198.343,37.07 L193.181,36.896 L193.181,25.528 L207.449,25.528 L207.449,19.612 L193.181,19.612 L193.181,9.346 L203.215,9.346 C204.781,9.346 204.897,10.042 204.897,11.144 L204.897,13.464 L210.813,13.058 L210.813,3.43 L182.799,3.43 L182.799,8.36 L186.105,8.534 L186.105,35.504 C186.105,36.664 185.409,37.012 184.423,37.128 L182.509,37.302 L182.509,42 Z M240.2915,13.986 L240.2915,35.562 C240.2915,36.838 240.6395,37.186 241.7415,37.244 L243.5975,37.36 L243.5975,42 L234.3755,42 L234.3755,38.636 L234.2015,38.578 C232.4035,41.188 229.4455,42.754 226.2555,42.754 C218.0775,42.754 214.6555,36.954 214.6555,28.66 C214.6555,18.452 219.5275,11.956 229.9675,11.956 C231.8815,11.956 236.1155,12.42 240.2915,13.986 Z M233.5635,32.778 L233.5635,17.756 C232.6935,17.35 230.8955,17.002 229.0975,17.002 C223.5875,17.002 221.7315,22.164 221.7315,28.428 C221.7315,33.242 222.8915,37.824 227.7635,37.824 C231.3595,37.824 233.5635,35.272 233.5635,32.778 Z M247.092,17.524 L249.528,17.698 C250.63,17.756 250.978,18.22 250.978,19.496 L250.978,35.504 L250.92,35.504 C250.92,36.954 250.34,37.302 249.238,37.418 L247.324,37.592 L247.324,42 L261.012,42 L261.012,37.36 L257.88,37.186 L257.88,23.15 C257.88,20.134 259.446,17.292 263.506,17.292 C267.218,17.292 267.508,20.018 267.508,23.556 L267.508,35.504 C267.508,36.954 266.928,37.302 265.826,37.418 L263.912,37.592 L263.912,42 L277.6,42 L277.6,37.36 L274.41,37.186 L274.41,23.266 C274.41,19.844 276.15,17.292 280.036,17.292 C283.748,17.292 284.038,20.018 284.038,23.556 L284.038,35.562 C283.98,36.954 283.4,37.302 282.356,37.418 L280.442,37.592 L280.442,42 L294.246,42 L294.246,37.36 L290.94,37.186 L290.94,22.048 C290.94,15.204 287.692,11.956 282.24,11.956 C278.412,11.956 275.454,13.696 273.424,16.596 C272.09,13.464 269.422,11.956 265.71,11.956 C261.882,11.956 258.924,13.696 256.894,16.596 L256.894,12.826 L247.092,12.826 L247.092,17.524 Z M308.4705,12.826 L298.0885,12.826 L298.0885,17.64 L300.1185,17.756 C301.2205,17.756 301.5685,18.162 301.5685,19.438 L301.5685,35.562 C301.5685,36.954 300.9305,37.302 299.8865,37.418 L297.9725,37.592 L297.9725,42 L311.7765,42 L311.7765,37.36 L308.4705,37.186 L308.4705,12.826 Z M299.9445,4.764 C299.9445,7.2 301.6845,8.998 304.3525,8.998 C306.9625,8.998 308.8185,7.2 308.8185,4.764 C308.8185,2.328 306.9625,0.414 304.4105,0.414 C301.6845,0.414 299.9445,2.328 299.9445,4.764 Z M325.827,0.646 L315.445,0.646 L315.445,5.46 L317.475,5.576 C318.345,5.634 318.925,5.924 318.925,6.968 L318.925,35.562 C318.925,36.954 318.287,37.302 317.243,37.418 L315.329,37.592 L315.329,42 L329.133,42 L329.133,37.36 L325.827,37.186 L325.827,0.646 Z M354.377499,40.898 C354.377499,46.176 352.231499,49.424 346.895499,49.424 C345.155499,49.424 343.879499,49.25 342.777499,48.844 C341.733499,48.438 341.443499,47.858 341.443499,46.756 L341.443499,43.972 L335.933499,44.436 L335.933499,52.498 C338.369499,53.716 343.183499,54.412 346.837499,54.412 C355.479499,54.412 360.293499,50.468 360.293499,40.898 L360.293499,12.826 L350.085499,12.826 L350.085499,17.582 L351.941499,17.698 C353.043499,17.698 353.391499,18.162 353.391499,19.438 L353.391499,29.936 C353.391499,32.952 351.245499,35.678 347.185499,35.678 C343.473499,35.678 342.893499,33.01 342.893499,29.472 L342.893499,12.826 L332.685499,12.826 L332.685499,17.582 L334.541499,17.698 C335.527499,17.756 335.991499,18.104 335.991499,19.322 L335.991499,30.98 C335.991499,37.824 339.181499,41.014 344.981499,41.014 C348.809499,41.014 352.347499,39.39 354.377499,36.49 L354.377499,40.898 Z M6.972,96 L6.972,91.302 L8.886,91.128 C9.872,91.012 10.568,90.664 10.568,89.504 L10.568,62.534 L7.262,62.36 L7.262,57.43 L23.154,57.43 C34.232,57.43 41.25,63.288 41.25,75.352 C41.25,90.548 32.782,96 23.444,96 L6.972,96 Z M17.644,63.056 L17.644,90.432 L23.56,90.432 C30.056,90.432 34.116,85.676 34.116,76.396 C34.116,65.956 29.07,63.056 22.806,63.056 L17.644,63.056 Z M60.3465,65.956 C66.0305,65.956 69.8005,68.856 69.8005,74.018 C69.8005,82.95 60.1145,84.458 53.2705,84.516 C53.5025,88.286 55.4745,91.36 60.4045,91.36 C63.8265,91.36 66.3205,89.794 67.7125,88.808 L69.9165,93.506 C68.9885,94.318 65.1605,96.754 59.7085,96.754 C49.8485,96.754 46.0205,90.722 46.0205,82.08 C46.0205,73.496 50.8345,65.956 60.3465,65.956 Z M63.4205,74.134 C63.4205,71.988 62.0285,70.886 59.9405,70.886 C55.3005,70.886 53.2125,75.352 53.0385,79.644 C57.3305,79.586 63.4205,78.6 63.4205,74.134 Z M73.8169999,71.466 L76.2529999,71.64 C77.2969999,71.698 77.7029999,72.162 77.7029999,73.438 L77.7029999,89.504 C77.7029999,90.954 77.1229999,91.302 76.0209999,91.418 L74.1069999,91.592 L74.1069999,96 L87.9109999,96 L87.9109999,91.36 L84.6049999,91.186 L84.6049999,77.15 C84.6049999,74.134 86.7509999,71.292 90.5789999,71.292 C94.5229999,71.292 95.3349999,73.728 95.3349999,77.556 L95.3349999,89.504 C95.3349999,90.954 94.7549999,91.302 93.6529999,91.418 L91.7389999,91.592 L91.7389999,96 L105.543,96 L105.543,91.36 L102.237,91.186 L102.237,76.048 C102.237,69.204 98.8149999,65.956 93.0149999,65.956 C89.1869999,65.956 85.6489999,67.696 83.6189999,70.596 L83.6189999,66.826 L73.8169999,66.826 L73.8169999,71.466 Z M113.3875,60.678 C112.1695,63.984 110.7775,67.116 106.7175,67.464 L106.1375,71.698 L110.2555,71.698 L110.2555,87.184 C110.2555,91.244 110.1975,96.812 119.2455,96.812 C121.9715,96.812 124.8715,96 126.6115,94.782 L124.8715,90.316 C123.9435,90.896 122.4935,91.534 120.9275,91.534 C118.5495,91.534 117.1575,90.49 117.1575,86.952 L117.1575,71.698 L124.2915,71.698 L124.8715,66.826 L117.1575,66.826 L117.1575,60.678 L113.3875,60.678 Z M139.618,66.826 L129.236,66.826 L129.236,71.64 L131.266,71.756 C132.368,71.756 132.716,72.162 132.716,73.438 L132.716,89.562 C132.716,90.954 132.078,91.302 131.034,91.418 L129.12,91.592 L129.12,96 L142.924,96 L142.924,91.36 L139.618,91.186 L139.618,66.826 Z M131.092,58.764 C131.092,61.2 132.832,62.998 135.5,62.998 C138.11,62.998 139.966,61.2 139.966,58.764 C139.966,56.328 138.11,54.414 135.558,54.414 C132.832,54.414 131.092,56.328 131.092,58.764 Z M161.7885,71.234 C162.8325,71.64 163.1225,72.104 163.1225,73.206 L163.1225,75.642 L168.3425,75.236 L168.3425,68.276 C166.0805,67.174 162.6585,65.956 158.7145,65.956 C152.6245,65.956 147.5205,69.146 147.5205,75.178 C147.5205,81.616 152.2185,83.066 156.5105,84.168 C159.6425,84.98 162.1945,85.502 162.1945,88.286 C162.1945,90.722 160.5125,91.824 157.6125,91.824 C156.2205,91.824 154.8865,91.65 153.7845,91.244 C152.7405,90.838 152.4505,90.374 152.4505,89.272 L152.4505,86.488 L147.2305,86.894 L147.2305,94.956 C149.6665,96.174 154.2485,96.754 157.9025,96.754 C164.1085,96.754 169.0965,93.506 169.0965,87.474 C169.0965,81.152 164.1085,79.702 159.5845,78.426 C156.8585,77.672 154.0745,76.86 154.0745,74.192 C154.0745,71.872 155.9305,70.712 158.4245,70.712 C159.8165,70.712 160.6865,70.828 161.7885,71.234 Z M178.913,60.678 C177.695,63.984 176.303,67.116 172.243,67.464 L171.663,71.698 L175.781,71.698 L175.781,87.184 C175.781,91.244 175.723,96.812 184.771,96.812 C187.497,96.812 190.397,96 192.137,94.782 L190.397,90.316 C189.469,90.896 188.019,91.534 186.453,91.534 C184.075,91.534 182.683,90.49 182.683,86.952 L182.683,71.698 L189.817,71.698 L190.397,66.826 L182.683,66.826 L182.683,60.678 L178.913,60.678 Z M198.2415,89.504 C198.2415,90.954 197.6615,91.302 196.5595,91.418 L194.6455,91.592 L194.6455,96 L210.1895,96 L210.1895,91.418 L205.1435,91.186 L205.1435,77.73 C205.1435,74.366 207.2895,71.872 210.4215,71.872 C211.0595,71.872 211.4655,71.93 211.9875,72.162 C212.4515,72.394 212.5675,72.916 212.5675,73.612 L212.5675,76.28 L217.9615,75.874 L217.9615,67.232 C216.0475,66.304 214.3075,65.956 212.3935,65.956 C208.5655,65.956 205.4915,68.276 204.1575,71.176 L204.1575,66.826 L194.3555,66.826 L194.3555,71.524 L196.7915,71.698 C197.8935,71.756 198.2415,72.162 198.2415,73.438 L198.2415,89.504 Z M243.09,94.898 C243.09,100.176 240.944,103.424 235.608,103.424 C233.868,103.424 232.592,103.25 231.49,102.844 C230.446,102.438 230.156,101.858 230.156,100.756 L230.156,97.972 L224.646,98.436 L224.646,106.498 C227.082,107.716 231.896,108.412 235.55,108.412 C244.192,108.412 249.006,104.468 249.006,94.898 L249.006,66.826 L238.798,66.826 L238.798,71.582 L240.654,71.698 C241.756,71.698 242.104,72.162 242.104,73.438 L242.104,83.936 C242.104,86.952 239.958,89.678 235.898,89.678 C232.186,89.678 231.606,87.01 231.606,83.472 L231.606,66.826 L221.398,66.826 L221.398,71.582 L223.254,71.698 C224.24,71.756 224.704,72.104 224.704,73.322 L224.704,84.98 C224.704,91.824 227.894,95.014 233.694,95.014 C237.522,95.014 241.06,93.39 243.09,90.49 L243.09,94.898 Z M278.151,89.504 L278.151,81.268 L268.291,62.534 L265.565,62.36 L265.565,57.43 L279.717,57.43 L279.717,62.128 L277.977,62.302 C276.701,62.418 276.353,63.346 276.991,64.564 L281.921,74.656 L282.153,74.656 L288.475,62.592 L285.575,62.36 L285.575,57.43 L298.045,57.43 L298.045,62.128 L296.305,62.302 C295.377,62.418 294.913,62.998 294.333,64.042 L285.227,81.268 L285.227,90.896 L289.751,91.07 L289.751,96 L273.395,96 L273.395,91.302 L276.469,91.128 C277.571,91.07 278.151,90.664 278.151,89.504 Z M309.833499,91.766 C314.357499,91.766 316.155499,87.59 316.155499,81.558 C316.155499,75.062 314.589499,71.06 309.949499,71.06 C305.367499,71.06 303.511499,75.004 303.511499,80.572 C303.511499,85.966 304.265499,91.766 309.833499,91.766 Z M296.493499,81.384 C296.493499,69.32 304.323499,65.956 310.297499,65.956 C314.589499,65.956 323.231499,67.29 323.231499,80.63 C323.231499,91.766 317.025499,96.87 309.369499,96.87 C301.597499,96.87 296.493499,91.882 296.493499,81.384 Z M357.291999,91.418 L355.261999,91.244 C354.159999,91.128 353.811999,90.838 353.811999,89.562 L353.811999,66.826 L343.603999,66.826 L343.603999,71.582 L345.459999,71.698 C346.561999,71.756 346.909999,72.162 346.909999,73.438 L346.909999,85.676 C346.909999,88.692 344.763999,91.418 340.703999,91.418 C336.991999,91.418 336.411999,88.75 336.411999,85.212 L336.411999,66.826 L326.203999,66.826 L326.203999,71.582 L328.059999,71.698 C329.045999,71.756 329.509999,72.104 329.509999,73.322 L329.509999,86.72 C329.509999,93.564 332.699999,96.754 338.499999,96.754 C342.327999,96.754 345.865999,95.13 347.895999,92.23 L347.895999,96 L357.291999,96 L357.291999,91.418 Z M362.468499,57.43 L363.048499,70.77 L367.282499,70.77 L367.862499,57.43 L362.468499,57.43 Z M383.710999,54.646 L373.328999,54.646 L373.328999,59.46 L375.358999,59.576 C376.228999,59.634 376.808999,59.924 376.808999,60.968 L376.808999,89.562 C376.808999,90.954 376.170999,91.302 375.126999,91.418 L373.212999,91.592 L373.212999,96 L387.016999,96 L387.016999,91.36 L383.710999,91.186 L383.710999,54.646 Z M401.299499,54.646 L390.917499,54.646 L390.917499,59.46 L392.947499,59.576 C393.817499,59.634 394.397499,59.924 394.397499,60.968 L394.397499,89.562 C394.397499,90.954 393.759499,91.302 392.715499,91.418 L390.801499,91.592 L390.801499,96 L404.605499,96 L404.605499,91.36 L401.299499,91.186 L401.299499,54.646 Z" id="path-1"></path>
        <filter x="-1.8%" y="-4.6%" width="103.5%" height="113.0%" filterUnits="objectBoundingBox" id="filter-2">
            <feOffset dx="0" dy="2" in="SourceAlpha" result="shadowOffsetOuter1"></feOffset>
            <feGaussianBlur stdDeviation="2" in="shadowOffsetOuter1" result="shadowBlurOuter1"></feGaussianBlur>
            <feColorMatrix values="0 0 0 0 0   0 0 0 0 0   0 0 0 0 0  0 0 0 1 0" type="matrix" in="shadowBlurOuter1"></feColorMatrix>
        </filter>
        <path d="M5.7722,233 L5.7722,119.258 L37.0112,119.258 L37.0112,205.766 L88.5956,205.766 L88.5956,233 L5.7722,233 Z M150.512902,233.9612 C141.862058,233.9612 134.012337,232.305817 126.963502,228.995 C119.914666,225.684183 113.880527,221.332127 108.860902,215.9387 C103.841277,210.545273 99.9431156,204.377635 97.1663017,197.4356 C94.3894878,190.493565 93.0011017,183.338037 93.0011017,175.9688 C93.0011017,168.492763 94.4428873,161.283835 97.3265017,154.3418 C100.210116,147.399765 104.241776,141.285526 109.421602,135.9989 C114.601428,130.712274 120.742366,126.493716 127.844602,123.3431 C134.946837,120.192484 142.71646,118.6172 151.153702,118.6172 C159.804545,118.6172 167.654266,120.272583 174.703102,123.5834 C181.751937,126.894217 187.786077,131.272973 192.805702,136.7198 C197.825327,142.166627 201.696788,148.360965 204.420202,155.303 C207.143615,162.245035 208.505302,169.347164 208.505302,176.6096 C208.505302,184.085637 207.063516,191.267866 204.179902,198.1565 C201.296287,205.045134 197.291327,211.132674 192.164902,216.4193 C187.038476,221.705926 180.924237,225.951184 173.822002,229.1552 C166.719766,232.359216 158.950144,233.9612 150.512902,233.9612 Z M124.720702,176.2892 C124.720702,180.134019 125.254696,183.845282 126.322702,187.4231 C127.390707,191.000918 128.992691,194.178186 131.128702,196.955 C133.264712,199.731814 135.961385,201.974591 139.218802,203.6834 C142.476218,205.392209 146.347679,206.2466 150.833302,206.2466 C155.318924,206.2466 159.217085,205.365509 162.527902,203.6033 C165.838718,201.841091 168.535391,199.544914 170.618002,196.7147 C172.700612,193.884486 174.249197,190.653818 175.263802,187.0226 C176.278407,183.391382 176.785702,179.706819 176.785702,175.9688 C176.785702,172.123981 176.251707,168.412718 175.183702,164.8349 C174.115696,161.257082 172.487013,158.106514 170.297602,155.3831 C168.108191,152.659686 165.384818,150.470308 162.127402,148.8149 C158.869985,147.159492 155.051924,146.3318 150.673102,146.3318 C146.187479,146.3318 142.316018,147.186191 139.058602,148.895 C135.801185,150.603809 133.104512,152.873286 130.968502,155.7035 C128.832491,158.533714 127.257207,161.737682 126.242602,165.3155 C125.227997,168.893318 124.720702,172.551181 124.720702,176.2892 Z M240.465203,119.258 L262.733003,193.751 L284.680403,119.258 L317.521403,119.258 L275.709203,233 L249.756803,233 L207.464003,119.258 L240.465203,119.258 Z M408.434905,205.766 L408.434905,233 L327.373705,233 L327.373705,119.258 L406.993105,119.258 L406.993105,146.492 L358.612705,146.492 L358.612705,162.512 L399.944305,162.512 L399.944305,187.8236 L358.612705,187.8236 L358.612705,205.766 L408.434905,205.766 Z" id="path-3"></path>
        <filter x="-2.5%" y="-8.7%" width="107.0%" height="124.3%" filterUnits="objectBoundingBox" id="filter-4">
            <feOffset dx="4" dy="4" in="SourceAlpha" result="shadowOffsetOuter1"></feOffset>
            <feGaussianBlur stdDeviation="4" in="shadowOffsetOuter1" result="shadowBlurOuter1"></feGaussianBlur>
            <feColorMatrix values="0 0 0 0 0   0 0 0 0 0   0 0 0 0 0  0 0 0 0.5 0" type="matrix" in="shadowBlurOuter1"></feColorMatrix>
        </filter>
        <rect id="path-5" x="0" y="288" width="233" height="44" rx="22"></rect>
        <path d="M25.493,249.3269 L25.493,270.8 L23.4437,270.8 C23.1268984,270.8 22.8620761,270.748026 22.649225,270.644075 C22.4363739,270.540124 22.230951,270.364401 22.03295,270.1169 L10.8212,255.8015 C10.8806003,256.454903 10.9103,257.058797 10.9103,257.6132 L10.9103,270.8 L7.39085,270.8 L7.39085,249.3269 L9.4847,249.3269 C9.65300084,249.3269 9.79902438,249.334325 9.922775,249.349175 C10.0465256,249.364025 10.1554245,249.393725 10.249475,249.438275 C10.3435255,249.482825 10.4350996,249.547175 10.5242,249.631325 C10.6133004,249.715475 10.7122995,249.826849 10.8212,249.96545 L22.0775,264.34025 C22.0477999,263.993748 22.0230501,263.652202 22.00325,263.3156 C21.9834499,262.978998 21.97355,262.667151 21.97355,262.38005 L21.97355,249.3269 L25.493,249.3269 Z M35.9771,255.3263 C37.1057056,255.3263 38.1328204,255.509448 39.058475,255.87575 C39.9841296,256.242052 40.7761217,256.761797 41.434475,257.435 C42.0928283,258.108203 42.6001982,258.929895 42.9566,259.9001 C43.3130018,260.870305 43.4912,261.954344 43.4912,263.15225 C43.4912,264.360056 43.3130018,265.449045 42.9566,266.41925 C42.6001982,267.389455 42.0928283,268.216097 41.434475,268.8992 C40.7761217,269.582303 39.9841296,270.106998 39.058475,270.4733 C38.1328204,270.839602 37.1057056,271.02275 35.9771,271.02275 C34.8385943,271.02275 33.8040547,270.839602 32.87345,270.4733 C31.9428453,270.106998 31.1483783,269.582303 30.490025,268.8992 C29.8316717,268.216097 29.3218268,267.389455 28.960475,266.41925 C28.5991232,265.449045 28.41845,264.360056 28.41845,263.15225 C28.41845,261.954344 28.5991232,260.870305 28.960475,259.9001 C29.3218268,258.929895 29.8316717,258.108203 30.490025,257.435 C31.1483783,256.761797 31.9428453,256.242052 32.87345,255.87575 C33.8040547,255.509448 34.8385943,255.3263 35.9771,255.3263 Z M35.9771,268.20125 C37.2443063,268.20125 38.182322,267.775554 38.791175,266.92415 C39.400028,266.072746 39.70445,264.825358 39.70445,263.18195 C39.70445,261.538542 39.400028,260.286204 38.791175,259.4249 C38.182322,258.563596 37.2443063,258.13295 35.9771,258.13295 C34.6900936,258.13295 33.7372281,258.566071 33.118475,259.432325 C32.4997219,260.298579 32.19035,261.548442 32.19035,263.18195 C32.19035,264.815458 32.4997219,266.060371 33.118475,266.916725 C33.7372281,267.773079 34.6900936,268.20125 35.9771,268.20125 Z M67.80065,255.5639 L62.95955,270.8 L60.01925,270.8 C59.6826483,270.8 59.4500006,270.582202 59.3213,270.1466 L56.5889,261.34055 C56.4997996,261.043549 56.4181254,260.749026 56.343875,260.456975 C56.2696246,260.164924 56.2077502,259.870401 56.15825,259.5734 C56.0988497,259.870401 56.0320254,260.169873 55.957775,260.471825 C55.8835246,260.773777 55.8018504,261.073249 55.71275,261.37025 L52.9358,270.1466 C52.8169994,270.582202 52.554652,270.8 52.14875,270.8 L49.32725,270.8 L44.501,255.5639 L47.42645,255.5639 C47.6937513,255.5639 47.9214491,255.628249 48.10955,255.75695 C48.2976509,255.885651 48.4213997,256.048999 48.4808,256.247 L50.66375,264.3848 C50.7726505,264.830302 50.8691746,265.265898 50.953325,265.6916 C51.0374754,266.117302 51.1092497,266.542998 51.16865,266.9687 C51.2775505,266.542998 51.3938744,266.117302 51.517625,265.6916 C51.6413756,265.265898 51.7725493,264.830302 51.91115,264.3848 L54.43565,256.2173 C54.4950503,256.019299 54.6113741,255.855951 54.784625,255.72725 C54.9578759,255.598549 55.1682488,255.5342 55.41575,255.5342 L57.0344,255.5342 C57.2918013,255.5342 57.5120741,255.598549 57.695225,255.72725 C57.8783759,255.855951 57.9996497,256.019299 58.05905,256.2173 L60.5093,264.3848 C60.6380006,264.830302 60.7592744,265.268373 60.873125,265.699025 C60.9869756,266.129677 61.0983495,266.557848 61.20725,266.98355 C61.3359506,266.142046 61.5190988,265.275804 61.7567,264.3848 L63.99905,256.247 C64.0683503,256.048999 64.1920991,255.885651 64.3703,255.75695 C64.5485009,255.628249 64.7613488,255.5639 65.00885,255.5639 L67.80065,255.5639 Z M105.4454,249.3269 L98.77775,270.8 L95.1692,270.8 L90.4766,256.1282 C90.3478994,255.771798 90.2291005,255.336203 90.1202,254.8214 C90.0607997,255.068901 90.0014003,255.301549 89.942,255.51935 C89.8825997,255.737151 89.8182503,255.940099 89.74895,256.1282 L85.0118,270.8 L81.3884,270.8 L74.7356,249.3269 L78.07685,249.3269 C78.4233517,249.3269 78.7129238,249.408574 78.945575,249.571925 C79.1782262,249.735276 79.3341496,249.955549 79.41335,250.23275 L83.06645,263.078 C83.1456504,263.394802 83.2223746,263.738823 83.296625,264.110075 C83.3708754,264.481327 83.4475996,264.869898 83.5268,265.2758 C83.6060004,264.859998 83.6926245,264.468952 83.786675,264.10265 C83.8807255,263.736348 83.9821995,263.394802 84.0911,263.078 L88.3085,250.23275 C88.3877004,250.005049 88.5436238,249.797151 88.776275,249.60905 C89.0089262,249.420949 89.2935483,249.3269 89.63015,249.3269 L90.8033,249.3269 C91.1498017,249.3269 91.4319489,249.411049 91.64975,249.57935 C91.8675511,249.747651 92.0308995,249.965449 92.1398,250.23275 L96.34235,263.078 C96.550251,263.691803 96.7383492,264.399646 96.90665,265.20155 C97.0353506,264.419446 97.1788992,263.711603 97.3373,263.078 L100.9904,250.23275 C101.0498,249.985249 101.200774,249.772401 101.443325,249.5942 C101.685876,249.415999 101.975448,249.3269 102.31205,249.3269 L105.4454,249.3269 Z M115.5137,261.42965 C115.5137,260.954448 115.446876,260.506477 115.313225,260.085725 C115.179574,259.664973 114.979101,259.296202 114.7118,258.9794 C114.444499,258.662598 114.105427,258.412626 113.694575,258.229475 C113.283723,258.046324 112.806053,257.95475 112.26155,257.95475 C111.202245,257.95475 110.368178,258.256697 109.759325,258.8606 C109.150472,259.464503 108.761901,260.320844 108.5936,261.42965 L115.5137,261.42965 Z M108.51935,263.6423 C108.57875,264.424404 108.717349,265.100072 108.93515,265.669325 C109.152951,266.238578 109.440048,266.708823 109.79645,267.080075 C110.152852,267.451327 110.576073,267.728524 111.066125,267.911675 C111.556177,268.094826 112.098197,268.1864 112.6922,268.1864 C113.286203,268.1864 113.798523,268.117101 114.229175,267.9785 C114.659827,267.839899 115.036023,267.686451 115.357775,267.51815 C115.679527,267.349849 115.961674,267.196401 116.204225,267.0578 C116.446776,266.919199 116.681899,266.8499 116.9096,266.8499 C117.216502,266.8499 117.444199,266.963749 117.5927,267.19145 L118.64705,268.52795 C118.241148,269.003152 117.785753,269.401623 117.28085,269.723375 C116.775947,270.045127 116.248778,270.302524 115.699325,270.495575 C115.149872,270.688626 114.590528,270.82475 114.021275,270.90395 C113.452022,270.98315 112.900103,271.02275 112.3655,271.02275 C111.306195,271.02275 110.321155,270.847027 109.41035,270.495575 C108.499545,270.144123 107.707553,269.624378 107.03435,268.936325 C106.361147,268.248272 105.831502,267.39688 105.4454,266.382125 C105.059298,265.36737 104.86625,264.191757 104.86625,262.85525 C104.86625,261.815745 105.034548,260.83813 105.37115,259.922375 C105.707752,259.00662 106.190372,258.209678 106.819025,257.531525 C107.447678,256.853372 108.21492,256.316302 109.120775,255.9203 C110.02663,255.524298 111.048794,255.3263 112.1873,255.3263 C113.147605,255.3263 114.033646,255.479748 114.84545,255.78665 C115.657254,256.093552 116.355197,256.541522 116.9393,257.130575 C117.523403,257.719628 117.981273,258.442321 118.312925,259.298675 C118.644577,260.155029 118.8104,261.132645 118.8104,262.23155 C118.8104,262.785953 118.751001,263.159674 118.6322,263.352725 C118.513399,263.545776 118.285702,263.6423 117.9491,263.6423 L108.51935,263.6423 Z M125.27015,248.7329 L125.27015,270.8 L121.6022,270.8 L121.6022,248.7329 L125.27015,248.7329 Z M139.85285,258.78635 C139.743949,258.924951 139.637526,259.03385 139.533575,259.11305 C139.429624,259.19225 139.278651,259.23185 139.08065,259.23185 C138.892549,259.23185 138.709401,259.174926 138.5312,259.061075 C138.352999,258.947224 138.140151,258.818526 137.89265,258.674975 C137.645149,258.531424 137.350627,258.402726 137.009075,258.288875 C136.667523,258.175024 136.244303,258.1181 135.7394,258.1181 C135.095897,258.1181 134.531602,258.234424 134.0465,258.467075 C133.561398,258.699726 133.157977,259.033848 132.836225,259.46945 C132.514473,259.905052 132.274401,260.432222 132.116,261.050975 C131.957599,261.669728 131.8784,262.370146 131.8784,263.15225 C131.8784,263.964054 131.965024,264.686747 132.138275,265.32035 C132.311526,265.953953 132.561498,266.486073 132.8882,266.916725 C133.214902,267.347377 133.610898,267.674074 134.0762,267.896825 C134.541502,268.119576 135.066197,268.23095 135.6503,268.23095 C136.234403,268.23095 136.707123,268.159176 137.068475,268.015625 C137.429827,267.872074 137.734249,267.713676 137.98175,267.540425 C138.229251,267.367174 138.444574,267.208776 138.627725,267.065225 C138.810876,266.921674 139.016299,266.8499 139.244,266.8499 C139.541001,266.8499 139.763749,266.963749 139.91225,267.19145 L140.9666,268.52795 C140.560698,269.003152 140.120152,269.401623 139.64495,269.723375 C139.169748,270.045127 138.677228,270.302524 138.167375,270.495575 C137.657522,270.688626 137.132828,270.82475 136.593275,270.90395 C136.053722,270.98315 135.516653,271.02275 134.98205,271.02275 C134.041545,271.02275 133.155504,270.847027 132.3239,270.495575 C131.492296,270.144123 130.764653,269.631803 130.14095,268.9586 C129.517247,268.285397 129.024727,267.46123 128.663375,266.486075 C128.302023,265.51092 128.12135,264.399656 128.12135,263.15225 C128.12135,262.033544 128.282223,260.99653 128.603975,260.041175 C128.925727,259.08582 129.398447,258.259178 130.02215,257.561225 C130.645853,256.863272 131.418045,256.316302 132.33875,255.9203 C133.259455,255.524298 134.318744,255.3263 135.51665,255.3263 C136.655156,255.3263 137.652571,255.509448 138.508925,255.87575 C139.365279,256.242052 140.134997,256.766747 140.8181,257.44985 L139.85285,258.78635 Z M149.7281,255.3263 C150.856706,255.3263 151.88382,255.509448 152.809475,255.87575 C153.73513,256.242052 154.527122,256.761797 155.185475,257.435 C155.843828,258.108203 156.351198,258.929895 156.7076,259.9001 C157.064002,260.870305 157.2422,261.954344 157.2422,263.15225 C157.2422,264.360056 157.064002,265.449045 156.7076,266.41925 C156.351198,267.389455 155.843828,268.216097 155.185475,268.8992 C154.527122,269.582303 153.73513,270.106998 152.809475,270.4733 C151.88382,270.839602 150.856706,271.02275 149.7281,271.02275 C148.589594,271.02275 147.555055,270.839602 146.62445,270.4733 C145.693845,270.106998 144.899378,269.582303 144.241025,268.8992 C143.582672,268.216097 143.072827,267.389455 142.711475,266.41925 C142.350123,265.449045 142.16945,264.360056 142.16945,263.15225 C142.16945,261.954344 142.350123,260.870305 142.711475,259.9001 C143.072827,258.929895 143.582672,258.108203 144.241025,257.435 C144.899378,256.761797 145.693845,256.242052 146.62445,255.87575 C147.555055,255.509448 148.589594,255.3263 149.7281,255.3263 Z M149.7281,268.20125 C150.995306,268.20125 151.933322,267.775554 152.542175,266.92415 C153.151028,266.072746 153.45545,264.825358 153.45545,263.18195 C153.45545,261.538542 153.151028,260.286204 152.542175,259.4249 C151.933322,258.563596 150.995306,258.13295 149.7281,258.13295 C148.441094,258.13295 147.488228,258.566071 146.869475,259.432325 C146.250722,260.298579 145.94135,261.548442 145.94135,263.18195 C145.94135,264.815458 146.250722,266.060371 146.869475,266.916725 C147.488228,267.773079 148.441094,268.20125 149.7281,268.20125 Z M160.04885,270.8 L160.04885,255.5639 L162.2912,255.5639 C162.766402,255.5639 163.078249,255.786648 163.22675,256.23215 L163.46435,257.36075 C163.731651,257.063749 164.011324,256.791501 164.303375,256.544 C164.595426,256.296499 164.907273,256.083651 165.238925,255.90545 C165.570577,255.727249 165.926973,255.586176 166.308125,255.482225 C166.689277,255.378274 167.107548,255.3263 167.56295,255.3263 C168.523255,255.3263 169.312772,255.586172 169.931525,256.105925 C170.550278,256.625678 171.013098,257.316196 171.32,258.1775 C171.557601,257.672597 171.854598,257.239477 172.211,256.878125 C172.567402,256.516773 172.958448,256.222251 173.38415,255.99455 C173.809852,255.766849 174.262773,255.598551 174.742925,255.48965 C175.223077,255.380749 175.705698,255.3263 176.1908,255.3263 C177.032304,255.3263 177.779747,255.454999 178.43315,255.7124 C179.086553,255.969801 179.635998,256.345998 180.0815,256.841 C180.527002,257.336002 180.866074,257.939896 181.098725,258.6527 C181.331376,259.365504 181.4477,260.182245 181.4477,261.10295 L181.4477,270.8 L177.77975,270.8 L177.77975,261.10295 C177.77975,260.132745 177.566902,259.402627 177.1412,258.912575 C176.715498,258.422523 176.091804,258.1775 175.2701,258.1775 C174.893898,258.1775 174.544927,258.241849 174.223175,258.37055 C173.901423,258.499251 173.619276,258.684874 173.376725,258.927425 C173.134174,259.169976 172.943601,259.474398 172.805,259.8407 C172.666399,260.207002 172.5971,260.627748 172.5971,261.10295 L172.5971,270.8 L168.9143,270.8 L168.9143,261.10295 C168.9143,260.083245 168.708877,259.340752 168.298025,258.87545 C167.887173,258.410148 167.285754,258.1775 166.49375,258.1775 C165.959147,258.1775 165.461677,258.308674 165.001325,258.571025 C164.540973,258.833376 164.112802,259.192248 163.7168,259.64765 L163.7168,270.8 L160.04885,270.8 Z M188.7242,255.5639 L188.7242,270.8 L185.0414,270.8 L185.0414,255.5639 L188.7242,255.5639 Z M189.2291,251.12375 C189.2291,251.440552 189.164751,251.737549 189.03605,252.01475 C188.907349,252.291951 188.736576,252.534499 188.523725,252.7424 C188.310874,252.950301 188.060901,253.116124 187.7738,253.239875 C187.486699,253.363626 187.179802,253.4255 186.8531,253.4255 C186.536298,253.4255 186.236826,253.363626 185.954675,253.239875 C185.672524,253.116124 185.427501,252.950301 185.2196,252.7424 C185.011699,252.534499 184.845876,252.291951 184.722125,252.01475 C184.598374,251.737549 184.5365,251.440552 184.5365,251.12375 C184.5365,250.797048 184.598374,250.490151 184.722125,250.20305 C184.845876,249.915949 185.011699,249.668451 185.2196,249.46055 C185.427501,249.252649 185.672524,249.086826 185.954675,248.963075 C186.236826,248.839324 186.536298,248.77745 186.8531,248.77745 C187.179802,248.77745 187.486699,248.839324 187.7738,248.963075 C188.060901,249.086826 188.310874,249.252649 188.523725,249.46055 C188.736576,249.668451 188.907349,249.915949 189.03605,250.20305 C189.164751,250.490151 189.2291,250.797048 189.2291,251.12375 Z M195.89675,257.435 C196.203652,257.128098 196.527873,256.843476 196.869425,256.581125 C197.210977,256.318774 197.572323,256.096026 197.953475,255.912875 C198.334627,255.729724 198.742998,255.586176 199.1786,255.482225 C199.614202,255.378274 200.089397,255.3263 200.6042,255.3263 C201.435804,255.3263 202.173347,255.467374 202.81685,255.749525 C203.460353,256.031676 203.997423,256.427672 204.428075,256.937525 C204.858727,257.447378 205.185424,258.056221 205.408175,258.764075 C205.630926,259.471929 205.7423,260.251546 205.7423,261.10295 L205.7423,270.8 L202.07435,270.8 L202.07435,261.10295 C202.07435,260.172345 201.861502,259.452128 201.4358,258.942275 C201.010098,258.432422 200.361654,258.1775 199.49045,258.1775 C198.856847,258.1775 198.262853,258.321049 197.70845,258.60815 C197.154047,258.895251 196.629352,259.286298 196.13435,259.7813 L196.13435,270.8 L192.4664,270.8 L192.4664,255.5639 L194.70875,255.5639 C195.183952,255.5639 195.495799,255.786648 195.6443,256.23215 L195.89675,257.435 Z M214.78595,262.8107 C215.241352,262.8107 215.637348,262.748826 215.97395,262.625075 C216.310552,262.501324 216.590224,262.330551 216.812975,262.11275 C217.035726,261.894949 217.204024,261.632602 217.317875,261.3257 C217.431726,261.018798 217.48865,260.682202 217.48865,260.3159 C217.48865,259.563496 217.263427,258.967027 216.812975,258.526475 C216.362523,258.085923 215.686855,257.86565 214.78595,257.86565 C213.885045,257.86565 213.209377,258.085923 212.758925,258.526475 C212.308473,258.967027 212.08325,259.563496 212.08325,260.3159 C212.08325,260.672302 212.140174,261.003948 212.254025,261.31085 C212.367876,261.617752 212.536174,261.882574 212.758925,262.105325 C212.981676,262.328076 213.263823,262.501324 213.605375,262.625075 C213.946927,262.748826 214.340448,262.8107 214.78595,262.8107 Z M218.9291,271.4831 C218.9291,271.186099 218.840001,270.943551 218.6618,270.75545 C218.483599,270.567349 218.241052,270.421326 217.93415,270.317375 C217.627248,270.213424 217.268377,270.1367 216.857525,270.0872 C216.446673,270.0377 216.011077,270.000575 215.550725,269.975825 C215.090373,269.951075 214.615177,269.9288 214.125125,269.909 C213.635073,269.8892 213.157402,269.8496 212.6921,269.7902 C212.286198,270.017901 211.957026,270.285198 211.704575,270.5921 C211.452124,270.899002 211.3259,271.255398 211.3259,271.6613 C211.3259,271.928601 211.392724,272.178574 211.526375,272.411225 C211.660026,272.643876 211.872874,272.844349 212.164925,273.01265 C212.456976,273.180951 212.835648,273.312125 213.30095,273.406175 C213.766252,273.500225 214.335497,273.54725 215.0087,273.54725 C215.691803,273.54725 216.280848,273.495276 216.77585,273.391325 C217.270852,273.287374 217.679223,273.143826 218.000975,272.960675 C218.322727,272.777524 218.557849,272.559726 218.70635,272.307275 C218.854851,272.054824 218.9291,271.780101 218.9291,271.4831 Z M222.5822,256.08365 L222.5822,257.44985 C222.5822,257.885452 222.319853,258.15275 221.79515,258.25175 L220.42895,258.5042 C220.636851,259.028903 220.7408,259.603097 220.7408,260.2268 C220.7408,260.979204 220.589827,261.659822 220.287875,262.268675 C219.985923,262.877528 219.567653,263.394798 219.03305,263.8205 C218.498447,264.246202 217.867329,264.575374 217.139675,264.808025 C216.412021,265.040676 215.627454,265.157 214.78595,265.157 C214.488949,265.157 214.201851,265.14215 213.92465,265.11245 C213.647449,265.08275 213.375201,265.04315 213.1079,264.99365 C212.632698,265.280751 212.3951,265.602498 212.3951,265.9589 C212.3951,266.265802 212.536174,266.491024 212.818325,266.634575 C213.100476,266.778126 213.474198,266.8796 213.9395,266.939 C214.404802,266.9984 214.934447,267.035525 215.52845,267.050375 C216.122453,267.065225 216.731297,267.0974 217.355,267.1469 C217.978703,267.1964 218.587547,267.283024 219.18155,267.406775 C219.775553,267.530526 220.305198,267.726049 220.7705,267.99335 C221.235802,268.260651 221.609524,268.624473 221.891675,269.084825 C222.173826,269.545177 222.3149,270.136696 222.3149,270.8594 C222.3149,271.532603 222.149077,272.185997 221.817425,272.8196 C221.485773,273.453203 221.005628,274.017498 220.376975,274.5125 C219.748322,275.007502 218.97613,275.405973 218.060375,275.707925 C217.14462,276.009877 216.102656,276.16085 214.93445,276.16085 C213.786044,276.16085 212.786154,276.049476 211.93475,275.826725 C211.083346,275.603974 210.375503,275.306977 209.8112,274.935725 C209.246897,274.564473 208.826151,274.136302 208.54895,273.6512 C208.271749,273.166098 208.13315,272.661203 208.13315,272.1365 C208.13315,271.423696 208.348473,270.827227 208.779125,270.347075 C209.209777,269.866923 209.801296,269.483301 210.5537,269.1962 C210.147798,268.988299 209.826051,268.711102 209.58845,268.3646 C209.350849,268.018098 209.23205,267.562703 209.23205,266.9984 C209.23205,266.770699 209.274125,266.535576 209.358275,266.293025 C209.442425,266.050474 209.566174,265.810401 209.729525,265.5728 C209.892876,265.335199 210.098299,265.109976 210.3458,264.897125 C210.593301,264.684274 210.885348,264.493701 211.22195,264.3254 C210.449746,263.909598 209.843377,263.355203 209.402825,262.6622 C208.962273,261.969197 208.742,261.157405 208.742,260.2268 C208.742,259.474396 208.892973,258.793778 209.194925,258.184925 C209.496877,257.576072 209.917622,257.056327 210.457175,256.625675 C210.996728,256.195023 211.635271,255.865851 212.372825,255.63815 C213.110379,255.410449 213.914746,255.2966 214.78595,255.2966 C215.439353,255.2966 216.053147,255.363424 216.62735,255.497075 C217.201553,255.630726 217.726248,255.826249 218.20145,256.08365 L222.5822,256.08365 Z M250.7972,249.3269 L250.7972,270.8 L248.7479,270.8 C248.431098,270.8 248.166276,270.748026 247.953425,270.644075 C247.740574,270.540124 247.535151,270.364401 247.33715,270.1169 L236.1254,255.8015 C236.1848,256.454903 236.2145,257.058797 236.2145,257.6132 L236.2145,270.8 L232.69505,270.8 L232.69505,249.3269 L234.7889,249.3269 C234.957201,249.3269 235.103224,249.334325 235.226975,249.349175 C235.350726,249.364025 235.459625,249.393725 235.553675,249.438275 C235.647725,249.482825 235.7393,249.547175 235.8284,249.631325 C235.9175,249.715475 236.016499,249.826849 236.1254,249.96545 L247.3817,264.34025 C247.352,263.993748 247.32725,263.652202 247.30745,263.3156 C247.28765,262.978998 247.27775,262.667151 247.27775,262.38005 L247.27775,249.3269 L250.7972,249.3269 Z M264.35525,261.42965 C264.35525,260.954448 264.288426,260.506477 264.154775,260.085725 C264.021124,259.664973 263.820651,259.296202 263.55335,258.9794 C263.286049,258.662598 262.946977,258.412626 262.536125,258.229475 C262.125273,258.046324 261.647603,257.95475 261.1031,257.95475 C260.043795,257.95475 259.209728,258.256697 258.600875,258.8606 C257.992022,259.464503 257.603451,260.320844 257.43515,261.42965 L264.35525,261.42965 Z M257.3609,263.6423 C257.4203,264.424404 257.558899,265.100072 257.7767,265.669325 C257.994501,266.238578 258.281598,266.708823 258.638,267.080075 C258.994402,267.451327 259.417623,267.728524 259.907675,267.911675 C260.397727,268.094826 260.939747,268.1864 261.53375,268.1864 C262.127753,268.1864 262.640073,268.117101 263.070725,267.9785 C263.501377,267.839899 263.877573,267.686451 264.199325,267.51815 C264.521077,267.349849 264.803224,267.196401 265.045775,267.0578 C265.288326,266.919199 265.523449,266.8499 265.75115,266.8499 C266.058052,266.8499 266.285749,266.963749 266.43425,267.19145 L267.4886,268.52795 C267.082698,269.003152 266.627303,269.401623 266.1224,269.723375 C265.617497,270.045127 265.090328,270.302524 264.540875,270.495575 C263.991422,270.688626 263.432078,270.82475 262.862825,270.90395 C262.293572,270.98315 261.741653,271.02275 261.20705,271.02275 C260.147745,271.02275 259.162705,270.847027 258.2519,270.495575 C257.341095,270.144123 256.549103,269.624378 255.8759,268.936325 C255.202697,268.248272 254.673052,267.39688 254.28695,266.382125 C253.900848,265.36737 253.7078,264.191757 253.7078,262.85525 C253.7078,261.815745 253.876098,260.83813 254.2127,259.922375 C254.549302,259.00662 255.031922,258.209678 255.660575,257.531525 C256.289228,256.853372 257.05647,256.316302 257.962325,255.9203 C258.86818,255.524298 259.890344,255.3263 261.02885,255.3263 C261.989155,255.3263 262.875196,255.479748 263.687,255.78665 C264.498804,256.093552 265.196747,256.541522 265.78085,257.130575 C266.364953,257.719628 266.822823,258.442321 267.154475,259.298675 C267.486127,260.155029 267.65195,261.132645 267.65195,262.23155 C267.65195,262.785953 267.592551,263.159674 267.47375,263.352725 C267.354949,263.545776 267.127252,263.6423 266.79065,263.6423 L257.3609,263.6423 Z M291.94655,255.5639 L287.10545,270.8 L284.16515,270.8 C283.828548,270.8 283.595901,270.582202 283.4672,270.1466 L280.7348,261.34055 C280.6457,261.043549 280.564025,260.749026 280.489775,260.456975 C280.415525,260.164924 280.35365,259.870401 280.30415,259.5734 C280.24475,259.870401 280.177925,260.169873 280.103675,260.471825 C280.029425,260.773777 279.94775,261.073249 279.85865,261.37025 L277.0817,270.1466 C276.962899,270.582202 276.700552,270.8 276.29465,270.8 L273.47315,270.8 L268.6469,255.5639 L271.57235,255.5639 C271.839651,255.5639 272.067349,255.628249 272.25545,255.75695 C272.443551,255.885651 272.5673,256.048999 272.6267,256.247 L274.80965,264.3848 C274.918551,264.830302 275.015075,265.265898 275.099225,265.6916 C275.183375,266.117302 275.25515,266.542998 275.31455,266.9687 C275.423451,266.542998 275.539774,266.117302 275.663525,265.6916 C275.787276,265.265898 275.918449,264.830302 276.05705,264.3848 L278.58155,256.2173 C278.64095,256.019299 278.757274,255.855951 278.930525,255.72725 C279.103776,255.598549 279.314149,255.5342 279.56165,255.5342 L281.1803,255.5342 C281.437701,255.5342 281.657974,255.598549 281.841125,255.72725 C282.024276,255.855951 282.14555,256.019299 282.20495,256.2173 L284.6552,264.3848 C284.783901,264.830302 284.905174,265.268373 285.019025,265.699025 C285.132876,266.129677 285.244249,266.557848 285.35315,266.98355 C285.481851,266.142046 285.664999,265.275804 285.9026,264.3848 L288.14495,256.247 C288.21425,256.048999 288.337999,255.885651 288.5162,255.75695 C288.694401,255.628249 288.907249,255.5639 289.15475,255.5639 L291.94655,255.5639 Z M308.19245,260.12285 C308.925054,260.12285 309.563597,260.031276 310.1081,259.848125 C310.652603,259.664974 311.105523,259.402627 311.466875,259.061075 C311.828227,258.719523 312.097999,258.303727 312.2762,257.813675 C312.454401,257.323623 312.5435,256.776653 312.5435,256.17275 C312.5435,255.598547 312.454401,255.078802 312.2762,254.6135 C312.097999,254.148198 311.830702,253.752202 311.4743,253.4255 C311.117898,253.098798 310.667453,252.848826 310.12295,252.675575 C309.578447,252.502324 308.934954,252.4157 308.19245,252.4157 L305.2076,252.4157 L305.2076,260.12285 L308.19245,260.12285 Z M308.19245,249.3269 C309.627957,249.3269 310.870395,249.495198 311.9198,249.8318 C312.969205,250.168402 313.835447,250.638647 314.51855,251.24255 C315.201653,251.846453 315.709023,252.569146 316.040675,253.41065 C316.372327,254.252154 316.53815,255.172845 316.53815,256.17275 C316.53815,257.212255 316.364902,258.165121 316.0184,259.031375 C315.671898,259.897629 315.152153,260.642597 314.45915,261.2663 C313.766147,261.890003 312.89743,262.375098 311.852975,262.7216 C310.80852,263.068102 309.588357,263.24135 308.19245,263.24135 L305.2076,263.24135 L305.2076,270.8 L301.21295,270.8 L301.21295,249.3269 L308.19245,249.3269 Z M326.60645,264.2957 C325.547145,264.3452 324.656154,264.436774 323.93345,264.570425 C323.210746,264.704076 322.631602,264.874849 322.196,265.08275 C321.760398,265.290651 321.448551,265.533199 321.26045,265.8104 C321.072349,266.087601 320.9783,266.389548 320.9783,266.71625 C320.9783,267.359753 321.168873,267.820099 321.550025,268.0973 C321.931177,268.374501 322.428647,268.5131 323.04245,268.5131 C323.794854,268.5131 324.445772,268.376976 324.995225,268.104725 C325.544678,267.832474 326.081747,267.419153 326.60645,266.86475 L326.60645,264.2957 Z M318.20135,257.68745 C319.953659,256.083642 322.062338,255.28175 324.52745,255.28175 C325.418454,255.28175 326.215396,255.427774 326.9183,255.719825 C327.621204,256.011876 328.215198,256.417772 328.7003,256.937525 C329.185402,257.457278 329.554174,258.078496 329.806625,258.8012 C330.059076,259.523904 330.1853,260.315896 330.1853,261.1772 L330.1853,270.8 L328.5221,270.8 C328.175598,270.8 327.908301,270.748026 327.7202,270.644075 C327.532099,270.540124 327.383601,270.329752 327.2747,270.01295 L326.948,268.91405 C326.561898,269.260552 326.185702,269.564974 325.8194,269.827325 C325.453098,270.089676 325.071952,270.309949 324.67595,270.48815 C324.279948,270.666351 323.856727,270.802475 323.406275,270.896525 C322.955823,270.990575 322.458353,271.0376 321.91385,271.0376 C321.270347,271.0376 320.676353,270.950976 320.13185,270.777725 C319.587347,270.604474 319.117102,270.344602 318.7211,269.9981 C318.325098,269.651598 318.018201,269.220953 317.8004,268.70615 C317.582599,268.191347 317.4737,267.592403 317.4737,266.9093 C317.4737,266.523198 317.538049,266.139577 317.66675,265.758425 C317.795451,265.377273 318.005824,265.013452 318.297875,264.66695 C318.589926,264.320448 318.968598,263.993752 319.4339,263.68685 C319.899202,263.379948 320.470922,263.112651 321.149075,262.88495 C321.827228,262.657249 322.616745,262.471626 323.51765,262.328075 C324.418555,262.184524 325.448144,262.0979 326.60645,262.0682 L326.60645,261.1772 C326.60645,260.157495 326.388652,259.402627 325.95305,258.912575 C325.517448,258.422523 324.888804,258.1775 324.0671,258.1775 C323.473097,258.1775 322.980577,258.246799 322.589525,258.3854 C322.198473,258.524001 321.854451,258.679924 321.55745,258.853175 C321.260449,259.026426 320.990676,259.182349 320.748125,259.32095 C320.505574,259.459551 320.235801,259.52885 319.9388,259.52885 C319.681399,259.52885 319.463601,259.462026 319.2854,259.328375 C319.107199,259.194724 318.963651,259.038801 318.85475,258.8606 L318.20135,257.68745 Z M348.79235,270.8 L345.1244,270.8 L345.1244,258.31115 L338.0558,258.31115 L338.0558,266.56775 C338.0558,267.042952 338.172124,267.414199 338.404775,267.6815 C338.637426,267.948801 338.956698,268.08245 339.3626,268.08245 C339.590301,268.08245 339.780874,268.055225 339.934325,268.000775 C340.087776,267.946325 340.221424,267.8894 340.335275,267.83 C340.449126,267.7706 340.5506,267.713675 340.6397,267.659225 C340.7288,267.604775 340.8179,267.57755 340.907,267.57755 C341.015901,267.57755 341.105,267.604775 341.1743,267.659225 C341.2436,267.713675 341.31785,267.795349 341.39705,267.90425 L342.49595,269.68625 C341.961347,270.131752 341.347553,270.468349 340.65455,270.69605 C339.961547,270.923751 339.243804,271.0376 338.5013,271.0376 C337.174693,271.0376 336.157479,270.663879 335.449625,269.916425 C334.741771,269.168971 334.38785,268.136907 334.38785,266.8202 L334.38785,258.31115 L332.8286,258.31115 C332.630599,258.31115 332.462301,258.246801 332.3237,258.1181 C332.185099,257.989399 332.1158,257.796351 332.1158,257.53895 L332.1158,256.08365 L334.56605,255.66785 L335.33825,251.5247 C335.38775,251.326699 335.481799,251.173251 335.6204,251.06435 C335.759001,250.955449 335.937199,250.901 336.155,250.901 L338.0558,250.901 L338.0558,255.69755 L348.79235,255.69755 L348.79235,270.8 Z M349.4309,251.06435 C349.4309,251.381152 349.366551,251.680624 349.23785,251.962775 C349.109149,252.244926 348.938376,252.489949 348.725525,252.69785 C348.512674,252.905751 348.260226,253.071574 347.968175,253.195325 C347.676124,253.319076 347.366752,253.38095 347.04005,253.38095 C346.723248,253.38095 346.426251,253.319076 346.14905,253.195325 C345.871849,253.071574 345.629301,252.905751 345.4214,252.69785 C345.213499,252.489949 345.047676,252.244926 344.923925,251.962775 C344.800174,251.680624 344.7383,251.381152 344.7383,251.06435 C344.7383,250.737648 344.800174,250.433226 344.923925,250.151075 C345.047676,249.868924 345.213499,249.621426 345.4214,249.408575 C345.629301,249.195724 345.871849,249.027426 346.14905,248.903675 C346.426251,248.779924 346.723248,248.71805 347.04005,248.71805 C347.366752,248.71805 347.676124,248.779924 347.968175,248.903675 C348.260226,249.027426 348.512674,249.195724 348.725525,249.408575 C348.938376,249.621426 349.109149,249.868924 349.23785,250.151075 C349.366551,250.433226 349.4309,250.737648 349.4309,251.06435 Z M362.3504,261.42965 C362.3504,260.954448 362.283576,260.506477 362.149925,260.085725 C362.016274,259.664973 361.815801,259.296202 361.5485,258.9794 C361.281199,258.662598 360.942127,258.412626 360.531275,258.229475 C360.120423,258.046324 359.642753,257.95475 359.09825,257.95475 C358.038945,257.95475 357.204878,258.256697 356.596025,258.8606 C355.987172,259.464503 355.598601,260.320844 355.4303,261.42965 L362.3504,261.42965 Z M355.35605,263.6423 C355.41545,264.424404 355.554049,265.100072 355.77185,265.669325 C355.989651,266.238578 356.276748,266.708823 356.63315,267.080075 C356.989552,267.451327 357.412773,267.728524 357.902825,267.911675 C358.392877,268.094826 358.934897,268.1864 359.5289,268.1864 C360.122903,268.1864 360.635223,268.117101 361.065875,267.9785 C361.496527,267.839899 361.872723,267.686451 362.194475,267.51815 C362.516227,267.349849 362.798374,267.196401 363.040925,267.0578 C363.283476,266.919199 363.518599,266.8499 363.7463,266.8499 C364.053202,266.8499 364.280899,266.963749 364.4294,267.19145 L365.48375,268.52795 C365.077848,269.003152 364.622453,269.401623 364.11755,269.723375 C363.612647,270.045127 363.085478,270.302524 362.536025,270.495575 C361.986572,270.688626 361.427228,270.82475 360.857975,270.90395 C360.288722,270.98315 359.736803,271.02275 359.2022,271.02275 C358.142895,271.02275 357.157855,270.847027 356.24705,270.495575 C355.336245,270.144123 354.544253,269.624378 353.87105,268.936325 C353.197847,268.248272 352.668202,267.39688 352.2821,266.382125 C351.895998,265.36737 351.70295,264.191757 351.70295,262.85525 C351.70295,261.815745 351.871248,260.83813 352.20785,259.922375 C352.544452,259.00662 353.027072,258.209678 353.655725,257.531525 C354.284378,256.853372 355.05162,256.316302 355.957475,255.9203 C356.86333,255.524298 357.885494,255.3263 359.024,255.3263 C359.984305,255.3263 360.870346,255.479748 361.68215,255.78665 C362.493954,256.093552 363.191897,256.541522 363.776,257.130575 C364.360103,257.719628 364.817973,258.442321 365.149625,259.298675 C365.481277,260.155029 365.6471,261.132645 365.6471,262.23155 C365.6471,262.785953 365.587701,263.159674 365.4689,263.352725 C365.350099,263.545776 365.122402,263.6423 364.7858,263.6423 L355.35605,263.6423 Z M371.8247,257.435 C372.131602,257.128098 372.455823,256.843476 372.797375,256.581125 C373.138927,256.318774 373.500273,256.096026 373.881425,255.912875 C374.262577,255.729724 374.670948,255.586176 375.10655,255.482225 C375.542152,255.378274 376.017347,255.3263 376.53215,255.3263 C377.363754,255.3263 378.101297,255.467374 378.7448,255.749525 C379.388303,256.031676 379.925373,256.427672 380.356025,256.937525 C380.786677,257.447378 381.113374,258.056221 381.336125,258.764075 C381.558876,259.471929 381.67025,260.251546 381.67025,261.10295 L381.67025,270.8 L378.0023,270.8 L378.0023,261.10295 C378.0023,260.172345 377.789452,259.452128 377.36375,258.942275 C376.938048,258.432422 376.289604,258.1775 375.4184,258.1775 C374.784797,258.1775 374.190803,258.321049 373.6364,258.60815 C373.081997,258.895251 372.557302,259.286298 372.0623,259.7813 L372.0623,270.8 L368.39435,270.8 L368.39435,255.5639 L370.6367,255.5639 C371.111902,255.5639 371.423749,255.786648 371.57225,256.23215 L371.8247,257.435 Z M390.01595,271.0376 C388.689343,271.0376 387.672129,270.663879 386.964275,269.916425 C386.256421,269.168971 385.9025,268.136907 385.9025,266.8202 L385.9025,258.31115 L384.34325,258.31115 C384.145249,258.31115 383.976951,258.246801 383.83835,258.1181 C383.699749,257.989399 383.63045,257.796351 383.63045,257.53895 L383.63045,256.08365 L386.0807,255.6827 L386.8529,251.5247 C386.9024,251.326699 386.996449,251.173251 387.13505,251.06435 C387.273651,250.955449 387.451849,250.901 387.66965,250.901 L389.57045,250.901 L389.57045,255.69755 L393.63935,255.69755 L393.63935,258.31115 L389.57045,258.31115 L389.57045,266.56775 C389.57045,267.042952 389.686774,267.414199 389.919425,267.6815 C390.152076,267.948801 390.471348,268.08245 390.87725,268.08245 C391.104951,268.08245 391.295524,268.055225 391.448975,268.000775 C391.602426,267.946325 391.736074,267.8894 391.849925,267.83 C391.963776,267.7706 392.06525,267.713675 392.15435,267.659225 C392.24345,267.604775 392.33255,267.57755 392.42165,267.57755 C392.530551,267.57755 392.61965,267.604775 392.68895,267.659225 C392.75825,267.713675 392.8325,267.795349 392.9117,267.90425 L394.0106,269.68625 C393.475997,270.131752 392.862203,270.468349 392.1692,270.69605 C391.476197,270.923751 390.758454,271.0376 390.01595,271.0376 Z M405.28175,258.5339 C405.18275,258.692301 405.078801,258.803675 404.9699,258.868025 C404.860999,258.932375 404.722401,258.96455 404.5541,258.96455 C404.375899,258.96455 404.185326,258.91505 403.982375,258.81605 C403.779424,258.71705 403.544301,258.605676 403.277,258.481925 C403.009699,258.358174 402.705277,258.2468 402.363725,258.1478 C402.022173,258.0488 401.618752,257.9993 401.15345,257.9993 C400.430746,257.9993 399.863977,258.152748 399.453125,258.45965 C399.042273,258.766552 398.83685,259.167498 398.83685,259.6625 C398.83685,259.989202 398.943274,260.263924 399.156125,260.486675 C399.368976,260.709426 399.651123,260.904949 400.002575,261.07325 C400.354027,261.241551 400.752498,261.392524 401.198,261.526175 C401.643502,261.659826 402.096423,261.805849 402.556775,261.96425 C403.017127,262.122651 403.470048,262.303324 403.91555,262.506275 C404.361052,262.709226 404.759523,262.966623 405.110975,263.278475 C405.462427,263.590327 405.744574,263.964048 405.957425,264.39965 C406.170276,264.835252 406.2767,265.359947 406.2767,265.97375 C406.2767,266.706354 406.145526,267.382022 405.883175,268.000775 C405.620824,268.619528 405.232253,269.154123 404.71745,269.604575 C404.202647,270.055027 403.566579,270.406474 402.809225,270.658925 C402.051871,270.911376 401.178205,271.0376 400.1882,271.0376 C399.663497,271.0376 399.151177,270.990575 398.651225,270.896525 C398.151273,270.802475 397.671127,270.671301 397.210775,270.503 C396.750423,270.334699 396.324727,270.136701 395.933675,269.909 C395.542623,269.681299 395.198601,269.433801 394.9016,269.1665 L395.74805,267.7706 C395.856951,267.602299 395.985649,267.4736 396.13415,267.3845 C396.282651,267.2954 396.470749,267.25085 396.69845,267.25085 C396.926151,267.25085 397.141474,267.315199 397.344425,267.4439 C397.547376,267.572601 397.782499,267.711199 398.0498,267.8597 C398.317101,268.008201 398.631423,268.146799 398.992775,268.2755 C399.354127,268.404201 399.811997,268.46855 400.3664,268.46855 C400.802002,268.46855 401.175723,268.416576 401.487575,268.312625 C401.799427,268.208674 402.056824,268.072551 402.259775,267.90425 C402.462726,267.735949 402.611225,267.540426 402.705275,267.317675 C402.799325,267.094924 402.84635,266.864751 402.84635,266.62715 C402.84635,266.270748 402.739926,265.978701 402.527075,265.751 C402.314224,265.523299 402.032077,265.325301 401.680625,265.157 C401.329173,264.988699 400.928227,264.837726 400.477775,264.704075 C400.027323,264.570424 399.566977,264.424401 399.096725,264.266 C398.626473,264.107599 398.166127,263.921976 397.715675,263.709125 C397.265223,263.496274 396.864277,263.226502 396.512825,262.8998 C396.161373,262.573098 395.879226,262.172152 395.666375,261.69695 C395.453524,261.221748 395.3471,260.647553 395.3471,259.97435 C395.3471,259.350647 395.470849,258.756653 395.71835,258.19235 C395.965851,257.628047 396.329673,257.135527 396.809825,256.714775 C397.289977,256.294023 397.888921,255.957426 398.606675,255.704975 C399.324429,255.452524 400.153545,255.3263 401.09405,255.3263 C402.143455,255.3263 403.098796,255.499548 403.9601,255.84605 C404.821404,256.192552 405.539147,256.647947 406.11335,257.21225 L405.28175,258.5339 Z" id="path-6"></path>
        <filter x="-1.8%" y="-18.2%" width="103.5%" height="151.0%" filterUnits="objectBoundingBox" id="filter-7">
            <feOffset dx="0" dy="2" in="SourceAlpha" result="shadowOffsetOuter1"></feOffset>
            <feGaussianBlur stdDeviation="2" in="shadowOffsetOuter1" result="shadowBlurOuter1"></feGaussianBlur>
            <feColorMatrix values="0 0 0 0 0   0 0 0 0 0   0 0 0 0 0  0 0 0 0.5 0" type="matrix" in="shadowBlurOuter1"></feColorMatrix>
        </filter>
    </defs>
    <g id="Page-1" stroke="none" stroke-width="1" fill="none" fill-rule="evenodd">
        <g id="Desktop-HD" transform="translate(-910.000000, -189.000000)">
            <g id="Slide1" transform="translate(1.000000, 101.000000)">
                <g id="Group-4" transform="translate(911.000000, 90.000000)">
                    <g id="Whole-Family-Dentist">
                        <use fill="black" fill-opacity="1" filter="url(#filter-2)" xlink:href="#path-1"></use>
                        <use fill="#FFFFFF" fill-rule="evenodd" xlink:href="#path-1"></use>
                    </g>
                    <g id="LOVE">
                        <use fill="black" fill-opacity="1" filter="url(#filter-4)" xlink:href="#path-3"></use>
                        <use fill="#FFFFFF" fill-rule="evenodd" xlink:href="#path-3"></use>
                    </g>
                    <g id="bottom">
                        <use fill="#6FBA10" fill-rule="evenodd" xlink:href="#path-5"></use>
                        <rect stroke="#FFFFFF" stroke-width="2" x="-1" y="287" width="235" height="46" rx="23"></rect>
                    </g>
                    <text id="NEW-PATIENT-OFFERS" font-family="Lato-Black, Lato" font-size="14" font-weight="700" fill="#FFFFFF">
                        <tspan x="42.655" y="315">NEW PATIENT OFFERS</tspan>
                    </text>
                    <g id="Now-Welcoming-New-Pa">
                        <use fill="black" fill-opacity="1" filter="url(#filter-7)" xlink:href="#path-6"></use>
                        <use fill="#FFFFFF" fill-rule="evenodd" xlink:href="#path-6"></use>
                    </g>
                </g>
            </g>
        </g>
    </g>
</svg>