<?xml version="1.0" encoding="UTF-8"?>
<svg width="420px" height="284px" viewBox="0 0 420 284" version="1.1" xmlns="http://www.w3.org/2000/svg" xmlns:xlink="http://www.w3.org/1999/xlink">
    <!-- Generator: Sketch 46.2 (44496) - http://www.bohemiancoding.com/sketch -->
    <title>Group 4</title>
    <desc>Created with Sketch.</desc>
    <defs>
        <path d="M51.04,8.128 L51.04,3.43 L37.99,3.43 L37.99,8.36 L41.122,8.592 L36.192,32.836 L36.076,32.836 L29.812,6.504 L22.33,6.504 L16.298,32.72 L16.066,32.72 L11.02,10.332 C10.73,8.94 11.484,8.418 12.76,8.302 L14.674,8.128 L14.674,3.43 L0.29,3.43 L0.29,8.36 L3.596,8.534 L11.6,42 L19.778,42 L25.694,16.19 L25.868,16.19 L31.958,42 L39.904,42 L47.212,10.39 C47.502,9.056 47.908,8.418 49.126,8.302 L51.04,8.128 Z M57.0865,35.504 C57.0865,36.954 56.5065,37.302 55.4045,37.418 L53.4905,37.592 L53.4905,42 L67.2945,42 L67.2945,37.36 L63.9885,37.186 L63.9885,23.15 C63.9885,20.134 66.1345,17.292 70.1945,17.292 C73.9065,17.292 74.7185,20.018 74.7185,23.556 L74.7185,35.504 C74.7185,36.954 74.1385,37.302 73.0365,37.418 L71.1225,37.592 L71.1225,42 L84.9265,42 L84.9265,37.36 L81.6205,37.186 L81.6205,22.048 C81.6205,15.204 78.1985,11.956 72.3985,11.956 C68.5705,11.956 65.6705,13.754 63.9305,16.248 L63.9305,0.646 L53.6065,0.646 L53.6065,5.46 L55.6365,5.576 C56.7385,5.634 57.0865,5.982 57.0865,7.258 L57.0865,35.504 Z M101.993,37.766 C106.517,37.766 108.315,33.59 108.315,27.558 C108.315,21.062 106.749,17.06 102.109,17.06 C97.5269999,17.06 95.6709999,21.004 95.6709999,26.572 C95.6709999,31.966 96.4249999,37.766 101.993,37.766 Z M88.6529999,27.384 C88.6529999,15.32 96.4829999,11.956 102.457,11.956 C106.749,11.956 115.391,13.29 115.391,26.63 C115.391,37.766 109.185,42.87 101.529,42.87 C93.7569999,42.87 88.6529999,37.882 88.6529999,27.384 Z M129.9635,0.646 L119.5815,0.646 L119.5815,5.46 L121.6115,5.576 C122.4815,5.634 123.0615,5.924 123.0615,6.968 L123.0615,35.562 C123.0615,36.954 122.4235,37.302 121.3795,37.418 L119.4655,37.592 L119.4655,42 L133.2695,42 L133.2695,37.36 L129.9635,37.186 L129.9635,0.646 Z M151.728,11.956 C157.412,11.956 161.182,14.856 161.182,20.018 C161.182,28.95 151.496,30.458 144.652,30.516 C144.884,34.286 146.856,37.36 151.786,37.36 C155.208,37.36 157.702,35.794 159.094,34.808 L161.298,39.506 C160.37,40.318 156.542,42.754 151.09,42.754 C141.23,42.754 137.402,36.722 137.402,28.08 C137.402,19.496 142.216,11.956 151.728,11.956 Z M154.802,20.134 C154.802,17.988 153.41,16.886 151.322,16.886 C146.682,16.886 144.594,21.352 144.42,25.644 C148.712,25.586 154.802,24.6 154.802,20.134 Z M177.509,42 L193.343,42 L193.343,37.07 L188.181,36.896 L188.181,25.528 L202.449,25.528 L202.449,19.612 L188.181,19.612 L188.181,9.346 L198.215,9.346 C199.781,9.346 199.897,10.042 199.897,11.144 L199.897,13.464 L205.813,13.058 L205.813,3.43 L177.799,3.43 L177.799,8.36 L181.105,8.534 L181.105,35.504 C181.105,36.664 180.409,37.012 179.423,37.128 L177.509,37.302 L177.509,42 Z M235.2915,13.986 L235.2915,35.562 C235.2915,36.838 235.6395,37.186 236.7415,37.244 L238.5975,37.36 L238.5975,42 L229.3755,42 L229.3755,38.636 L229.2015,38.578 C227.4035,41.188 224.4455,42.754 221.2555,42.754 C213.0775,42.754 209.6555,36.954 209.6555,28.66 C209.6555,18.452 214.5275,11.956 224.9675,11.956 C226.8815,11.956 231.1155,12.42 235.2915,13.986 Z M228.5635,32.778 L228.5635,17.756 C227.6935,17.35 225.8955,17.002 224.0975,17.002 C218.5875,17.002 216.7315,22.164 216.7315,28.428 C216.7315,33.242 217.8915,37.824 222.7635,37.824 C226.3595,37.824 228.5635,35.272 228.5635,32.778 Z M242.092,17.524 L244.528,17.698 C245.63,17.756 245.978,18.22 245.978,19.496 L245.978,35.504 L245.92,35.504 C245.92,36.954 245.34,37.302 244.238,37.418 L242.324,37.592 L242.324,42 L256.012,42 L256.012,37.36 L252.88,37.186 L252.88,23.15 C252.88,20.134 254.446,17.292 258.506,17.292 C262.218,17.292 262.508,20.018 262.508,23.556 L262.508,35.504 C262.508,36.954 261.928,37.302 260.826,37.418 L258.912,37.592 L258.912,42 L272.6,42 L272.6,37.36 L269.41,37.186 L269.41,23.266 C269.41,19.844 271.15,17.292 275.036,17.292 C278.748,17.292 279.038,20.018 279.038,23.556 L279.038,35.562 C278.98,36.954 278.4,37.302 277.356,37.418 L275.442,37.592 L275.442,42 L289.246,42 L289.246,37.36 L285.94,37.186 L285.94,22.048 C285.94,15.204 282.692,11.956 277.24,11.956 C273.412,11.956 270.454,13.696 268.424,16.596 C267.09,13.464 264.422,11.956 260.71,11.956 C256.882,11.956 253.924,13.696 251.894,16.596 L251.894,12.826 L242.092,12.826 L242.092,17.524 Z M303.4705,12.826 L293.0885,12.826 L293.0885,17.64 L295.1185,17.756 C296.2205,17.756 296.5685,18.162 296.5685,19.438 L296.5685,35.562 C296.5685,36.954 295.9305,37.302 294.8865,37.418 L292.9725,37.592 L292.9725,42 L306.7765,42 L306.7765,37.36 L303.4705,37.186 L303.4705,12.826 Z M294.9445,4.764 C294.9445,7.2 296.6845,8.998 299.3525,8.998 C301.9625,8.998 303.8185,7.2 303.8185,4.764 C303.8185,2.328 301.9625,0.414 299.4105,0.414 C296.6845,0.414 294.9445,2.328 294.9445,4.764 Z M320.827,0.646 L310.445,0.646 L310.445,5.46 L312.475,5.576 C313.345,5.634 313.925,5.924 313.925,6.968 L313.925,35.562 C313.925,36.954 313.287,37.302 312.243,37.418 L310.329,37.592 L310.329,42 L324.133,42 L324.133,37.36 L320.827,37.186 L320.827,0.646 Z M349.377499,40.898 C349.377499,46.176 347.231499,49.424 341.895499,49.424 C340.155499,49.424 338.879499,49.25 337.777499,48.844 C336.733499,48.438 336.443499,47.858 336.443499,46.756 L336.443499,43.972 L330.933499,44.436 L330.933499,52.498 C333.369499,53.716 338.183499,54.412 341.837499,54.412 C350.479499,54.412 355.293499,50.468 355.293499,40.898 L355.293499,12.826 L345.085499,12.826 L345.085499,17.582 L346.941499,17.698 C348.043499,17.698 348.391499,18.162 348.391499,19.438 L348.391499,29.936 C348.391499,32.952 346.245499,35.678 342.185499,35.678 C338.473499,35.678 337.893499,33.01 337.893499,29.472 L337.893499,12.826 L327.685499,12.826 L327.685499,17.582 L329.541499,17.698 C330.527499,17.756 330.991499,18.104 330.991499,19.322 L330.991499,30.98 C330.991499,37.824 334.181499,41.014 339.981499,41.014 C343.809499,41.014 347.347499,39.39 349.377499,36.49 L349.377499,40.898 Z M1.972,96 L1.972,91.302 L3.886,91.128 C4.872,91.012 5.568,90.664 5.568,89.504 L5.568,62.534 L2.262,62.36 L2.262,57.43 L18.154,57.43 C29.232,57.43 36.25,63.288 36.25,75.352 C36.25,90.548 27.782,96 18.444,96 L1.972,96 Z M12.644,63.056 L12.644,90.432 L18.56,90.432 C25.056,90.432 29.116,85.676 29.116,76.396 C29.116,65.956 24.07,63.056 17.806,63.056 L12.644,63.056 Z M55.3465,65.956 C61.0305,65.956 64.8005,68.856 64.8005,74.018 C64.8005,82.95 55.1145,84.458 48.2705,84.516 C48.5025,88.286 50.4745,91.36 55.4045,91.36 C58.8265,91.36 61.3205,89.794 62.7125,88.808 L64.9165,93.506 C63.9885,94.318 60.1605,96.754 54.7085,96.754 C44.8485,96.754 41.0205,90.722 41.0205,82.08 C41.0205,73.496 45.8345,65.956 55.3465,65.956 Z M58.4205,74.134 C58.4205,71.988 57.0285,70.886 54.9405,70.886 C50.3005,70.886 48.2125,75.352 48.0385,79.644 C52.3305,79.586 58.4205,78.6 58.4205,74.134 Z M68.8169999,71.466 L71.2529999,71.64 C72.2969999,71.698 72.7029999,72.162 72.7029999,73.438 L72.7029999,89.504 C72.7029999,90.954 72.1229999,91.302 71.0209999,91.418 L69.1069999,91.592 L69.1069999,96 L82.9109999,96 L82.9109999,91.36 L79.6049999,91.186 L79.6049999,77.15 C79.6049999,74.134 81.7509999,71.292 85.5789999,71.292 C89.5229999,71.292 90.3349999,73.728 90.3349999,77.556 L90.3349999,89.504 C90.3349999,90.954 89.7549999,91.302 88.6529999,91.418 L86.7389999,91.592 L86.7389999,96 L100.543,96 L100.543,91.36 L97.2369999,91.186 L97.2369999,76.048 C97.2369999,69.204 93.8149999,65.956 88.0149999,65.956 C84.1869999,65.956 80.6489999,67.696 78.6189999,70.596 L78.6189999,66.826 L68.8169999,66.826 L68.8169999,71.466 Z M108.3875,60.678 C107.1695,63.984 105.7775,67.116 101.7175,67.464 L101.1375,71.698 L105.2555,71.698 L105.2555,87.184 C105.2555,91.244 105.1975,96.812 114.2455,96.812 C116.9715,96.812 119.8715,96 121.6115,94.782 L119.8715,90.316 C118.9435,90.896 117.4935,91.534 115.9275,91.534 C113.5495,91.534 112.1575,90.49 112.1575,86.952 L112.1575,71.698 L119.2915,71.698 L119.8715,66.826 L112.1575,66.826 L112.1575,60.678 L108.3875,60.678 Z M134.618,66.826 L124.236,66.826 L124.236,71.64 L126.266,71.756 C127.368,71.756 127.716,72.162 127.716,73.438 L127.716,89.562 C127.716,90.954 127.078,91.302 126.034,91.418 L124.12,91.592 L124.12,96 L137.924,96 L137.924,91.36 L134.618,91.186 L134.618,66.826 Z M126.092,58.764 C126.092,61.2 127.832,62.998 130.5,62.998 C133.11,62.998 134.966,61.2 134.966,58.764 C134.966,56.328 133.11,54.414 130.558,54.414 C127.832,54.414 126.092,56.328 126.092,58.764 Z M156.7885,71.234 C157.8325,71.64 158.1225,72.104 158.1225,73.206 L158.1225,75.642 L163.3425,75.236 L163.3425,68.276 C161.0805,67.174 157.6585,65.956 153.7145,65.956 C147.6245,65.956 142.5205,69.146 142.5205,75.178 C142.5205,81.616 147.2185,83.066 151.5105,84.168 C154.6425,84.98 157.1945,85.502 157.1945,88.286 C157.1945,90.722 155.5125,91.824 152.6125,91.824 C151.2205,91.824 149.8865,91.65 148.7845,91.244 C147.7405,90.838 147.4505,90.374 147.4505,89.272 L147.4505,86.488 L142.2305,86.894 L142.2305,94.956 C144.6665,96.174 149.2485,96.754 152.9025,96.754 C159.1085,96.754 164.0965,93.506 164.0965,87.474 C164.0965,81.152 159.1085,79.702 154.5845,78.426 C151.8585,77.672 149.0745,76.86 149.0745,74.192 C149.0745,71.872 150.9305,70.712 153.4245,70.712 C154.8165,70.712 155.6865,70.828 156.7885,71.234 Z M173.913,60.678 C172.695,63.984 171.303,67.116 167.243,67.464 L166.663,71.698 L170.781,71.698 L170.781,87.184 C170.781,91.244 170.723,96.812 179.771,96.812 C182.497,96.812 185.397,96 187.137,94.782 L185.397,90.316 C184.469,90.896 183.019,91.534 181.453,91.534 C179.075,91.534 177.683,90.49 177.683,86.952 L177.683,71.698 L184.817,71.698 L185.397,66.826 L177.683,66.826 L177.683,60.678 L173.913,60.678 Z M193.2415,89.504 C193.2415,90.954 192.6615,91.302 191.5595,91.418 L189.6455,91.592 L189.6455,96 L205.1895,96 L205.1895,91.418 L200.1435,91.186 L200.1435,77.73 C200.1435,74.366 202.2895,71.872 205.4215,71.872 C206.0595,71.872 206.4655,71.93 206.9875,72.162 C207.4515,72.394 207.5675,72.916 207.5675,73.612 L207.5675,76.28 L212.9615,75.874 L212.9615,67.232 C211.0475,66.304 209.3075,65.956 207.3935,65.956 C203.5655,65.956 200.4915,68.276 199.1575,71.176 L199.1575,66.826 L189.3555,66.826 L189.3555,71.524 L191.7915,71.698 C192.8935,71.756 193.2415,72.162 193.2415,73.438 L193.2415,89.504 Z M238.09,94.898 C238.09,100.176 235.944,103.424 230.608,103.424 C228.868,103.424 227.592,103.25 226.49,102.844 C225.446,102.438 225.156,101.858 225.156,100.756 L225.156,97.972 L219.646,98.436 L219.646,106.498 C222.082,107.716 226.896,108.412 230.55,108.412 C239.192,108.412 244.006,104.468 244.006,94.898 L244.006,66.826 L233.798,66.826 L233.798,71.582 L235.654,71.698 C236.756,71.698 237.104,72.162 237.104,73.438 L237.104,83.936 C237.104,86.952 234.958,89.678 230.898,89.678 C227.186,89.678 226.606,87.01 226.606,83.472 L226.606,66.826 L216.398,66.826 L216.398,71.582 L218.254,71.698 C219.24,71.756 219.704,72.104 219.704,73.322 L219.704,84.98 C219.704,91.824 222.894,95.014 228.694,95.014 C232.522,95.014 236.06,93.39 238.09,90.49 L238.09,94.898 Z M273.151,89.504 L273.151,81.268 L263.291,62.534 L260.565,62.36 L260.565,57.43 L274.717,57.43 L274.717,62.128 L272.977,62.302 C271.701,62.418 271.353,63.346 271.991,64.564 L276.921,74.656 L277.153,74.656 L283.475,62.592 L280.575,62.36 L280.575,57.43 L293.045,57.43 L293.045,62.128 L291.305,62.302 C290.377,62.418 289.913,62.998 289.333,64.042 L280.227,81.268 L280.227,90.896 L284.751,91.07 L284.751,96 L268.395,96 L268.395,91.302 L271.469,91.128 C272.571,91.07 273.151,90.664 273.151,89.504 Z M304.833499,91.766 C309.357499,91.766 311.155499,87.59 311.155499,81.558 C311.155499,75.062 309.589499,71.06 304.949499,71.06 C300.367499,71.06 298.511499,75.004 298.511499,80.572 C298.511499,85.966 299.265499,91.766 304.833499,91.766 Z M291.493499,81.384 C291.493499,69.32 299.323499,65.956 305.297499,65.956 C309.589499,65.956 318.231499,67.29 318.231499,80.63 C318.231499,91.766 312.025499,96.87 304.369499,96.87 C296.597499,96.87 291.493499,91.882 291.493499,81.384 Z M352.291999,91.418 L350.261999,91.244 C349.159999,91.128 348.811999,90.838 348.811999,89.562 L348.811999,66.826 L338.603999,66.826 L338.603999,71.582 L340.459999,71.698 C341.561999,71.756 341.909999,72.162 341.909999,73.438 L341.909999,85.676 C341.909999,88.692 339.763999,91.418 335.703999,91.418 C331.991999,91.418 331.411999,88.75 331.411999,85.212 L331.411999,66.826 L321.203999,66.826 L321.203999,71.582 L323.059999,71.698 C324.045999,71.756 324.509999,72.104 324.509999,73.322 L324.509999,86.72 C324.509999,93.564 327.699999,96.754 333.499999,96.754 C337.327999,96.754 340.865999,95.13 342.895999,92.23 L342.895999,96 L352.291999,96 L352.291999,91.418 Z M357.468499,57.43 L358.048499,70.77 L362.282499,70.77 L362.862499,57.43 L357.468499,57.43 Z M378.710999,54.646 L368.328999,54.646 L368.328999,59.46 L370.358999,59.576 C371.228999,59.634 371.808999,59.924 371.808999,60.968 L371.808999,89.562 C371.808999,90.954 371.170999,91.302 370.126999,91.418 L368.212999,91.592 L368.212999,96 L382.016999,96 L382.016999,91.36 L378.710999,91.186 L378.710999,54.646 Z M396.299499,54.646 L385.917499,54.646 L385.917499,59.46 L387.947499,59.576 C388.817499,59.634 389.397499,59.924 389.397499,60.968 L389.397499,89.562 C389.397499,90.954 388.759499,91.302 387.715499,91.418 L385.801499,91.592 L385.801499,96 L399.605499,96 L399.605499,91.36 L396.299499,91.186 L396.299499,54.646 Z" id="path-1"></path>
        <filter x="-1.8%" y="-4.6%" width="103.5%" height="113.0%" filterUnits="objectBoundingBox" id="filter-2">
            <feOffset dx="0" dy="2" in="SourceAlpha" result="shadowOffsetOuter1"></feOffset>
            <feGaussianBlur stdDeviation="2" in="shadowOffsetOuter1" result="shadowBlurOuter1"></feGaussianBlur>
            <feColorMatrix values="0 0 0 0 0   0 0 0 0 0   0 0 0 0 0  0 0 0 1 0" type="matrix" in="shadowBlurOuter1"></feColorMatrix>
        </filter>
        <path d="M0.7722,233 L0.7722,119.258 L32.0112,119.258 L32.0112,205.766 L83.5956,205.766 L83.5956,233 L0.7722,233 Z M145.512902,233.9612 C136.862058,233.9612 129.012337,232.305817 121.963502,228.995 C114.914666,225.684183 108.880527,221.332127 103.860902,215.9387 C98.8412766,210.545273 94.9431156,204.377635 92.1663017,197.4356 C89.3894878,190.493565 88.0011017,183.338037 88.0011017,175.9688 C88.0011017,168.492763 89.4428873,161.283835 92.3265017,154.3418 C95.2101161,147.399765 99.2417758,141.285526 104.421602,135.9989 C109.601428,130.712274 115.742366,126.493716 122.844602,123.3431 C129.946837,120.192484 137.71646,118.6172 146.153702,118.6172 C154.804545,118.6172 162.654266,120.272583 169.703102,123.5834 C176.751937,126.894217 182.786077,131.272973 187.805702,136.7198 C192.825327,142.166627 196.696788,148.360965 199.420202,155.303 C202.143615,162.245035 203.505302,169.347164 203.505302,176.6096 C203.505302,184.085637 202.063516,191.267866 199.179902,198.1565 C196.296287,205.045134 192.291327,211.132674 187.164902,216.4193 C182.038476,221.705926 175.924237,225.951184 168.822002,229.1552 C161.719766,232.359216 153.950144,233.9612 145.512902,233.9612 Z M119.720702,176.2892 C119.720702,180.134019 120.254696,183.845282 121.322702,187.4231 C122.390707,191.000918 123.992691,194.178186 126.128702,196.955 C128.264712,199.731814 130.961385,201.974591 134.218802,203.6834 C137.476218,205.392209 141.347679,206.2466 145.833302,206.2466 C150.318924,206.2466 154.217085,205.365509 157.527902,203.6033 C160.838718,201.841091 163.535391,199.544914 165.618002,196.7147 C167.700612,193.884486 169.249197,190.653818 170.263802,187.0226 C171.278407,183.391382 171.785702,179.706819 171.785702,175.9688 C171.785702,172.123981 171.251707,168.412718 170.183702,164.8349 C169.115696,161.257082 167.487013,158.106514 165.297602,155.3831 C163.108191,152.659686 160.384818,150.470308 157.127402,148.8149 C153.869985,147.159492 150.051924,146.3318 145.673102,146.3318 C141.187479,146.3318 137.316018,147.186191 134.058602,148.895 C130.801185,150.603809 128.104512,152.873286 125.968502,155.7035 C123.832491,158.533714 122.257207,161.737682 121.242602,165.3155 C120.227997,168.893318 119.720702,172.551181 119.720702,176.2892 Z M235.465203,119.258 L257.733003,193.751 L279.680403,119.258 L312.521403,119.258 L270.709203,233 L244.756803,233 L202.464003,119.258 L235.465203,119.258 Z M403.434905,205.766 L403.434905,233 L322.373705,233 L322.373705,119.258 L401.993105,119.258 L401.993105,146.492 L353.612705,146.492 L353.612705,162.512 L394.944305,162.512 L394.944305,187.8236 L353.612705,187.8236 L353.612705,205.766 L403.434905,205.766 Z" id="path-3"></path>
        <filter x="-2.5%" y="-8.7%" width="107.0%" height="124.3%" filterUnits="objectBoundingBox" id="filter-4">
            <feOffset dx="4" dy="4" in="SourceAlpha" result="shadowOffsetOuter1"></feOffset>
            <feGaussianBlur stdDeviation="4" in="shadowOffsetOuter1" result="shadowBlurOuter1"></feGaussianBlur>
            <feColorMatrix values="0 0 0 0 0   0 0 0 0 0   0 0 0 0 0  0 0 0 0.5 0" type="matrix" in="shadowBlurOuter1"></feColorMatrix>
        </filter>
        <path d="M20.493,249.3269 L20.493,270.8 L18.4437,270.8 C18.1268984,270.8 17.8620761,270.748026 17.649225,270.644075 C17.4363739,270.540124 17.230951,270.364401 17.03295,270.1169 L5.8212,255.8015 C5.8806003,256.454903 5.9103,257.058797 5.9103,257.6132 L5.9103,270.8 L2.39085,270.8 L2.39085,249.3269 L4.4847,249.3269 C4.65300084,249.3269 4.79902438,249.334325 4.922775,249.349175 C5.04652562,249.364025 5.15542453,249.393725 5.249475,249.438275 C5.34352547,249.482825 5.43509955,249.547175 5.5242,249.631325 C5.61330045,249.715475 5.71229946,249.826849 5.8212,249.96545 L17.0775,264.34025 C17.0477999,263.993748 17.0230501,263.652202 17.00325,263.3156 C16.9834499,262.978998 16.97355,262.667151 16.97355,262.38005 L16.97355,249.3269 L20.493,249.3269 Z M30.9771,255.3263 C32.1057056,255.3263 33.1328204,255.509448 34.058475,255.87575 C34.9841296,256.242052 35.7761217,256.761797 36.434475,257.435 C37.0928283,258.108203 37.6001982,258.929895 37.9566,259.9001 C38.3130018,260.870305 38.4912,261.954344 38.4912,263.15225 C38.4912,264.360056 38.3130018,265.449045 37.9566,266.41925 C37.6001982,267.389455 37.0928283,268.216097 36.434475,268.8992 C35.7761217,269.582303 34.9841296,270.106998 34.058475,270.4733 C33.1328204,270.839602 32.1057056,271.02275 30.9771,271.02275 C29.8385943,271.02275 28.8040547,270.839602 27.87345,270.4733 C26.9428453,270.106998 26.1483783,269.582303 25.490025,268.8992 C24.8316717,268.216097 24.3218268,267.389455 23.960475,266.41925 C23.5991232,265.449045 23.41845,264.360056 23.41845,263.15225 C23.41845,261.954344 23.5991232,260.870305 23.960475,259.9001 C24.3218268,258.929895 24.8316717,258.108203 25.490025,257.435 C26.1483783,256.761797 26.9428453,256.242052 27.87345,255.87575 C28.8040547,255.509448 29.8385943,255.3263 30.9771,255.3263 Z M30.9771,268.20125 C32.2443063,268.20125 33.182322,267.775554 33.791175,266.92415 C34.400028,266.072746 34.70445,264.825358 34.70445,263.18195 C34.70445,261.538542 34.400028,260.286204 33.791175,259.4249 C33.182322,258.563596 32.2443063,258.13295 30.9771,258.13295 C29.6900936,258.13295 28.7372281,258.566071 28.118475,259.432325 C27.4997219,260.298579 27.19035,261.548442 27.19035,263.18195 C27.19035,264.815458 27.4997219,266.060371 28.118475,266.916725 C28.7372281,267.773079 29.6900936,268.20125 30.9771,268.20125 Z M62.80065,255.5639 L57.95955,270.8 L55.01925,270.8 C54.6826483,270.8 54.4500006,270.582202 54.3213,270.1466 L51.5889,261.34055 C51.4997996,261.043549 51.4181254,260.749026 51.343875,260.456975 C51.2696246,260.164924 51.2077502,259.870401 51.15825,259.5734 C51.0988497,259.870401 51.0320254,260.169873 50.957775,260.471825 C50.8835246,260.773777 50.8018504,261.073249 50.71275,261.37025 L47.9358,270.1466 C47.8169994,270.582202 47.554652,270.8 47.14875,270.8 L44.32725,270.8 L39.501,255.5639 L42.42645,255.5639 C42.6937513,255.5639 42.9214491,255.628249 43.10955,255.75695 C43.2976509,255.885651 43.4213997,256.048999 43.4808,256.247 L45.66375,264.3848 C45.7726505,264.830302 45.8691746,265.265898 45.953325,265.6916 C46.0374754,266.117302 46.1092497,266.542998 46.16865,266.9687 C46.2775505,266.542998 46.3938744,266.117302 46.517625,265.6916 C46.6413756,265.265898 46.7725493,264.830302 46.91115,264.3848 L49.43565,256.2173 C49.4950503,256.019299 49.6113741,255.855951 49.784625,255.72725 C49.9578759,255.598549 50.1682488,255.5342 50.41575,255.5342 L52.0344,255.5342 C52.2918013,255.5342 52.5120741,255.598549 52.695225,255.72725 C52.8783759,255.855951 52.9996497,256.019299 53.05905,256.2173 L55.5093,264.3848 C55.6380006,264.830302 55.7592744,265.268373 55.873125,265.699025 C55.9869756,266.129677 56.0983495,266.557848 56.20725,266.98355 C56.3359506,266.142046 56.5190988,265.275804 56.7567,264.3848 L58.99905,256.247 C59.0683503,256.048999 59.1920991,255.885651 59.3703,255.75695 C59.5485009,255.628249 59.7613488,255.5639 60.00885,255.5639 L62.80065,255.5639 Z M100.4454,249.3269 L93.77775,270.8 L90.1692,270.8 L85.4766,256.1282 C85.3478994,255.771798 85.2291005,255.336203 85.1202,254.8214 C85.0607997,255.068901 85.0014003,255.301549 84.942,255.51935 C84.8825997,255.737151 84.8182503,255.940099 84.74895,256.1282 L80.0118,270.8 L76.3884,270.8 L69.7356,249.3269 L73.07685,249.3269 C73.4233517,249.3269 73.7129238,249.408574 73.945575,249.571925 C74.1782262,249.735276 74.3341496,249.955549 74.41335,250.23275 L78.06645,263.078 C78.1456504,263.394802 78.2223746,263.738823 78.296625,264.110075 C78.3708754,264.481327 78.4475996,264.869898 78.5268,265.2758 C78.6060004,264.859998 78.6926245,264.468952 78.786675,264.10265 C78.8807255,263.736348 78.9821995,263.394802 79.0911,263.078 L83.3085,250.23275 C83.3877004,250.005049 83.5436238,249.797151 83.776275,249.60905 C84.0089262,249.420949 84.2935483,249.3269 84.63015,249.3269 L85.8033,249.3269 C86.1498017,249.3269 86.4319489,249.411049 86.64975,249.57935 C86.8675511,249.747651 87.0308995,249.965449 87.1398,250.23275 L91.34235,263.078 C91.550251,263.691803 91.7383492,264.399646 91.90665,265.20155 C92.0353506,264.419446 92.1788992,263.711603 92.3373,263.078 L95.9904,250.23275 C96.0498003,249.985249 96.2007738,249.772401 96.443325,249.5942 C96.6858762,249.415999 96.9754483,249.3269 97.31205,249.3269 L100.4454,249.3269 Z M110.5137,261.42965 C110.5137,260.954448 110.446876,260.506477 110.313225,260.085725 C110.179574,259.664973 109.979101,259.296202 109.7118,258.9794 C109.444499,258.662598 109.105427,258.412626 108.694575,258.229475 C108.283723,258.046324 107.806053,257.95475 107.26155,257.95475 C106.202245,257.95475 105.368178,258.256697 104.759325,258.8606 C104.150472,259.464503 103.761901,260.320844 103.5936,261.42965 L110.5137,261.42965 Z M103.51935,263.6423 C103.57875,264.424404 103.717349,265.100072 103.93515,265.669325 C104.152951,266.238578 104.440048,266.708823 104.79645,267.080075 C105.152852,267.451327 105.576073,267.728524 106.066125,267.911675 C106.556177,268.094826 107.098197,268.1864 107.6922,268.1864 C108.286203,268.1864 108.798523,268.117101 109.229175,267.9785 C109.659827,267.839899 110.036023,267.686451 110.357775,267.51815 C110.679527,267.349849 110.961674,267.196401 111.204225,267.0578 C111.446776,266.919199 111.681899,266.8499 111.9096,266.8499 C112.216502,266.8499 112.444199,266.963749 112.5927,267.19145 L113.64705,268.52795 C113.241148,269.003152 112.785753,269.401623 112.28085,269.723375 C111.775947,270.045127 111.248778,270.302524 110.699325,270.495575 C110.149872,270.688626 109.590528,270.82475 109.021275,270.90395 C108.452022,270.98315 107.900103,271.02275 107.3655,271.02275 C106.306195,271.02275 105.321155,270.847027 104.41035,270.495575 C103.499545,270.144123 102.707553,269.624378 102.03435,268.936325 C101.361147,268.248272 100.831502,267.39688 100.4454,266.382125 C100.059298,265.36737 99.86625,264.191757 99.86625,262.85525 C99.86625,261.815745 100.034548,260.83813 100.37115,259.922375 C100.707752,259.00662 101.190372,258.209678 101.819025,257.531525 C102.447678,256.853372 103.21492,256.316302 104.120775,255.9203 C105.02663,255.524298 106.048794,255.3263 107.1873,255.3263 C108.147605,255.3263 109.033646,255.479748 109.84545,255.78665 C110.657254,256.093552 111.355197,256.541522 111.9393,257.130575 C112.523403,257.719628 112.981273,258.442321 113.312925,259.298675 C113.644577,260.155029 113.8104,261.132645 113.8104,262.23155 C113.8104,262.785953 113.751001,263.159674 113.6322,263.352725 C113.513399,263.545776 113.285702,263.6423 112.9491,263.6423 L103.51935,263.6423 Z M120.27015,248.7329 L120.27015,270.8 L116.6022,270.8 L116.6022,248.7329 L120.27015,248.7329 Z M134.85285,258.78635 C134.743949,258.924951 134.637526,259.03385 134.533575,259.11305 C134.429624,259.19225 134.278651,259.23185 134.08065,259.23185 C133.892549,259.23185 133.709401,259.174926 133.5312,259.061075 C133.352999,258.947224 133.140151,258.818526 132.89265,258.674975 C132.645149,258.531424 132.350627,258.402726 132.009075,258.288875 C131.667523,258.175024 131.244303,258.1181 130.7394,258.1181 C130.095897,258.1181 129.531602,258.234424 129.0465,258.467075 C128.561398,258.699726 128.157977,259.033848 127.836225,259.46945 C127.514473,259.905052 127.274401,260.432222 127.116,261.050975 C126.957599,261.669728 126.8784,262.370146 126.8784,263.15225 C126.8784,263.964054 126.965024,264.686747 127.138275,265.32035 C127.311526,265.953953 127.561498,266.486073 127.8882,266.916725 C128.214902,267.347377 128.610898,267.674074 129.0762,267.896825 C129.541502,268.119576 130.066197,268.23095 130.6503,268.23095 C131.234403,268.23095 131.707123,268.159176 132.068475,268.015625 C132.429827,267.872074 132.734249,267.713676 132.98175,267.540425 C133.229251,267.367174 133.444574,267.208776 133.627725,267.065225 C133.810876,266.921674 134.016299,266.8499 134.244,266.8499 C134.541001,266.8499 134.763749,266.963749 134.91225,267.19145 L135.9666,268.52795 C135.560698,269.003152 135.120152,269.401623 134.64495,269.723375 C134.169748,270.045127 133.677228,270.302524 133.167375,270.495575 C132.657522,270.688626 132.132828,270.82475 131.593275,270.90395 C131.053722,270.98315 130.516653,271.02275 129.98205,271.02275 C129.041545,271.02275 128.155504,270.847027 127.3239,270.495575 C126.492296,270.144123 125.764653,269.631803 125.14095,268.9586 C124.517247,268.285397 124.024727,267.46123 123.663375,266.486075 C123.302023,265.51092 123.12135,264.399656 123.12135,263.15225 C123.12135,262.033544 123.282223,260.99653 123.603975,260.041175 C123.925727,259.08582 124.398447,258.259178 125.02215,257.561225 C125.645853,256.863272 126.418045,256.316302 127.33875,255.9203 C128.259455,255.524298 129.318744,255.3263 130.51665,255.3263 C131.655156,255.3263 132.652571,255.509448 133.508925,255.87575 C134.365279,256.242052 135.134997,256.766747 135.8181,257.44985 L134.85285,258.78635 Z M144.7281,255.3263 C145.856706,255.3263 146.88382,255.509448 147.809475,255.87575 C148.73513,256.242052 149.527122,256.761797 150.185475,257.435 C150.843828,258.108203 151.351198,258.929895 151.7076,259.9001 C152.064002,260.870305 152.2422,261.954344 152.2422,263.15225 C152.2422,264.360056 152.064002,265.449045 151.7076,266.41925 C151.351198,267.389455 150.843828,268.216097 150.185475,268.8992 C149.527122,269.582303 148.73513,270.106998 147.809475,270.4733 C146.88382,270.839602 145.856706,271.02275 144.7281,271.02275 C143.589594,271.02275 142.555055,270.839602 141.62445,270.4733 C140.693845,270.106998 139.899378,269.582303 139.241025,268.8992 C138.582672,268.216097 138.072827,267.389455 137.711475,266.41925 C137.350123,265.449045 137.16945,264.360056 137.16945,263.15225 C137.16945,261.954344 137.350123,260.870305 137.711475,259.9001 C138.072827,258.929895 138.582672,258.108203 139.241025,257.435 C139.899378,256.761797 140.693845,256.242052 141.62445,255.87575 C142.555055,255.509448 143.589594,255.3263 144.7281,255.3263 Z M144.7281,268.20125 C145.995306,268.20125 146.933322,267.775554 147.542175,266.92415 C148.151028,266.072746 148.45545,264.825358 148.45545,263.18195 C148.45545,261.538542 148.151028,260.286204 147.542175,259.4249 C146.933322,258.563596 145.995306,258.13295 144.7281,258.13295 C143.441094,258.13295 142.488228,258.566071 141.869475,259.432325 C141.250722,260.298579 140.94135,261.548442 140.94135,263.18195 C140.94135,264.815458 141.250722,266.060371 141.869475,266.916725 C142.488228,267.773079 143.441094,268.20125 144.7281,268.20125 Z M155.04885,270.8 L155.04885,255.5639 L157.2912,255.5639 C157.766402,255.5639 158.078249,255.786648 158.22675,256.23215 L158.46435,257.36075 C158.731651,257.063749 159.011324,256.791501 159.303375,256.544 C159.595426,256.296499 159.907273,256.083651 160.238925,255.90545 C160.570577,255.727249 160.926973,255.586176 161.308125,255.482225 C161.689277,255.378274 162.107548,255.3263 162.56295,255.3263 C163.523255,255.3263 164.312772,255.586172 164.931525,256.105925 C165.550278,256.625678 166.013098,257.316196 166.32,258.1775 C166.557601,257.672597 166.854598,257.239477 167.211,256.878125 C167.567402,256.516773 167.958448,256.222251 168.38415,255.99455 C168.809852,255.766849 169.262773,255.598551 169.742925,255.48965 C170.223077,255.380749 170.705698,255.3263 171.1908,255.3263 C172.032304,255.3263 172.779747,255.454999 173.43315,255.7124 C174.086553,255.969801 174.635998,256.345998 175.0815,256.841 C175.527002,257.336002 175.866074,257.939896 176.098725,258.6527 C176.331376,259.365504 176.4477,260.182245 176.4477,261.10295 L176.4477,270.8 L172.77975,270.8 L172.77975,261.10295 C172.77975,260.132745 172.566902,259.402627 172.1412,258.912575 C171.715498,258.422523 171.091804,258.1775 170.2701,258.1775 C169.893898,258.1775 169.544927,258.241849 169.223175,258.37055 C168.901423,258.499251 168.619276,258.684874 168.376725,258.927425 C168.134174,259.169976 167.943601,259.474398 167.805,259.8407 C167.666399,260.207002 167.5971,260.627748 167.5971,261.10295 L167.5971,270.8 L163.9143,270.8 L163.9143,261.10295 C163.9143,260.083245 163.708877,259.340752 163.298025,258.87545 C162.887173,258.410148 162.285754,258.1775 161.49375,258.1775 C160.959147,258.1775 160.461677,258.308674 160.001325,258.571025 C159.540973,258.833376 159.112802,259.192248 158.7168,259.64765 L158.7168,270.8 L155.04885,270.8 Z M183.7242,255.5639 L183.7242,270.8 L180.0414,270.8 L180.0414,255.5639 L183.7242,255.5639 Z M184.2291,251.12375 C184.2291,251.440552 184.164751,251.737549 184.03605,252.01475 C183.907349,252.291951 183.736576,252.534499 183.523725,252.7424 C183.310874,252.950301 183.060901,253.116124 182.7738,253.239875 C182.486699,253.363626 182.179802,253.4255 181.8531,253.4255 C181.536298,253.4255 181.236826,253.363626 180.954675,253.239875 C180.672524,253.116124 180.427501,252.950301 180.2196,252.7424 C180.011699,252.534499 179.845876,252.291951 179.722125,252.01475 C179.598374,251.737549 179.5365,251.440552 179.5365,251.12375 C179.5365,250.797048 179.598374,250.490151 179.722125,250.20305 C179.845876,249.915949 180.011699,249.668451 180.2196,249.46055 C180.427501,249.252649 180.672524,249.086826 180.954675,248.963075 C181.236826,248.839324 181.536298,248.77745 181.8531,248.77745 C182.179802,248.77745 182.486699,248.839324 182.7738,248.963075 C183.060901,249.086826 183.310874,249.252649 183.523725,249.46055 C183.736576,249.668451 183.907349,249.915949 184.03605,250.20305 C184.164751,250.490151 184.2291,250.797048 184.2291,251.12375 Z M190.89675,257.435 C191.203652,257.128098 191.527873,256.843476 191.869425,256.581125 C192.210977,256.318774 192.572323,256.096026 192.953475,255.912875 C193.334627,255.729724 193.742998,255.586176 194.1786,255.482225 C194.614202,255.378274 195.089397,255.3263 195.6042,255.3263 C196.435804,255.3263 197.173347,255.467374 197.81685,255.749525 C198.460353,256.031676 198.997423,256.427672 199.428075,256.937525 C199.858727,257.447378 200.185424,258.056221 200.408175,258.764075 C200.630926,259.471929 200.7423,260.251546 200.7423,261.10295 L200.7423,270.8 L197.07435,270.8 L197.07435,261.10295 C197.07435,260.172345 196.861502,259.452128 196.4358,258.942275 C196.010098,258.432422 195.361654,258.1775 194.49045,258.1775 C193.856847,258.1775 193.262853,258.321049 192.70845,258.60815 C192.154047,258.895251 191.629352,259.286298 191.13435,259.7813 L191.13435,270.8 L187.4664,270.8 L187.4664,255.5639 L189.70875,255.5639 C190.183952,255.5639 190.495799,255.786648 190.6443,256.23215 L190.89675,257.435 Z M209.78595,262.8107 C210.241352,262.8107 210.637348,262.748826 210.97395,262.625075 C211.310552,262.501324 211.590224,262.330551 211.812975,262.11275 C212.035726,261.894949 212.204024,261.632602 212.317875,261.3257 C212.431726,261.018798 212.48865,260.682202 212.48865,260.3159 C212.48865,259.563496 212.263427,258.967027 211.812975,258.526475 C211.362523,258.085923 210.686855,257.86565 209.78595,257.86565 C208.885045,257.86565 208.209377,258.085923 207.758925,258.526475 C207.308473,258.967027 207.08325,259.563496 207.08325,260.3159 C207.08325,260.672302 207.140174,261.003948 207.254025,261.31085 C207.367876,261.617752 207.536174,261.882574 207.758925,262.105325 C207.981676,262.328076 208.263823,262.501324 208.605375,262.625075 C208.946927,262.748826 209.340448,262.8107 209.78595,262.8107 Z M213.9291,271.4831 C213.9291,271.186099 213.840001,270.943551 213.6618,270.75545 C213.483599,270.567349 213.241052,270.421326 212.93415,270.317375 C212.627248,270.213424 212.268377,270.1367 211.857525,270.0872 C211.446673,270.0377 211.011077,270.000575 210.550725,269.975825 C210.090373,269.951075 209.615177,269.9288 209.125125,269.909 C208.635073,269.8892 208.157402,269.8496 207.6921,269.7902 C207.286198,270.017901 206.957026,270.285198 206.704575,270.5921 C206.452124,270.899002 206.3259,271.255398 206.3259,271.6613 C206.3259,271.928601 206.392724,272.178574 206.526375,272.411225 C206.660026,272.643876 206.872874,272.844349 207.164925,273.01265 C207.456976,273.180951 207.835648,273.312125 208.30095,273.406175 C208.766252,273.500225 209.335497,273.54725 210.0087,273.54725 C210.691803,273.54725 211.280848,273.495276 211.77585,273.391325 C212.270852,273.287374 212.679223,273.143826 213.000975,272.960675 C213.322727,272.777524 213.557849,272.559726 213.70635,272.307275 C213.854851,272.054824 213.9291,271.780101 213.9291,271.4831 Z M217.5822,256.08365 L217.5822,257.44985 C217.5822,257.885452 217.319853,258.15275 216.79515,258.25175 L215.42895,258.5042 C215.636851,259.028903 215.7408,259.603097 215.7408,260.2268 C215.7408,260.979204 215.589827,261.659822 215.287875,262.268675 C214.985923,262.877528 214.567653,263.394798 214.03305,263.8205 C213.498447,264.246202 212.867329,264.575374 212.139675,264.808025 C211.412021,265.040676 210.627454,265.157 209.78595,265.157 C209.488949,265.157 209.201851,265.14215 208.92465,265.11245 C208.647449,265.08275 208.375201,265.04315 208.1079,264.99365 C207.632698,265.280751 207.3951,265.602498 207.3951,265.9589 C207.3951,266.265802 207.536174,266.491024 207.818325,266.634575 C208.100476,266.778126 208.474198,266.8796 208.9395,266.939 C209.404802,266.9984 209.934447,267.035525 210.52845,267.050375 C211.122453,267.065225 211.731297,267.0974 212.355,267.1469 C212.978703,267.1964 213.587547,267.283024 214.18155,267.406775 C214.775553,267.530526 215.305198,267.726049 215.7705,267.99335 C216.235802,268.260651 216.609524,268.624473 216.891675,269.084825 C217.173826,269.545177 217.3149,270.136696 217.3149,270.8594 C217.3149,271.532603 217.149077,272.185997 216.817425,272.8196 C216.485773,273.453203 216.005628,274.017498 215.376975,274.5125 C214.748322,275.007502 213.97613,275.405973 213.060375,275.707925 C212.14462,276.009877 211.102656,276.16085 209.93445,276.16085 C208.786044,276.16085 207.786154,276.049476 206.93475,275.826725 C206.083346,275.603974 205.375503,275.306977 204.8112,274.935725 C204.246897,274.564473 203.826151,274.136302 203.54895,273.6512 C203.271749,273.166098 203.13315,272.661203 203.13315,272.1365 C203.13315,271.423696 203.348473,270.827227 203.779125,270.347075 C204.209777,269.866923 204.801296,269.483301 205.5537,269.1962 C205.147798,268.988299 204.826051,268.711102 204.58845,268.3646 C204.350849,268.018098 204.23205,267.562703 204.23205,266.9984 C204.23205,266.770699 204.274125,266.535576 204.358275,266.293025 C204.442425,266.050474 204.566174,265.810401 204.729525,265.5728 C204.892876,265.335199 205.098299,265.109976 205.3458,264.897125 C205.593301,264.684274 205.885348,264.493701 206.22195,264.3254 C205.449746,263.909598 204.843377,263.355203 204.402825,262.6622 C203.962273,261.969197 203.742,261.157405 203.742,260.2268 C203.742,259.474396 203.892973,258.793778 204.194925,258.184925 C204.496877,257.576072 204.917622,257.056327 205.457175,256.625675 C205.996728,256.195023 206.635271,255.865851 207.372825,255.63815 C208.110379,255.410449 208.914746,255.2966 209.78595,255.2966 C210.439353,255.2966 211.053147,255.363424 211.62735,255.497075 C212.201553,255.630726 212.726248,255.826249 213.20145,256.08365 L217.5822,256.08365 Z M245.7972,249.3269 L245.7972,270.8 L243.7479,270.8 C243.431098,270.8 243.166276,270.748026 242.953425,270.644075 C242.740574,270.540124 242.535151,270.364401 242.33715,270.1169 L231.1254,255.8015 C231.1848,256.454903 231.2145,257.058797 231.2145,257.6132 L231.2145,270.8 L227.69505,270.8 L227.69505,249.3269 L229.7889,249.3269 C229.957201,249.3269 230.103224,249.334325 230.226975,249.349175 C230.350726,249.364025 230.459625,249.393725 230.553675,249.438275 C230.647725,249.482825 230.7393,249.547175 230.8284,249.631325 C230.9175,249.715475 231.016499,249.826849 231.1254,249.96545 L242.3817,264.34025 C242.352,263.993748 242.32725,263.652202 242.30745,263.3156 C242.28765,262.978998 242.27775,262.667151 242.27775,262.38005 L242.27775,249.3269 L245.7972,249.3269 Z M259.35525,261.42965 C259.35525,260.954448 259.288426,260.506477 259.154775,260.085725 C259.021124,259.664973 258.820651,259.296202 258.55335,258.9794 C258.286049,258.662598 257.946977,258.412626 257.536125,258.229475 C257.125273,258.046324 256.647603,257.95475 256.1031,257.95475 C255.043795,257.95475 254.209728,258.256697 253.600875,258.8606 C252.992022,259.464503 252.603451,260.320844 252.43515,261.42965 L259.35525,261.42965 Z M252.3609,263.6423 C252.4203,264.424404 252.558899,265.100072 252.7767,265.669325 C252.994501,266.238578 253.281598,266.708823 253.638,267.080075 C253.994402,267.451327 254.417623,267.728524 254.907675,267.911675 C255.397727,268.094826 255.939747,268.1864 256.53375,268.1864 C257.127753,268.1864 257.640073,268.117101 258.070725,267.9785 C258.501377,267.839899 258.877573,267.686451 259.199325,267.51815 C259.521077,267.349849 259.803224,267.196401 260.045775,267.0578 C260.288326,266.919199 260.523449,266.8499 260.75115,266.8499 C261.058052,266.8499 261.285749,266.963749 261.43425,267.19145 L262.4886,268.52795 C262.082698,269.003152 261.627303,269.401623 261.1224,269.723375 C260.617497,270.045127 260.090328,270.302524 259.540875,270.495575 C258.991422,270.688626 258.432078,270.82475 257.862825,270.90395 C257.293572,270.98315 256.741653,271.02275 256.20705,271.02275 C255.147745,271.02275 254.162705,270.847027 253.2519,270.495575 C252.341095,270.144123 251.549103,269.624378 250.8759,268.936325 C250.202697,268.248272 249.673052,267.39688 249.28695,266.382125 C248.900848,265.36737 248.7078,264.191757 248.7078,262.85525 C248.7078,261.815745 248.876098,260.83813 249.2127,259.922375 C249.549302,259.00662 250.031922,258.209678 250.660575,257.531525 C251.289228,256.853372 252.05647,256.316302 252.962325,255.9203 C253.86818,255.524298 254.890344,255.3263 256.02885,255.3263 C256.989155,255.3263 257.875196,255.479748 258.687,255.78665 C259.498804,256.093552 260.196747,256.541522 260.78085,257.130575 C261.364953,257.719628 261.822823,258.442321 262.154475,259.298675 C262.486127,260.155029 262.65195,261.132645 262.65195,262.23155 C262.65195,262.785953 262.592551,263.159674 262.47375,263.352725 C262.354949,263.545776 262.127252,263.6423 261.79065,263.6423 L252.3609,263.6423 Z M286.94655,255.5639 L282.10545,270.8 L279.16515,270.8 C278.828548,270.8 278.595901,270.582202 278.4672,270.1466 L275.7348,261.34055 C275.6457,261.043549 275.564025,260.749026 275.489775,260.456975 C275.415525,260.164924 275.35365,259.870401 275.30415,259.5734 C275.24475,259.870401 275.177925,260.169873 275.103675,260.471825 C275.029425,260.773777 274.94775,261.073249 274.85865,261.37025 L272.0817,270.1466 C271.962899,270.582202 271.700552,270.8 271.29465,270.8 L268.47315,270.8 L263.6469,255.5639 L266.57235,255.5639 C266.839651,255.5639 267.067349,255.628249 267.25545,255.75695 C267.443551,255.885651 267.5673,256.048999 267.6267,256.247 L269.80965,264.3848 C269.918551,264.830302 270.015075,265.265898 270.099225,265.6916 C270.183375,266.117302 270.25515,266.542998 270.31455,266.9687 C270.423451,266.542998 270.539774,266.117302 270.663525,265.6916 C270.787276,265.265898 270.918449,264.830302 271.05705,264.3848 L273.58155,256.2173 C273.64095,256.019299 273.757274,255.855951 273.930525,255.72725 C274.103776,255.598549 274.314149,255.5342 274.56165,255.5342 L276.1803,255.5342 C276.437701,255.5342 276.657974,255.598549 276.841125,255.72725 C277.024276,255.855951 277.14555,256.019299 277.20495,256.2173 L279.6552,264.3848 C279.783901,264.830302 279.905174,265.268373 280.019025,265.699025 C280.132876,266.129677 280.244249,266.557848 280.35315,266.98355 C280.481851,266.142046 280.664999,265.275804 280.9026,264.3848 L283.14495,256.247 C283.21425,256.048999 283.337999,255.885651 283.5162,255.75695 C283.694401,255.628249 283.907249,255.5639 284.15475,255.5639 L286.94655,255.5639 Z M303.19245,260.12285 C303.925054,260.12285 304.563597,260.031276 305.1081,259.848125 C305.652603,259.664974 306.105523,259.402627 306.466875,259.061075 C306.828227,258.719523 307.097999,258.303727 307.2762,257.813675 C307.454401,257.323623 307.5435,256.776653 307.5435,256.17275 C307.5435,255.598547 307.454401,255.078802 307.2762,254.6135 C307.097999,254.148198 306.830702,253.752202 306.4743,253.4255 C306.117898,253.098798 305.667453,252.848826 305.12295,252.675575 C304.578447,252.502324 303.934954,252.4157 303.19245,252.4157 L300.2076,252.4157 L300.2076,260.12285 L303.19245,260.12285 Z M303.19245,249.3269 C304.627957,249.3269 305.870395,249.495198 306.9198,249.8318 C307.969205,250.168402 308.835447,250.638647 309.51855,251.24255 C310.201653,251.846453 310.709023,252.569146 311.040675,253.41065 C311.372327,254.252154 311.53815,255.172845 311.53815,256.17275 C311.53815,257.212255 311.364902,258.165121 311.0184,259.031375 C310.671898,259.897629 310.152153,260.642597 309.45915,261.2663 C308.766147,261.890003 307.89743,262.375098 306.852975,262.7216 C305.80852,263.068102 304.588357,263.24135 303.19245,263.24135 L300.2076,263.24135 L300.2076,270.8 L296.21295,270.8 L296.21295,249.3269 L303.19245,249.3269 Z M321.60645,264.2957 C320.547145,264.3452 319.656154,264.436774 318.93345,264.570425 C318.210746,264.704076 317.631602,264.874849 317.196,265.08275 C316.760398,265.290651 316.448551,265.533199 316.26045,265.8104 C316.072349,266.087601 315.9783,266.389548 315.9783,266.71625 C315.9783,267.359753 316.168873,267.820099 316.550025,268.0973 C316.931177,268.374501 317.428647,268.5131 318.04245,268.5131 C318.794854,268.5131 319.445772,268.376976 319.995225,268.104725 C320.544678,267.832474 321.081747,267.419153 321.60645,266.86475 L321.60645,264.2957 Z M313.20135,257.68745 C314.953659,256.083642 317.062338,255.28175 319.52745,255.28175 C320.418454,255.28175 321.215396,255.427774 321.9183,255.719825 C322.621204,256.011876 323.215198,256.417772 323.7003,256.937525 C324.185402,257.457278 324.554174,258.078496 324.806625,258.8012 C325.059076,259.523904 325.1853,260.315896 325.1853,261.1772 L325.1853,270.8 L323.5221,270.8 C323.175598,270.8 322.908301,270.748026 322.7202,270.644075 C322.532099,270.540124 322.383601,270.329752 322.2747,270.01295 L321.948,268.91405 C321.561898,269.260552 321.185702,269.564974 320.8194,269.827325 C320.453098,270.089676 320.071952,270.309949 319.67595,270.48815 C319.279948,270.666351 318.856727,270.802475 318.406275,270.896525 C317.955823,270.990575 317.458353,271.0376 316.91385,271.0376 C316.270347,271.0376 315.676353,270.950976 315.13185,270.777725 C314.587347,270.604474 314.117102,270.344602 313.7211,269.9981 C313.325098,269.651598 313.018201,269.220953 312.8004,268.70615 C312.582599,268.191347 312.4737,267.592403 312.4737,266.9093 C312.4737,266.523198 312.538049,266.139577 312.66675,265.758425 C312.795451,265.377273 313.005824,265.013452 313.297875,264.66695 C313.589926,264.320448 313.968598,263.993752 314.4339,263.68685 C314.899202,263.379948 315.470922,263.112651 316.149075,262.88495 C316.827228,262.657249 317.616745,262.471626 318.51765,262.328075 C319.418555,262.184524 320.448144,262.0979 321.60645,262.0682 L321.60645,261.1772 C321.60645,260.157495 321.388652,259.402627 320.95305,258.912575 C320.517448,258.422523 319.888804,258.1775 319.0671,258.1775 C318.473097,258.1775 317.980577,258.246799 317.589525,258.3854 C317.198473,258.524001 316.854451,258.679924 316.55745,258.853175 C316.260449,259.026426 315.990676,259.182349 315.748125,259.32095 C315.505574,259.459551 315.235801,259.52885 314.9388,259.52885 C314.681399,259.52885 314.463601,259.462026 314.2854,259.328375 C314.107199,259.194724 313.963651,259.038801 313.85475,258.8606 L313.20135,257.68745 Z M343.79235,270.8 L340.1244,270.8 L340.1244,258.31115 L333.0558,258.31115 L333.0558,266.56775 C333.0558,267.042952 333.172124,267.414199 333.404775,267.6815 C333.637426,267.948801 333.956698,268.08245 334.3626,268.08245 C334.590301,268.08245 334.780874,268.055225 334.934325,268.000775 C335.087776,267.946325 335.221424,267.8894 335.335275,267.83 C335.449126,267.7706 335.5506,267.713675 335.6397,267.659225 C335.7288,267.604775 335.8179,267.57755 335.907,267.57755 C336.015901,267.57755 336.105,267.604775 336.1743,267.659225 C336.2436,267.713675 336.31785,267.795349 336.39705,267.90425 L337.49595,269.68625 C336.961347,270.131752 336.347553,270.468349 335.65455,270.69605 C334.961547,270.923751 334.243804,271.0376 333.5013,271.0376 C332.174693,271.0376 331.157479,270.663879 330.449625,269.916425 C329.741771,269.168971 329.38785,268.136907 329.38785,266.8202 L329.38785,258.31115 L327.8286,258.31115 C327.630599,258.31115 327.462301,258.246801 327.3237,258.1181 C327.185099,257.989399 327.1158,257.796351 327.1158,257.53895 L327.1158,256.08365 L329.56605,255.66785 L330.33825,251.5247 C330.38775,251.326699 330.481799,251.173251 330.6204,251.06435 C330.759001,250.955449 330.937199,250.901 331.155,250.901 L333.0558,250.901 L333.0558,255.69755 L343.79235,255.69755 L343.79235,270.8 Z M344.4309,251.06435 C344.4309,251.381152 344.366551,251.680624 344.23785,251.962775 C344.109149,252.244926 343.938376,252.489949 343.725525,252.69785 C343.512674,252.905751 343.260226,253.071574 342.968175,253.195325 C342.676124,253.319076 342.366752,253.38095 342.04005,253.38095 C341.723248,253.38095 341.426251,253.319076 341.14905,253.195325 C340.871849,253.071574 340.629301,252.905751 340.4214,252.69785 C340.213499,252.489949 340.047676,252.244926 339.923925,251.962775 C339.800174,251.680624 339.7383,251.381152 339.7383,251.06435 C339.7383,250.737648 339.800174,250.433226 339.923925,250.151075 C340.047676,249.868924 340.213499,249.621426 340.4214,249.408575 C340.629301,249.195724 340.871849,249.027426 341.14905,248.903675 C341.426251,248.779924 341.723248,248.71805 342.04005,248.71805 C342.366752,248.71805 342.676124,248.779924 342.968175,248.903675 C343.260226,249.027426 343.512674,249.195724 343.725525,249.408575 C343.938376,249.621426 344.109149,249.868924 344.23785,250.151075 C344.366551,250.433226 344.4309,250.737648 344.4309,251.06435 Z M357.3504,261.42965 C357.3504,260.954448 357.283576,260.506477 357.149925,260.085725 C357.016274,259.664973 356.815801,259.296202 356.5485,258.9794 C356.281199,258.662598 355.942127,258.412626 355.531275,258.229475 C355.120423,258.046324 354.642753,257.95475 354.09825,257.95475 C353.038945,257.95475 352.204878,258.256697 351.596025,258.8606 C350.987172,259.464503 350.598601,260.320844 350.4303,261.42965 L357.3504,261.42965 Z M350.35605,263.6423 C350.41545,264.424404 350.554049,265.100072 350.77185,265.669325 C350.989651,266.238578 351.276748,266.708823 351.63315,267.080075 C351.989552,267.451327 352.412773,267.728524 352.902825,267.911675 C353.392877,268.094826 353.934897,268.1864 354.5289,268.1864 C355.122903,268.1864 355.635223,268.117101 356.065875,267.9785 C356.496527,267.839899 356.872723,267.686451 357.194475,267.51815 C357.516227,267.349849 357.798374,267.196401 358.040925,267.0578 C358.283476,266.919199 358.518599,266.8499 358.7463,266.8499 C359.053202,266.8499 359.280899,266.963749 359.4294,267.19145 L360.48375,268.52795 C360.077848,269.003152 359.622453,269.401623 359.11755,269.723375 C358.612647,270.045127 358.085478,270.302524 357.536025,270.495575 C356.986572,270.688626 356.427228,270.82475 355.857975,270.90395 C355.288722,270.98315 354.736803,271.02275 354.2022,271.02275 C353.142895,271.02275 352.157855,270.847027 351.24705,270.495575 C350.336245,270.144123 349.544253,269.624378 348.87105,268.936325 C348.197847,268.248272 347.668202,267.39688 347.2821,266.382125 C346.895998,265.36737 346.70295,264.191757 346.70295,262.85525 C346.70295,261.815745 346.871248,260.83813 347.20785,259.922375 C347.544452,259.00662 348.027072,258.209678 348.655725,257.531525 C349.284378,256.853372 350.05162,256.316302 350.957475,255.9203 C351.86333,255.524298 352.885494,255.3263 354.024,255.3263 C354.984305,255.3263 355.870346,255.479748 356.68215,255.78665 C357.493954,256.093552 358.191897,256.541522 358.776,257.130575 C359.360103,257.719628 359.817973,258.442321 360.149625,259.298675 C360.481277,260.155029 360.6471,261.132645 360.6471,262.23155 C360.6471,262.785953 360.587701,263.159674 360.4689,263.352725 C360.350099,263.545776 360.122402,263.6423 359.7858,263.6423 L350.35605,263.6423 Z M366.8247,257.435 C367.131602,257.128098 367.455823,256.843476 367.797375,256.581125 C368.138927,256.318774 368.500273,256.096026 368.881425,255.912875 C369.262577,255.729724 369.670948,255.586176 370.10655,255.482225 C370.542152,255.378274 371.017347,255.3263 371.53215,255.3263 C372.363754,255.3263 373.101297,255.467374 373.7448,255.749525 C374.388303,256.031676 374.925373,256.427672 375.356025,256.937525 C375.786677,257.447378 376.113374,258.056221 376.336125,258.764075 C376.558876,259.471929 376.67025,260.251546 376.67025,261.10295 L376.67025,270.8 L373.0023,270.8 L373.0023,261.10295 C373.0023,260.172345 372.789452,259.452128 372.36375,258.942275 C371.938048,258.432422 371.289604,258.1775 370.4184,258.1775 C369.784797,258.1775 369.190803,258.321049 368.6364,258.60815 C368.081997,258.895251 367.557302,259.286298 367.0623,259.7813 L367.0623,270.8 L363.39435,270.8 L363.39435,255.5639 L365.6367,255.5639 C366.111902,255.5639 366.423749,255.786648 366.57225,256.23215 L366.8247,257.435 Z M385.01595,271.0376 C383.689343,271.0376 382.672129,270.663879 381.964275,269.916425 C381.256421,269.168971 380.9025,268.136907 380.9025,266.8202 L380.9025,258.31115 L379.34325,258.31115 C379.145249,258.31115 378.976951,258.246801 378.83835,258.1181 C378.699749,257.989399 378.63045,257.796351 378.63045,257.53895 L378.63045,256.08365 L381.0807,255.6827 L381.8529,251.5247 C381.9024,251.326699 381.996449,251.173251 382.13505,251.06435 C382.273651,250.955449 382.451849,250.901 382.66965,250.901 L384.57045,250.901 L384.57045,255.69755 L388.63935,255.69755 L388.63935,258.31115 L384.57045,258.31115 L384.57045,266.56775 C384.57045,267.042952 384.686774,267.414199 384.919425,267.6815 C385.152076,267.948801 385.471348,268.08245 385.87725,268.08245 C386.104951,268.08245 386.295524,268.055225 386.448975,268.000775 C386.602426,267.946325 386.736074,267.8894 386.849925,267.83 C386.963776,267.7706 387.06525,267.713675 387.15435,267.659225 C387.24345,267.604775 387.33255,267.57755 387.42165,267.57755 C387.530551,267.57755 387.61965,267.604775 387.68895,267.659225 C387.75825,267.713675 387.8325,267.795349 387.9117,267.90425 L389.0106,269.68625 C388.475997,270.131752 387.862203,270.468349 387.1692,270.69605 C386.476197,270.923751 385.758454,271.0376 385.01595,271.0376 Z M400.28175,258.5339 C400.18275,258.692301 400.078801,258.803675 399.9699,258.868025 C399.860999,258.932375 399.722401,258.96455 399.5541,258.96455 C399.375899,258.96455 399.185326,258.91505 398.982375,258.81605 C398.779424,258.71705 398.544301,258.605676 398.277,258.481925 C398.009699,258.358174 397.705277,258.2468 397.363725,258.1478 C397.022173,258.0488 396.618752,257.9993 396.15345,257.9993 C395.430746,257.9993 394.863977,258.152748 394.453125,258.45965 C394.042273,258.766552 393.83685,259.167498 393.83685,259.6625 C393.83685,259.989202 393.943274,260.263924 394.156125,260.486675 C394.368976,260.709426 394.651123,260.904949 395.002575,261.07325 C395.354027,261.241551 395.752498,261.392524 396.198,261.526175 C396.643502,261.659826 397.096423,261.805849 397.556775,261.96425 C398.017127,262.122651 398.470048,262.303324 398.91555,262.506275 C399.361052,262.709226 399.759523,262.966623 400.110975,263.278475 C400.462427,263.590327 400.744574,263.964048 400.957425,264.39965 C401.170276,264.835252 401.2767,265.359947 401.2767,265.97375 C401.2767,266.706354 401.145526,267.382022 400.883175,268.000775 C400.620824,268.619528 400.232253,269.154123 399.71745,269.604575 C399.202647,270.055027 398.566579,270.406474 397.809225,270.658925 C397.051871,270.911376 396.178205,271.0376 395.1882,271.0376 C394.663497,271.0376 394.151177,270.990575 393.651225,270.896525 C393.151273,270.802475 392.671127,270.671301 392.210775,270.503 C391.750423,270.334699 391.324727,270.136701 390.933675,269.909 C390.542623,269.681299 390.198601,269.433801 389.9016,269.1665 L390.74805,267.7706 C390.856951,267.602299 390.985649,267.4736 391.13415,267.3845 C391.282651,267.2954 391.470749,267.25085 391.69845,267.25085 C391.926151,267.25085 392.141474,267.315199 392.344425,267.4439 C392.547376,267.572601 392.782499,267.711199 393.0498,267.8597 C393.317101,268.008201 393.631423,268.146799 393.992775,268.2755 C394.354127,268.404201 394.811997,268.46855 395.3664,268.46855 C395.802002,268.46855 396.175723,268.416576 396.487575,268.312625 C396.799427,268.208674 397.056824,268.072551 397.259775,267.90425 C397.462726,267.735949 397.611225,267.540426 397.705275,267.317675 C397.799325,267.094924 397.84635,266.864751 397.84635,266.62715 C397.84635,266.270748 397.739926,265.978701 397.527075,265.751 C397.314224,265.523299 397.032077,265.325301 396.680625,265.157 C396.329173,264.988699 395.928227,264.837726 395.477775,264.704075 C395.027323,264.570424 394.566977,264.424401 394.096725,264.266 C393.626473,264.107599 393.166127,263.921976 392.715675,263.709125 C392.265223,263.496274 391.864277,263.226502 391.512825,262.8998 C391.161373,262.573098 390.879226,262.172152 390.666375,261.69695 C390.453524,261.221748 390.3471,260.647553 390.3471,259.97435 C390.3471,259.350647 390.470849,258.756653 390.71835,258.19235 C390.965851,257.628047 391.329673,257.135527 391.809825,256.714775 C392.289977,256.294023 392.888921,255.957426 393.606675,255.704975 C394.324429,255.452524 395.153545,255.3263 396.09405,255.3263 C397.143455,255.3263 398.098796,255.499548 398.9601,255.84605 C399.821404,256.192552 400.539147,256.647947 401.11335,257.21225 L400.28175,258.5339 Z" id="path-5"></path>
        <filter x="-1.8%" y="-18.2%" width="103.5%" height="151.0%" filterUnits="objectBoundingBox" id="filter-6">
            <feOffset dx="0" dy="2" in="SourceAlpha" result="shadowOffsetOuter1"></feOffset>
            <feGaussianBlur stdDeviation="2" in="shadowOffsetOuter1" result="shadowBlurOuter1"></feGaussianBlur>
            <feColorMatrix values="0 0 0 0 0   0 0 0 0 0   0 0 0 0 0  0 0 0 0.5 0" type="matrix" in="shadowBlurOuter1"></feColorMatrix>
        </filter>
    </defs>
    <g id="Page-1" stroke="none" stroke-width="1" fill="none" fill-rule="evenodd">
        <g id="Desktop-HD" transform="translate(-913.000000, -189.000000)">
            <g id="Slide1" transform="translate(1.000000, 101.000000)">
                <g id="Group-4" transform="translate(916.000000, 90.000000)">
                    <g id="Whole-Family-Dentist">
                        <use fill="black" fill-opacity="1" filter="url(#filter-2)" xlink:href="#path-1"></use>
                        <use fill="#FFFFFF" fill-rule="evenodd" xlink:href="#path-1"></use>
                    </g>
                    <g id="LOVE">
                        <use fill="black" fill-opacity="1" filter="url(#filter-4)" xlink:href="#path-3"></use>
                        <use fill="#FFFFFF" fill-rule="evenodd" xlink:href="#path-3"></use>
                    </g>
                    <g id="Now-Welcoming-New-Pa">
                        <use fill="black" fill-opacity="1" filter="url(#filter-6)" xlink:href="#path-5"></use>
                        <use fill="#FFFFFF" fill-rule="evenodd" xlink:href="#path-5"></use>
                    </g>
                </g>
            </g>
        </g>
    </g>
</svg>